<svg width="21" height="20" viewBox="0 0 21 20" fill="none" xmlns="http://www.w3.org/2000/svg">
<path d="M18.8327 10V14.1667C18.8327 16.6667 17.166 18.3334 14.666 18.3334H6.33268C3.83268 18.3334 2.16602 16.6667 2.16602 14.1667V10C2.16602 7.73337 3.53268 6.15004 5.65768 5.88337C5.87435 5.85004 6.09935 5.83337 6.33268 5.83337H14.666C14.8827 5.83337 15.091 5.8417 15.291 5.87503C17.441 6.12503 18.8327 7.71671 18.8327 10Z" stroke="white" stroke-width="1.5" stroke-linecap="round" stroke-linejoin="round"/>
<path d="M15.2935 5.87496C15.0935 5.84163 14.8852 5.8333 14.6685 5.8333H6.33516C6.10182 5.8333 5.87682 5.84997 5.66016 5.8833C5.77682 5.64997 5.94349 5.4333 6.14349 5.2333L8.85182 2.51663C9.99349 1.38329 11.8435 1.38329 12.9852 2.51663L14.4435 3.99164C14.9768 4.51664 15.2602 5.18329 15.2935 5.87496Z" stroke="white" stroke-width="1.5" stroke-linecap="round" stroke-linejoin="round"/>
<path d="M18.8327 10.4166H16.3327C15.416 10.4166 14.666 11.1666 14.666 12.0833C14.666 13 15.416 13.75 16.3327 13.75H18.8327" stroke="white" stroke-width="1.5" stroke-linecap="round" stroke-linejoin="round"/>
</svg>
