<svg width="24" height="24" viewBox="0 0 24 24" fill="none" xmlns="http://www.w3.org/2000/svg">
<path d="M11.9999 22C6.47689 22 1.9999 17.523 1.9999 12C1.9999 6.47699 6.47689 2 11.9999 2C17.5229 2 21.9999 6.47699 21.9999 12C21.9999 17.523 17.5229 22 11.9999 22ZM11.9999 3.08787C7.10451 3.08787 3.08777 7.1046 3.08777 12C3.08777 16.8954 7.10451 20.9121 11.9999 20.9121C16.8953 20.9121 20.912 16.8954 20.912 12C20.912 7.1046 16.8953 3.08787 11.9999 3.08787Z" fill="#555555"/>
<path d="M6.14216 19.2382L5.13798 18.7779C5.43087 18.0666 6.35137 17.6901 7.39739 17.2298C8.40158 16.7695 9.65681 16.2256 9.65681 15.5562V14.6357C9.28024 14.3428 8.69446 13.6733 8.61078 12.711C8.31789 12.4181 7.85765 11.8742 7.85765 11.2047C7.85765 10.7863 8.02501 10.4516 8.15053 10.2424C8.06685 9.7821 7.89948 8.8616 7.89948 8.1503C7.89948 5.84905 9.48944 4.34277 11.9999 4.34277C12.7112 4.34277 13.5899 4.55197 14.0501 5.05406C15.1798 5.26327 16.1003 6.60218 16.1003 8.1503C16.1003 9.15449 15.933 9.99131 15.8074 10.3679C15.933 10.5771 16.0585 10.87 16.0585 11.2047C16.0585 11.9997 15.6819 12.5018 15.3053 12.7528C15.2217 13.7152 14.6777 14.3428 14.343 14.6357V15.5562C14.343 16.1419 15.389 16.5185 16.3514 16.8951C17.4811 17.3135 18.6526 17.7319 19.0292 18.6942L17.9832 19.0708C17.8158 18.5687 16.8116 18.234 15.9748 17.8993C14.6777 17.439 13.2133 16.8951 13.2133 15.5562V14.0499L13.4643 13.8825C13.5062 13.8825 14.2175 13.3804 14.2175 12.4181V12.0415L14.5522 11.916C14.5941 11.8742 14.9288 11.7068 14.9288 11.2047C14.9288 11.0373 14.8033 10.87 14.7614 10.8281L14.5522 10.5771L14.6359 10.2842C14.6359 10.2842 14.9288 9.36369 14.9288 8.10846C14.9288 7.06243 14.343 6.10009 13.7154 6.10009H13.3807L13.2133 5.80721C13.0878 5.598 12.5857 5.3888 11.9162 5.3888C10.0334 5.3888 8.90367 6.39298 8.90367 8.10846C8.90367 8.90344 9.19656 10.2005 9.19656 10.2005L9.28024 10.4934L9.07103 10.7026C9.07103 10.7026 8.90367 10.9118 8.90367 11.121C8.90367 11.4139 9.28024 11.7905 9.4476 11.9578L9.65681 12.1252V12.4181C9.65681 13.3386 10.4518 13.8407 10.4518 13.8407L10.7028 14.008V15.5143C10.7028 16.8951 9.15471 17.6064 7.77396 18.1921C7.18819 18.5269 6.30953 18.9453 6.14216 19.2382Z" fill="#555555"/>
</svg>
