<svg width="24" height="25" viewBox="0 0 24 25" fill="none" xmlns="http://www.w3.org/2000/svg">
<path fill-rule="evenodd" clip-rule="evenodd" d="M12 23C6.201 23 1.5 18.2975 1.5 12.5C1.5 6.7025 6.201 2 12 2C17.799 2 22.5 6.7025 22.5 12.5C22.5 18.2975 17.799 23 12 23ZM12 0.5C5.37225 0.5 0 5.87 0 12.5C0 19.13 5.37225 24.5 12 24.5C18.6278 24.5 24 19.13 24 12.5C24 5.87 18.6278 0.5 12 0.5ZM16.5 11.75H12.75V8C12.75 7.5875 12.4148 7.25 12 7.25C11.5852 7.25 11.25 7.5875 11.25 8V11.75H7.5C7.08525 11.75 6.75 12.0875 6.75 12.5C6.75 12.9125 7.08525 13.25 7.5 13.25H11.25V17C11.25 17.4125 11.5852 17.75 12 17.75C12.4148 17.75 12.75 17.4125 12.75 17V13.25H16.5C16.9147 13.25 17.25 12.9125 17.25 12.5C17.25 12.0875 16.9147 11.75 16.5 11.75Z" fill="#0074CC"/>
</svg>
