<svg width="40" height="40" viewBox="0 0 40 40" fill="none" xmlns="http://www.w3.org/2000/svg">
<path d="M29 13.9805C25.67 13.6505 22.32 13.4805 18.98 13.4805C17 13.4805 15.02 13.5805 13.04 13.7805L11 13.9805" stroke="#0074CC" stroke-width="1.5" stroke-linecap="round" stroke-linejoin="round"/>
<path d="M16.5 12.97L16.72 11.66C16.88 10.71 17 10 18.69 10H21.31C23 10 23.13 10.75 23.28 11.67L23.5 12.97" stroke="#0074CC" stroke-width="1.5" stroke-linecap="round" stroke-linejoin="round"/>
<path d="M26.85 17.1396L26.2 27.2096C26.09 28.7796 26 29.9996 23.21 29.9996H16.79C14 29.9996 13.91 28.7796 13.8 27.2096L13.15 17.1396" stroke="#0074CC" stroke-width="1.5" stroke-linecap="round" stroke-linejoin="round"/>
<path d="M18.33 24.5H21.66" stroke="#0074CC" stroke-width="1.5" stroke-linecap="round" stroke-linejoin="round"/>
<path d="M17.5 20.5H22.5" stroke="#0074CC" stroke-width="1.5" stroke-linecap="round" stroke-linejoin="round"/>
</svg>
