<svg width="300" height="197" viewBox="0 0 300 197" fill="none" xmlns="http://www.w3.org/2000/svg">
<g clip-path="url(#clip0_109_5686)">
<path d="M81.8256 75.6675C86.074 75.6675 89.5179 72.2191 89.5179 67.9654C89.5179 63.7116 86.074 60.2632 81.8256 60.2632C77.5773 60.2632 74.1333 63.7116 74.1333 67.9654C74.1333 72.2191 77.5773 75.6675 81.8256 75.6675Z" fill="#E1F1F9"/>
<path d="M39.8139 78.545C45.6496 78.545 50.3803 73.8083 50.3803 67.9651C50.3803 62.122 45.6496 57.3853 39.8139 57.3853C33.9783 57.3853 29.2476 62.122 29.2476 67.9651C29.2476 73.8083 33.9783 78.545 39.8139 78.545Z" fill="#E1F1F9"/>
<path d="M176.923 83.6234C182.759 83.6234 187.49 78.8866 187.49 73.0435C187.49 67.2004 182.759 62.4636 176.923 62.4636C171.088 62.4636 166.357 67.2004 166.357 73.0435C166.357 78.8866 171.088 83.6234 176.923 83.6234Z" fill="#E1F1F9"/>
<path d="M31.2763 117.902C40.2399 117.902 47.5062 110.627 47.5062 101.652C47.5062 92.6766 40.2399 85.4009 31.2763 85.4009C22.3128 85.4009 15.0464 92.6766 15.0464 101.652C15.0464 110.627 22.3128 117.902 31.2763 117.902Z" fill="#E1F1F9"/>
<path d="M189.94 117.902C198.904 117.902 206.17 110.627 206.17 101.652C206.17 92.6766 198.904 85.4009 189.94 85.4009C180.977 85.4009 173.71 92.6766 173.71 101.652C173.71 110.627 180.977 117.902 189.94 117.902Z" fill="#E1F1F9"/>
<path d="M101.014 71.6895C103.068 71.6895 104.734 70.0221 104.734 67.9653C104.734 65.9086 103.068 64.2412 101.014 64.2412C98.9601 64.2412 97.2949 65.9086 97.2949 67.9653C97.2949 70.0221 98.9601 71.6895 101.014 71.6895Z" fill="#E1F1F9"/>
<path d="M122.569 71.6895C124.624 71.6895 126.289 70.0221 126.289 67.9653C126.289 65.9086 124.624 64.2412 122.569 64.2412C120.515 64.2412 118.85 65.9086 118.85 67.9653C118.85 70.0221 120.515 71.6895 122.569 71.6895Z" fill="#E1F1F9"/>
<path d="M137.701 71.2661C139.755 71.2661 141.42 69.5988 141.42 67.542C141.42 65.4852 139.755 63.8179 137.701 63.8179C135.647 63.8179 133.981 65.4852 133.981 67.542C133.981 69.5988 135.647 71.2661 137.701 71.2661Z" fill="#E1F1F9"/>
<path d="M155.706 71.2661C157.76 71.2661 159.425 69.5988 159.425 67.542C159.425 65.4852 157.76 63.8179 155.706 63.8179C153.652 63.8179 151.986 65.4852 151.986 67.542C151.986 69.5988 153.652 71.2661 155.706 71.2661Z" fill="#E1F1F9"/>
<path d="M154.353 59.9246C156.407 59.9246 158.073 58.2572 158.073 56.2004C158.073 54.1437 156.407 52.4763 154.353 52.4763C152.299 52.4763 150.634 54.1437 150.634 56.2004C150.634 58.2572 152.299 59.9246 154.353 59.9246Z" fill="#E1F1F9"/>
<path d="M141.673 59.8398C143.728 59.8398 145.393 58.1725 145.393 56.1157C145.393 54.0589 143.728 52.3916 141.673 52.3916C139.619 52.3916 137.954 54.0589 137.954 56.1157C137.954 58.1725 139.619 59.8398 141.673 59.8398Z" fill="#E1F1F9"/>
<path opacity="0.4" d="M269.484 122.05H268.639V74.144C268.639 71.0123 266.103 68.3885 262.891 68.3885H164.835C161.2 68.3885 158.242 65.4261 158.242 61.7866V43.166H159.087V61.7866C159.087 64.9183 161.623 67.5421 164.835 67.5421H262.891C266.526 67.5421 269.484 70.5045 269.484 74.144V122.05Z" fill="url(#paint0_linear_109_5686)"/>
<path d="M190.363 122.05H189.518V79.2222C189.518 76.0906 186.982 73.4667 183.77 73.4667H164.666C158.749 73.4667 153.931 68.6423 153.931 62.7176V48.9214H154.776V62.7176C154.776 68.1345 159.172 72.6204 164.666 72.6204H183.77C187.405 72.6204 190.363 75.5827 190.363 79.2222V122.05Z" fill="url(#paint1_linear_109_5686)"/>
<path opacity="0.4" d="M30.3499 122.568H31.2546V74.3627C31.2546 71.2115 33.9689 68.5713 37.407 68.5713H142.359C146.249 68.5713 149.416 65.5903 149.416 61.9281V43.1909H148.511V61.9281C148.511 65.0793 145.797 67.7196 142.359 67.7196H37.407C33.5165 67.7196 30.3499 70.7005 30.3499 74.3627V122.568Z" fill="url(#paint2_linear_109_5686)"/>
<path d="M109.727 122.568H110.757V79.4991C110.757 76.3498 113.844 73.7112 117.755 73.7112H141.015C148.219 73.7112 154.085 68.8595 154.085 62.9014V49.0273H153.056V62.9014C153.056 68.3488 147.704 72.86 141.015 72.86H117.755C113.33 72.86 109.727 75.8391 109.727 79.4991V122.568Z" fill="url(#paint3_linear_109_5686)"/>
<path d="M182.333 23.3604C180.389 23.3604 178.529 23.7836 176.923 24.4607C176.923 24.1222 177.007 23.699 177.007 23.3604C177.007 17.6049 172.358 12.9498 166.61 12.9498C164.666 12.9498 162.891 13.4576 161.285 14.3887C160.439 6.2633 153.592 0 145.308 0C136.686 0 129.586 6.85577 129.247 15.4043C127.134 14.5579 124.767 14.0501 122.4 14.0501C112.088 14.0501 103.804 22.3447 103.804 32.6707C103.804 42.9967 112.088 51.2913 122.4 51.2913H182.417C190.11 51.2913 196.365 45.028 196.365 37.3259C196.365 29.6237 190.025 23.3604 182.333 23.3604Z" fill="url(#paint4_linear_109_5686)"/>
<path d="M81.8255 69.8274C82.8526 69.8274 83.6852 68.9937 83.6852 67.9653C83.6852 66.9369 82.8526 66.1033 81.8255 66.1033C80.7984 66.1033 79.9658 66.9369 79.9658 67.9653C79.9658 68.9937 80.7984 69.8274 81.8255 69.8274Z" fill="#6DE0F6"/>
<path d="M39.8138 70.5044C41.2143 70.5044 42.3497 69.3675 42.3497 67.9652C42.3497 66.5629 41.2143 65.426 39.8138 65.426C38.4132 65.426 37.2778 66.5629 37.2778 67.9652C37.2778 69.3675 38.4132 70.5044 39.8138 70.5044Z" fill="#6DE0F6"/>
<path d="M176.923 75.5827C178.324 75.5827 179.459 74.4459 179.459 73.0436C179.459 71.6412 178.324 70.5044 176.923 70.5044C175.523 70.5044 174.387 71.6412 174.387 73.0436C174.387 74.4459 175.523 75.5827 176.923 75.5827Z" fill="#6DE0F6"/>
<path d="M31.2761 105.545C33.4236 105.545 35.1645 103.802 35.1645 101.652C35.1645 99.5014 33.4236 97.7583 31.2761 97.7583C29.1286 97.7583 27.3877 99.5014 27.3877 101.652C27.3877 103.802 29.1286 105.545 31.2761 105.545Z" fill="#6DE0F6"/>
<path d="M189.941 105.545C192.088 105.545 193.829 103.802 193.829 101.652C193.829 99.5014 192.088 97.7583 189.941 97.7583C187.793 97.7583 186.052 99.5014 186.052 101.652C186.052 103.802 187.793 105.545 189.941 105.545Z" fill="#6DE0F6"/>
<path d="M101.014 68.8962C101.528 68.8962 101.944 68.4794 101.944 67.9652C101.944 67.451 101.528 67.0342 101.014 67.0342C100.501 67.0342 100.084 67.451 100.084 67.9652C100.084 68.4794 100.501 68.8962 101.014 68.8962Z" fill="#6DE0F6"/>
<path d="M122.569 68.8962C123.083 68.8962 123.499 68.4794 123.499 67.9652C123.499 67.451 123.083 67.0342 122.569 67.0342C122.056 67.0342 121.64 67.451 121.64 67.9652C121.64 68.4794 122.056 68.8962 122.569 68.8962Z" fill="#6DE0F6"/>
<path d="M137.701 68.4731C138.214 68.4731 138.631 68.0563 138.631 67.5421C138.631 67.0279 138.214 66.6111 137.701 66.6111C137.187 66.6111 136.771 67.0279 136.771 67.5421C136.771 68.0563 137.187 68.4731 137.701 68.4731Z" fill="#6DE0F6"/>
<path d="M155.706 68.4731C156.219 68.4731 156.636 68.0563 156.636 67.5421C156.636 67.0279 156.219 66.6111 155.706 66.6111C155.192 66.6111 154.776 67.0279 154.776 67.5421C154.776 68.0563 155.192 68.4731 155.706 68.4731Z" fill="#6DE0F6"/>
<path d="M154.353 57.1313C154.867 57.1313 155.283 56.7145 155.283 56.2003C155.283 55.6861 154.867 55.2693 154.353 55.2693C153.84 55.2693 153.423 55.6861 153.423 56.2003C153.423 56.7145 153.84 57.1313 154.353 57.1313Z" fill="#6DE0F6"/>
<path d="M141.673 57.0469C142.187 57.0469 142.603 56.63 142.603 56.1159C142.603 55.6017 142.187 55.1848 141.673 55.1848C141.16 55.1848 140.744 55.6017 140.744 56.1159C140.744 56.63 141.16 57.0469 141.673 57.0469Z" fill="#6DE0F6"/>
<path d="M27.8105 195.347L1.26779 180.028C-0.591892 178.927 -0.42283 177.065 1.77497 175.796L27.3033 161.068C29.5011 159.799 32.7978 159.63 34.6575 160.73L61.2847 176.05C63.1444 177.15 62.9753 179.012 60.7775 180.282L35.2492 195.009C33.0514 196.278 29.7547 196.448 27.8105 195.347Z" fill="#EFEFEF"/>
<path d="M107.016 195.347L80.4734 179.943C78.6137 178.843 78.7827 176.98 80.9805 175.711L106.509 160.984C108.707 159.714 112.003 159.545 113.863 160.645L140.406 176.049C142.265 177.15 142.096 179.012 139.899 180.281L114.37 195.009C112.172 196.278 108.876 196.448 107.016 195.347Z" fill="#EFEFEF"/>
<path d="M186.137 195.347L159.594 179.943C157.734 178.843 157.903 176.98 160.101 175.711L185.629 160.984C187.827 159.714 191.124 159.545 192.984 160.645L219.526 176.049C221.386 177.15 221.217 179.012 219.019 180.281L193.491 195.009C191.378 196.278 188.081 196.448 186.137 195.347Z" fill="#EFEFEF"/>
<g opacity="0.4">
<path d="M62.5527 158.698H49.3658L34.6575 150.234C32.7978 149.134 29.5011 149.303 27.3033 150.573L13.1866 158.783H-0.00017583V167.586C-0.0847067 168.347 0.337948 169.024 1.26779 169.532L27.8105 184.937C29.6702 186.037 32.9669 185.868 35.1647 184.598L60.693 169.871C61.7919 169.194 62.4681 168.347 62.4681 167.586V158.698H62.5527Z" fill="url(#paint5_linear_109_5686)"/>
<path d="M0.845133 168.178V159.291H14.0319L28.1486 151.081C30.3464 149.811 33.6431 149.642 35.5028 150.743L50.2112 159.206H62.5527V158.614H49.3658L34.6575 150.15C32.7978 149.05 29.5011 149.219 27.3033 150.489L13.1866 158.699H-0.00017583V167.586C-0.0847067 168.347 0.337948 169.025 1.26779 169.532L1.43685 169.617C1.01419 169.194 0.845133 168.686 0.845133 168.178Z" fill="#D4088C"/>
<path d="M27.8105 176.05L1.26779 160.645C-0.591892 159.545 -0.42283 157.683 1.77497 156.413L27.3033 141.686C29.5011 140.416 32.7978 140.247 34.6575 141.348L61.2002 156.752C63.0598 157.852 62.8908 159.714 60.693 160.984L35.1647 175.711C33.0514 176.981 29.7547 177.15 27.8105 176.05Z" fill="url(#paint6_linear_109_5686)"/>
<path d="M61.2849 156.752L34.6576 141.347C33.6433 140.755 32.2908 140.586 30.9383 140.586C31.9526 140.67 32.8825 140.924 33.6433 141.347L60.186 156.752C62.0456 157.852 61.8766 159.714 59.6788 160.984L34.1505 175.711C33.1361 176.303 31.7836 176.642 30.5156 176.727C32.1217 176.811 33.8969 176.473 35.1648 175.711L60.6931 160.984C62.8909 159.714 63.1445 157.767 61.2849 156.752Z" fill="#6EE8FC"/>
<path d="M31.1074 172.41C30.1776 172.41 29.2477 172.241 28.5715 171.818L8.79128 160.391C8.11504 159.968 7.69238 159.46 7.69238 158.783C7.69238 158.021 8.19957 157.344 9.12941 156.752L28.1488 145.749C29.8395 144.733 32.3754 144.648 33.8969 145.495L53.6772 156.921C54.3534 157.344 54.7761 157.852 54.7761 158.529C54.7761 159.291 54.2689 159.968 53.339 160.561L34.3196 171.564C33.3898 172.072 32.2063 172.41 31.1074 172.41ZM31.4456 145.495C30.4312 145.495 29.3323 145.749 28.487 146.257L9.46753 157.26C8.70675 157.683 8.19957 158.275 8.19957 158.868C8.19957 159.291 8.53769 159.714 9.04488 160.053L28.8251 171.479C30.1776 172.241 32.5445 172.156 34.066 171.225L53.0854 160.222C53.8462 159.799 54.3534 159.206 54.3534 158.614C54.3534 158.191 54.0153 157.767 53.5081 157.429L33.7279 146.003C33.1362 145.664 32.2909 145.495 31.4456 145.495Z" fill="#480689"/>
<path d="M29.0785 176.05L2.45125 160.645C0.591569 159.545 0.760631 157.683 2.95843 156.413L28.4868 141.686C29.5011 141.094 30.7691 140.755 32.1216 140.67C30.5155 140.586 28.7403 140.924 27.3033 141.686L1.775 156.413C-0.422801 157.683 -0.676394 159.545 1.26782 160.645L27.8105 176.05C28.8249 176.642 30.1774 176.896 31.6144 176.727C30.6846 176.642 29.7547 176.473 29.0785 176.05Z" fill="#D4088C"/>
</g>
<g opacity="0.5">
<path d="M62.5527 146.511H49.3658L34.6575 137.962C32.7978 136.862 29.5011 137.031 27.3033 138.301L13.1866 146.511H-0.00017583V155.398C-0.0847067 156.159 0.337948 156.837 1.26779 157.344L27.8105 172.664C29.6702 173.764 32.9669 173.595 35.1647 172.326L60.693 157.598C61.7919 156.921 62.4681 156.075 62.4681 155.313V146.511H62.5527Z" fill="url(#paint7_linear_109_5686)"/>
<path d="M0.845133 155.99V147.103H14.0319L28.1486 138.893C30.3464 137.623 33.6431 137.454 35.5028 138.555L50.2112 147.018H62.5527V146.426H49.3658L34.6575 137.962C32.7978 136.862 29.5011 137.031 27.3033 138.301L13.1866 146.511H-0.00017583V155.398C-0.0847067 156.159 0.337948 156.837 1.26779 157.344L1.43685 157.429C1.01419 157.006 0.845133 156.498 0.845133 155.99Z" fill="#D4088C"/>
<path d="M27.8105 163.862L1.26779 148.457C-0.591892 147.357 -0.42283 145.495 1.77497 144.225L27.3033 129.498C29.5011 128.229 32.7978 128.059 34.6575 129.16L61.2002 144.564C63.0598 145.664 62.8908 147.526 60.693 148.796L35.1647 163.523C33.0514 164.793 29.7547 164.877 27.8105 163.862Z" fill="url(#paint8_linear_109_5686)"/>
<path d="M61.2849 144.479L34.6576 129.159C33.6433 128.567 32.2908 128.398 30.9383 128.398C31.9526 128.482 32.8825 128.736 33.6433 129.159L60.186 144.564C62.0456 145.664 61.8766 147.526 59.6788 148.796L34.1505 163.523C33.1361 164.115 31.7836 164.454 30.5156 164.539C32.1217 164.623 33.8969 164.285 35.1648 163.523L60.6931 148.796C62.8909 147.526 63.1445 145.579 61.2849 144.479Z" fill="#6EE8FC"/>
<path d="M31.1074 160.137C30.1776 160.137 29.2477 159.968 28.5715 159.545L8.79128 148.119C8.11504 147.695 7.69238 147.188 7.69238 146.51C7.69238 145.749 8.19957 145.072 9.12941 144.479L28.1488 133.476C29.8395 132.46 32.3754 132.376 33.8969 133.222L53.6772 144.648C54.3534 145.072 54.7761 145.579 54.7761 146.257C54.7761 147.018 54.2689 147.695 53.339 148.288L34.3196 159.291C33.3898 159.883 32.2063 160.137 31.1074 160.137ZM31.4456 133.222C30.4312 133.222 29.3323 133.476 28.487 133.984L9.46753 144.987C8.70675 145.41 8.19957 146.003 8.19957 146.595C8.19957 147.018 8.53769 147.441 9.04488 147.78L28.8251 159.206C30.1776 159.968 32.5445 159.883 34.066 158.952L53.0854 147.949C53.8462 147.526 54.3534 146.934 54.3534 146.341C54.3534 145.918 54.0153 145.495 53.5081 145.156L33.7279 133.73C33.1362 133.391 32.2909 133.222 31.4456 133.222Z" fill="#480689"/>
<path d="M29.0785 163.862L2.45125 148.457C0.591569 147.357 0.760631 145.495 2.95843 144.225L28.4868 129.498C29.5011 128.906 30.7691 128.567 32.1216 128.482C30.5155 128.398 28.7403 128.736 27.3033 129.498L1.775 144.225C-0.422801 145.495 -0.676394 147.357 1.26782 148.457L27.8105 163.862C28.8249 164.454 30.1774 164.708 31.6144 164.539C30.6846 164.454 29.7547 164.2 29.0785 163.862Z" fill="#D4088C"/>
</g>
<g opacity="0.7">
<path d="M62.5527 134.322H49.3658L34.6575 125.859C32.7978 124.758 29.5011 124.927 27.3033 126.197L13.1866 134.407H-0.00017583V143.294C-0.0847067 144.056 0.337948 144.733 1.26779 145.241L27.8105 160.645C29.6702 161.746 32.9669 161.576 35.1647 160.307L60.693 145.579C61.7919 144.902 62.4681 144.056 62.4681 143.294V134.322H62.5527Z" fill="url(#paint9_linear_109_5686)"/>
<path d="M0.845133 143.717V134.83H14.0319L28.1486 126.62C30.3464 125.351 33.6431 125.181 35.5028 126.282L50.2112 134.746H62.5527V134.153H49.3658L34.6575 125.689C32.7978 124.589 29.5011 124.758 27.3033 126.028L13.1866 134.238H-0.00017583V143.125C-0.0847067 143.887 0.337948 144.564 1.26779 145.072L1.43685 145.156C1.01419 144.733 0.845133 144.225 0.845133 143.717Z" fill="#D4088C"/>
<path d="M27.8105 151.589L1.26779 136.269C-0.591892 135.169 -0.42283 133.307 1.77497 132.037L27.3033 117.31C29.5011 116.041 32.7978 115.871 34.6575 116.972L61.2002 132.376C63.0598 133.476 62.8908 135.338 60.693 136.608L35.1647 151.335C33.0514 152.605 29.7547 152.689 27.8105 151.589Z" fill="url(#paint10_linear_109_5686)"/>
<path d="M61.2849 132.291L34.6576 116.971C33.6433 116.379 32.2908 116.21 30.9383 116.21C31.9526 116.294 32.8825 116.548 33.6433 116.971L60.186 132.376C62.0456 133.476 61.8766 135.338 59.6788 136.608L34.1505 151.335C33.1361 151.927 31.7836 152.266 30.5156 152.351C32.1217 152.435 33.8969 152.097 35.1648 151.335L60.6931 136.608C62.8909 135.338 63.1445 133.391 61.2849 132.291Z" fill="#6EE8FC"/>
<path d="M31.1074 147.949C30.1776 147.949 29.2477 147.78 28.5715 147.357L8.79128 135.931C8.11504 135.507 7.69238 135 7.69238 134.322C7.69238 133.561 8.19957 132.884 9.12941 132.291L28.1488 121.288C29.8395 120.272 32.3754 120.188 33.8969 121.034L53.6772 132.46C54.3534 132.884 54.7761 133.391 54.7761 134.069C54.7761 134.83 54.2689 135.507 53.339 136.1L34.3196 147.103C33.3898 147.695 32.2063 147.949 31.1074 147.949ZM31.4456 121.034C30.4312 121.034 29.3323 121.288 28.487 121.796L9.46753 132.799C8.70675 133.222 8.19957 133.815 8.19957 134.407C8.19957 134.83 8.53769 135.253 9.04488 135.592L28.8251 147.018C30.1776 147.78 32.5445 147.695 34.066 146.764L53.0854 135.761C53.8462 135.338 54.3534 134.746 54.3534 134.153C54.3534 133.73 54.0153 133.307 53.5081 132.968L33.7279 121.542C33.1362 121.203 32.2909 121.034 31.4456 121.034Z" fill="#480689"/>
<path d="M29.0785 151.589L2.45125 136.269C0.591569 135.169 0.760631 133.307 2.95843 132.037L28.4868 117.31C29.5011 116.718 30.7691 116.379 32.1216 116.294C30.5155 116.21 28.7403 116.548 27.3033 117.31L1.775 132.037C-0.422801 133.307 -0.676394 135.169 1.26782 136.269L27.8105 151.674C28.8249 152.266 30.1774 152.52 31.6144 152.351C30.6846 152.266 29.7547 152.012 29.0785 151.589Z" fill="#D4088C"/>
</g>
<path d="M62.5527 122.05H49.3658L34.6575 113.586C32.7978 112.485 29.5011 112.655 27.3033 113.924L13.1866 122.134H-0.00017583V131.021C-0.0847067 131.783 0.337948 132.46 1.26779 132.968L27.8105 148.373C29.6702 149.473 32.9669 149.304 35.1647 148.034L60.693 133.307C61.7919 132.63 62.4681 131.783 62.4681 131.021V122.05H62.5527Z" fill="url(#paint11_linear_109_5686)"/>
<path d="M0.845133 131.529V122.727H14.0319L28.1486 114.517C30.3464 113.247 33.6431 113.078 35.5028 114.178L50.2112 122.642H62.5527V122.05H49.3658L34.6575 113.586C32.7978 112.485 29.5011 112.655 27.3033 113.924L13.1866 122.134H-0.00017583V131.021C-0.0847067 131.783 0.337948 132.46 1.26779 132.968L1.43685 133.053C1.01419 132.545 0.845133 132.037 0.845133 131.529Z" fill="#D4088C"/>
<path d="M27.8105 139.401L1.26779 124.081C-0.591892 122.981 -0.42283 121.119 1.77497 119.849L27.3033 105.122C29.5011 103.852 32.7978 103.683 34.6575 104.783L61.2002 120.188C63.0598 121.288 62.8908 123.15 60.693 124.42L35.1647 139.147C33.0514 140.416 29.7547 140.501 27.8105 139.401Z" fill="url(#paint12_linear_109_5686)"/>
<path d="M61.2849 120.103L34.6576 104.699C33.6433 104.106 32.2908 103.937 30.9383 103.937C31.9526 104.022 32.8825 104.276 33.6433 104.699L60.186 120.103C62.0456 121.203 61.8766 123.065 59.6788 124.335L34.1505 139.062C33.1361 139.655 31.7836 139.993 30.5156 140.078C32.1217 140.163 33.8969 139.824 35.1648 139.062L60.6931 124.335C62.8909 123.065 63.1445 121.203 61.2849 120.103Z" fill="#6EE8FC"/>
<path d="M31.1074 135.761C30.1776 135.761 29.2477 135.592 28.5715 135.169L8.79128 123.743C8.11504 123.319 7.69238 122.812 7.69238 122.134C7.69238 121.373 8.19957 120.696 9.12941 120.103L28.1488 109.1C29.8395 108.084 32.3754 108 33.8969 108.846L53.6772 120.272C54.3534 120.696 54.7761 121.203 54.7761 121.881C54.7761 122.642 54.2689 123.319 53.339 123.912L34.3196 134.915C33.3898 135.507 32.2063 135.761 31.1074 135.761ZM31.4456 108.846C30.4312 108.846 29.3323 109.1 28.487 109.608L9.46753 120.611C8.70675 121.034 8.19957 121.627 8.19957 122.219C8.19957 122.642 8.53769 123.066 9.04488 123.404L28.8251 134.83C30.1776 135.592 32.5445 135.507 34.066 134.576L53.0854 123.573C53.8462 123.15 54.3534 122.558 54.3534 121.965C54.3534 121.542 54.0153 121.119 53.5081 120.78L33.7279 109.354C33.1362 109.015 32.2909 108.846 31.4456 108.846Z" fill="url(#paint13_linear_109_5686)"/>
<path d="M29.0785 139.401L2.45125 124.081C0.591569 122.981 0.760631 121.119 2.95843 119.849L28.4868 105.122C29.5011 104.529 30.7691 104.191 32.1216 104.106C30.5155 104.022 28.7403 104.36 27.3033 105.122L1.775 119.764C-0.422801 121.034 -0.676394 122.896 1.26782 123.996L27.8105 139.401C28.8249 139.993 30.1774 140.247 31.6144 140.078C30.6846 140.078 29.7547 139.824 29.0785 139.401Z" fill="#25BFEC"/>
<path d="M36.01 144.31L58.4952 131.276C58.6643 131.191 58.8333 130.852 58.8333 130.598V129.498C58.8333 129.244 58.6643 129.075 58.4952 129.244L36.01 142.279C35.841 142.363 35.6719 142.702 35.6719 142.956V144.056C35.5874 144.31 35.7564 144.479 36.01 144.31Z" fill="#6DE0F6"/>
<path d="M57.9881 131.022C58.1571 130.937 58.3262 130.598 58.3262 130.344V129.329L58.4107 129.244C58.5798 129.16 58.7489 129.244 58.7489 129.498V130.598C58.7489 130.852 58.5798 131.191 58.4107 131.275L35.9255 144.31C35.7565 144.395 35.5874 144.31 35.5874 144.056V143.971L57.9881 131.022Z" fill="#267FE5"/>
<g opacity="0.4">
<path d="M141.674 158.698H128.487L113.779 150.234C111.919 149.134 108.622 149.303 106.424 150.573L92.3077 158.783H79.1209V167.586C79.0364 168.347 79.459 169.024 80.3889 169.532L106.932 184.937C108.791 186.037 112.088 185.868 114.286 184.598L139.814 169.871C140.913 169.194 141.589 168.347 141.589 167.586V158.698H141.674Z" fill="url(#paint14_linear_109_5686)"/>
<path d="M79.9662 168.178V159.291H93.153L107.27 151.081C109.467 149.811 112.764 149.642 114.624 150.743L129.332 159.206H141.674V158.614H128.487L113.779 150.15C111.919 149.05 108.622 149.219 106.424 150.489L92.3077 158.699H79.1209V167.586C79.0364 168.347 79.459 169.025 80.3889 169.532L80.5579 169.617C80.1353 169.194 79.9662 168.686 79.9662 168.178Z" fill="#D4088C"/>
<path d="M107.016 176.05L80.4734 160.645C78.6137 159.545 78.7827 157.683 80.9805 156.413L106.509 141.686C108.707 140.416 112.003 140.247 113.863 141.348L140.406 156.752C142.265 157.852 142.096 159.714 139.899 160.984L114.37 175.711C112.172 176.981 108.876 177.15 107.016 176.05Z" fill="url(#paint15_linear_109_5686)"/>
<path d="M140.406 156.752L113.863 141.347C112.849 140.755 111.496 140.586 110.144 140.586C111.158 140.67 112.088 140.924 112.849 141.347L139.392 156.752C141.251 157.852 141.082 159.714 138.884 160.984L113.356 175.711C112.342 176.303 110.989 176.642 109.721 176.727C111.327 176.811 113.102 176.473 114.455 175.711L139.983 160.984C142.097 159.714 142.266 157.767 140.406 156.752Z" fill="#6EE8FC"/>
<path d="M110.228 172.41C109.298 172.41 108.368 172.241 107.692 171.818L87.9119 160.391C87.2356 159.968 86.813 159.46 86.813 158.783C86.813 158.021 87.3202 157.344 88.25 156.752L107.269 145.749C108.96 144.733 111.496 144.648 113.018 145.495L132.798 156.921C133.474 157.344 133.897 157.852 133.897 158.529C133.897 159.291 133.389 159.968 132.46 160.561L113.44 171.564C112.595 172.072 111.411 172.41 110.228 172.41ZM110.566 145.495C109.552 145.495 108.453 145.749 107.608 146.257L88.5881 157.26C87.8274 157.683 87.3202 158.275 87.3202 158.868C87.3202 159.291 87.6583 159.714 88.1655 160.053L107.946 171.479C109.298 172.241 111.665 172.156 113.187 171.225L132.206 160.222C132.967 159.799 133.474 159.206 133.474 158.614C133.474 158.191 133.136 157.767 132.629 157.429L112.848 146.003C112.257 145.664 111.411 145.495 110.566 145.495Z" fill="#480689"/>
<path d="M108.2 176.05L81.6568 160.645C79.7971 159.545 79.9662 157.683 82.164 156.413L107.692 141.686C108.707 141.094 109.975 140.755 111.327 140.67C109.721 140.586 107.946 140.924 106.509 141.686L80.9806 156.413C78.7828 157.683 78.5292 159.545 80.4734 160.645L107.016 176.05C108.03 176.642 109.383 176.896 110.82 176.727C109.806 176.642 108.876 176.473 108.2 176.05Z" fill="#D4088C"/>
</g>
<g opacity="0.5">
<path d="M141.674 146.51H128.487L113.779 138.047C111.919 136.946 108.622 137.115 106.424 138.385L92.3077 146.595H79.1209V155.482C79.0364 156.244 79.459 156.921 80.3889 157.429L106.932 172.833C108.791 173.934 112.088 173.764 114.286 172.495L139.814 157.767C140.913 157.09 141.589 156.244 141.589 155.482V146.51H141.674Z" fill="url(#paint16_linear_109_5686)"/>
<path d="M79.9662 155.99V147.103H93.153L107.27 138.893C109.467 137.623 112.764 137.454 114.624 138.554L129.332 147.018H141.674V146.426H128.487L113.779 137.962C111.919 136.861 108.622 137.031 106.424 138.3L92.3077 146.51H79.1209V155.397C79.0364 156.159 79.459 156.836 80.3889 157.344L80.5579 157.429C80.1353 157.006 79.9662 156.498 79.9662 155.99Z" fill="#D4088C"/>
<path d="M107.016 163.861L80.4734 148.457C78.6137 147.357 78.7827 145.495 80.9805 144.225L106.509 129.498C108.707 128.228 112.003 128.059 113.863 129.159L140.406 144.564C142.265 145.664 142.096 147.526 139.899 148.796L114.37 163.523C112.172 164.792 108.876 164.877 107.016 163.861Z" fill="url(#paint17_linear_109_5686)"/>
<path d="M140.406 144.479L113.863 129.075C112.849 128.482 111.496 128.313 110.144 128.313C111.158 128.398 112.088 128.652 112.849 129.075L139.392 144.479C141.251 145.579 141.082 147.441 138.884 148.711L113.356 163.438C112.342 164.031 110.989 164.369 109.721 164.454C111.327 164.539 113.102 164.2 114.455 163.438L139.983 148.711C142.097 147.526 142.266 145.579 140.406 144.479Z" fill="#6EE8FC"/>
<path d="M110.228 160.137C109.299 160.137 108.369 159.968 107.693 159.545L87.9968 148.119C87.3206 147.695 86.8979 147.188 86.8979 146.51C86.8979 145.749 87.4051 145.072 88.335 144.479L107.354 133.476C109.045 132.46 111.581 132.376 113.103 133.222L132.883 144.648C133.559 145.072 133.982 145.579 133.982 146.257C133.982 147.018 133.474 147.695 132.545 148.288L113.525 159.291C112.595 159.883 111.412 160.137 110.228 160.137ZM110.567 133.222C109.552 133.222 108.453 133.476 107.608 133.984L88.5886 144.987C87.8278 145.41 87.3206 146.003 87.3206 146.595C87.3206 147.018 87.6587 147.441 88.1659 147.78L107.946 159.206C109.299 159.968 111.665 159.883 113.187 158.952L132.206 147.949C132.967 147.526 133.474 146.934 133.474 146.341C133.474 145.918 133.136 145.495 132.629 145.156L112.849 133.73C112.257 133.391 111.412 133.222 110.567 133.222Z" fill="#480689"/>
<path d="M108.2 163.861L81.6568 148.457C79.7971 147.357 79.9662 145.495 82.164 144.225L107.692 129.498C108.707 128.905 109.975 128.567 111.327 128.482C109.721 128.398 107.946 128.736 106.509 129.498L80.9806 144.225C78.7828 145.495 78.5292 147.357 80.4734 148.457L107.016 163.861C108.03 164.454 109.383 164.708 110.82 164.538C109.806 164.454 108.876 164.2 108.2 163.861Z" fill="#D4088C"/>
</g>
<g opacity="0.7">
<path d="M141.674 134.322H128.487L113.779 125.859C111.919 124.758 108.622 124.927 106.424 126.197L92.3077 134.407H79.1209V143.294C79.0364 144.056 79.459 144.733 80.3889 145.241L106.932 160.645C108.791 161.746 112.088 161.576 114.286 160.307L139.814 145.579C140.913 144.902 141.589 144.056 141.589 143.294V134.322H141.674Z" fill="url(#paint18_linear_109_5686)"/>
<path d="M79.9662 143.717V134.83H93.153L107.27 126.62C109.467 125.351 112.764 125.181 114.624 126.282L129.332 134.746H141.674V134.153H128.487L113.779 125.689C111.919 124.589 108.622 124.758 106.424 126.028L92.3077 134.238H79.1209V143.125C79.0364 143.887 79.459 144.564 80.3889 145.072L80.5579 145.156C80.1353 144.733 79.9662 144.225 79.9662 143.717Z" fill="#D4088C"/>
<path d="M107.016 151.589L80.3889 136.269C78.5292 135.169 78.6983 133.307 80.8961 132.037L106.424 117.31C108.622 116.04 111.919 115.871 113.779 116.971L140.321 132.376C142.181 133.476 142.012 135.338 139.814 136.608L114.286 151.335C112.172 152.604 108.876 152.689 107.016 151.589Z" fill="url(#paint19_linear_109_5686)"/>
<path d="M140.406 132.291L113.863 116.887C112.849 116.294 111.496 116.125 110.144 116.125C111.158 116.21 112.088 116.464 112.849 116.887L139.392 132.291C141.251 133.391 141.082 135.253 138.884 136.523L113.356 151.25C112.342 151.843 110.989 152.181 109.721 152.266C111.327 152.351 113.102 152.012 114.455 151.25L139.983 136.523C142.097 135.338 142.266 133.391 140.406 132.291Z" fill="#6EE8FC"/>
<path d="M110.228 147.949C109.298 147.949 108.368 147.78 107.692 147.357L87.9119 135.931C87.2356 135.507 86.813 135 86.813 134.322C86.813 133.561 87.3202 132.884 88.25 132.291L107.269 121.288C108.96 120.272 111.496 120.188 113.018 121.034L132.798 132.46C133.474 132.884 133.897 133.391 133.897 134.069C133.897 134.83 133.389 135.507 132.46 136.1L113.44 147.103C112.595 147.695 111.411 147.949 110.228 147.949ZM110.566 121.034C109.552 121.034 108.453 121.288 107.608 121.796L88.5881 132.799C87.8274 133.222 87.3202 133.815 87.3202 134.407C87.3202 134.83 87.6583 135.253 88.1655 135.592L107.946 147.018C109.298 147.78 111.665 147.695 113.187 146.764L132.206 135.761C132.967 135.338 133.474 134.746 133.474 134.153C133.474 133.73 133.136 133.307 132.629 132.968L112.848 121.542C112.257 121.203 111.411 121.034 110.566 121.034Z" fill="#480689"/>
<path d="M108.2 151.589L81.6568 136.269C79.7971 135.169 79.9662 133.307 82.164 132.037L107.692 117.31C108.707 116.717 109.975 116.379 111.327 116.294C109.721 116.21 107.946 116.548 106.509 117.31L80.9806 132.037C78.7828 133.307 78.5292 135.169 80.4734 136.269L107.016 151.673C108.03 152.266 109.383 152.52 110.82 152.35C109.806 152.266 108.876 152.012 108.2 151.589Z" fill="#D4088C"/>
</g>
<path d="M141.674 122.05H128.487L113.779 113.586C111.919 112.485 108.622 112.655 106.424 113.924L92.3077 122.134H79.1209V131.021C79.0364 131.783 79.459 132.46 80.3889 132.968L106.932 148.373C108.791 149.473 112.088 149.304 114.286 148.034L139.814 133.307C140.913 132.63 141.589 131.783 141.589 131.021V122.05H141.674Z" fill="url(#paint20_linear_109_5686)"/>
<path d="M79.9662 131.529V122.642H93.153L107.27 114.432C109.467 113.163 112.764 112.994 114.624 114.094L129.332 122.558H141.674V121.965H128.487L113.779 113.501C111.919 112.401 108.622 112.57 106.424 113.84L92.3077 122.05H79.1209V130.937C79.0364 131.699 79.459 132.376 80.3889 132.884L80.5579 132.968C80.1353 132.545 79.9662 132.037 79.9662 131.529Z" fill="#D4088C"/>
<path d="M107.016 139.401L80.4734 123.997C78.6137 122.896 78.7827 121.034 80.9805 119.765L106.509 105.037C108.707 103.768 112.003 103.599 113.863 104.699L140.406 120.103C142.265 121.203 142.096 123.066 139.899 124.335L114.37 139.062C112.172 140.417 108.876 140.501 107.016 139.401Z" fill="url(#paint21_linear_109_5686)"/>
<path d="M140.406 120.103L113.863 104.699C112.849 104.106 111.496 103.937 110.144 103.937C111.158 104.022 112.088 104.276 112.849 104.699L139.392 120.103C141.251 121.203 141.082 123.065 138.884 124.335L113.356 139.062C112.342 139.655 110.989 139.993 109.721 140.078C111.327 140.163 113.102 139.824 114.455 139.062L139.983 124.335C142.097 123.065 142.266 121.203 140.406 120.103Z" fill="#6EE8FC"/>
<path d="M110.228 135.761C109.298 135.761 108.368 135.592 107.692 135.169L87.9119 123.743C87.2356 123.319 86.813 122.812 86.813 122.134C86.813 121.373 87.3202 120.696 88.25 120.103L107.269 109.1C108.96 108.084 111.496 108 113.018 108.846L132.798 120.272C133.474 120.696 133.897 121.203 133.897 121.881C133.897 122.642 133.389 123.319 132.46 123.912L113.44 134.915C112.595 135.507 111.411 135.761 110.228 135.761ZM110.566 108.846C109.552 108.846 108.453 109.1 107.608 109.608L88.5881 120.611C87.8274 121.034 87.3202 121.627 87.3202 122.219C87.3202 122.642 87.6583 123.066 88.1655 123.404L107.946 134.83C109.298 135.592 111.665 135.507 113.187 134.576L132.206 123.573C132.967 123.15 133.474 122.558 133.474 121.965C133.474 121.542 133.136 121.119 132.629 120.78L112.848 109.354C112.257 109.015 111.411 108.846 110.566 108.846Z" fill="url(#paint22_linear_109_5686)"/>
<path d="M108.2 139.401L81.6568 123.997C79.7971 122.896 79.9662 121.034 82.164 119.765L107.692 105.037C108.707 104.445 109.975 104.106 111.327 104.022C109.721 103.937 107.946 104.276 106.509 105.037L80.9806 119.765C78.7828 121.034 78.5292 122.896 80.4734 123.997L107.016 139.401C108.03 139.993 109.383 140.247 110.82 140.078C109.806 140.078 108.876 139.824 108.2 139.401Z" fill="#25BFEC"/>
<path d="M115.131 144.31L137.616 131.276C137.785 131.191 137.954 130.852 137.954 130.598V129.498C137.954 129.244 137.785 129.075 137.616 129.244L115.131 142.279C114.962 142.363 114.793 142.702 114.793 142.956V144.056C114.793 144.31 114.962 144.479 115.131 144.31Z" fill="#6DE0F6"/>
<path d="M137.109 131.022C137.278 130.937 137.447 130.598 137.447 130.344V129.329L137.532 129.244C137.701 129.16 137.87 129.244 137.87 129.498V130.598C137.87 130.852 137.701 131.191 137.532 131.275L115.047 144.31C114.878 144.395 114.708 144.31 114.708 144.056V143.971L137.109 131.022Z" fill="#267FE5"/>
<g opacity="0.4">
<path d="M220.879 158.698H207.692L192.984 150.234C191.124 149.134 187.827 149.303 185.629 150.573L171.513 158.783H158.326V167.586C158.241 168.347 158.664 169.024 159.594 169.532L186.137 184.937C187.996 186.037 191.293 185.868 193.491 184.598L219.019 169.871C220.118 169.194 220.794 168.347 220.794 167.586V158.698H220.879Z" fill="url(#paint23_linear_109_5686)"/>
<path d="M159.171 168.178V159.291H172.358L186.475 151.081C188.673 149.811 191.969 149.642 193.829 150.743L208.537 159.206H220.879V158.614H207.692L192.984 150.15C191.124 149.05 187.827 149.219 185.629 150.489L171.513 158.699H158.326V167.586C158.241 168.347 158.664 169.025 159.594 169.532L159.763 169.617C159.256 169.194 159.087 168.686 159.171 168.178Z" fill="#D4088C"/>
<path d="M186.137 176.05L159.594 160.645C157.734 159.545 157.903 157.683 160.101 156.413L185.629 141.686C187.827 140.416 191.124 140.247 192.984 141.348L219.526 156.752C221.386 157.852 221.217 159.714 219.019 160.984L193.491 175.711C191.378 176.981 187.996 177.15 186.137 176.05Z" fill="url(#paint24_linear_109_5686)"/>
<path d="M219.527 156.752L192.984 141.347C191.969 140.755 190.617 140.586 189.264 140.586C190.279 140.67 191.209 140.924 191.969 141.347L218.512 156.752C220.372 157.852 220.203 159.714 218.005 160.984L192.477 175.711C191.462 176.303 190.11 176.642 188.842 176.727C190.448 176.811 192.223 176.473 193.491 175.711L219.019 160.984C221.217 159.714 221.471 157.767 219.527 156.752Z" fill="#6EE8FC"/>
<path d="M189.434 172.41C188.504 172.41 187.574 172.241 186.898 171.818L167.117 160.391C166.441 159.968 166.019 159.46 166.019 158.783C166.019 158.021 166.526 157.344 167.456 156.752L186.475 145.749C188.166 144.733 190.702 144.648 192.223 145.495L212.003 156.921C212.68 157.344 213.102 157.852 213.102 158.529C213.102 159.291 212.595 159.968 211.665 160.561L192.646 171.564C191.716 172.072 190.533 172.41 189.434 172.41ZM189.772 145.495C188.757 145.495 187.658 145.749 186.813 146.257L167.794 157.26C167.033 157.683 166.526 158.275 166.526 158.868C166.526 159.291 166.864 159.714 167.371 160.053L187.151 171.479C188.504 172.241 190.871 172.156 192.392 171.225L211.412 160.222C212.172 159.799 212.68 159.206 212.68 158.614C212.68 158.191 212.341 157.767 211.834 157.429L192.054 146.003C191.378 145.664 190.617 145.495 189.772 145.495Z" fill="#480689"/>
<path d="M187.32 176.05L160.777 160.645C158.918 159.545 159.087 157.683 161.285 156.413L186.813 141.686C187.827 141.094 189.095 140.755 190.448 140.67C188.842 140.586 187.067 140.924 185.629 141.686L160.101 156.413C157.903 157.683 157.65 159.545 159.594 160.645L186.137 176.05C187.151 176.642 188.504 176.896 189.941 176.727C188.926 176.642 188.081 176.473 187.32 176.05Z" fill="#D4088C"/>
</g>
<g opacity="0.5">
<path d="M220.879 146.51H207.692L192.984 138.047C191.124 136.946 187.827 137.115 185.629 138.385L171.513 146.595H158.326V155.482C158.241 156.244 158.664 156.921 159.594 157.429L186.137 172.833C187.996 173.934 191.293 173.764 193.491 172.495L219.019 157.767C220.118 157.09 220.794 156.244 220.794 155.482V146.51H220.879Z" fill="url(#paint25_linear_109_5686)"/>
<path d="M159.171 155.99V147.103H172.358L186.475 138.893C188.673 137.623 191.969 137.454 193.829 138.554L208.537 147.018H220.879V146.426H207.692L192.984 137.962C191.124 136.861 187.827 137.031 185.629 138.3L171.513 146.51H158.326V155.397C158.241 156.159 158.664 156.836 159.594 157.344L159.763 157.429C159.256 157.006 159.087 156.498 159.171 155.99Z" fill="#D4088C"/>
<path d="M186.137 163.861L159.594 148.457C157.734 147.357 157.903 145.495 160.101 144.225L185.629 129.498C187.827 128.228 191.124 128.059 192.984 129.159L219.526 144.564C221.386 145.664 221.217 147.526 219.019 148.796L193.491 163.523C191.378 164.792 187.996 164.877 186.137 163.861Z" fill="url(#paint26_linear_109_5686)"/>
<path d="M219.527 144.479L192.984 129.075C191.969 128.482 190.617 128.313 189.264 128.313C190.279 128.398 191.209 128.652 191.969 129.075L218.512 144.479C220.372 145.579 220.203 147.441 218.005 148.711L192.477 163.438C191.462 164.031 190.11 164.369 188.842 164.454C190.448 164.539 192.223 164.2 193.491 163.438L219.019 148.711C221.217 147.526 221.471 145.579 219.527 144.479Z" fill="#6EE8FC"/>
<path d="M189.434 160.137C188.504 160.137 187.574 159.968 186.898 159.545L167.117 148.119C166.441 147.695 166.019 147.188 166.019 146.51C166.019 145.749 166.526 145.072 167.456 144.479L186.475 133.476C188.166 132.46 190.702 132.376 192.223 133.222L212.003 144.648C212.68 145.072 213.102 145.579 213.102 146.257C213.102 147.018 212.595 147.695 211.665 148.288L192.646 159.291C191.716 159.883 190.533 160.137 189.434 160.137ZM189.772 133.222C188.757 133.222 187.658 133.476 186.813 133.984L167.794 144.987C167.033 145.41 166.526 146.003 166.526 146.595C166.526 147.018 166.864 147.441 167.371 147.78L187.151 159.206C188.504 159.968 190.871 159.883 192.392 158.952L211.412 147.949C212.172 147.526 212.68 146.934 212.68 146.341C212.68 145.918 212.341 145.495 211.834 145.156L192.054 133.73C191.378 133.391 190.617 133.222 189.772 133.222Z" fill="#480689"/>
<path d="M187.32 163.861L160.777 148.457C158.918 147.357 159.087 145.495 161.285 144.225L186.813 129.498C187.827 128.905 189.095 128.567 190.448 128.482C188.842 128.398 187.067 128.736 185.629 129.498L160.101 144.225C157.903 145.495 157.65 147.357 159.594 148.457L186.137 163.861C187.151 164.454 188.504 164.708 189.941 164.538C188.926 164.454 188.081 164.2 187.32 163.861Z" fill="#D4088C"/>
</g>
<g opacity="0.7">
<path d="M220.879 134.322H207.692L192.984 125.859C191.124 124.758 187.827 124.927 185.629 126.197L171.513 134.407H158.326V143.294C158.241 144.056 158.664 144.733 159.594 145.241L186.137 160.645C187.996 161.746 191.293 161.576 193.491 160.307L219.019 145.579C220.118 144.902 220.794 144.056 220.794 143.294V134.322H220.879Z" fill="url(#paint27_linear_109_5686)"/>
<path d="M159.171 143.717V134.83H172.358L186.475 126.62C188.673 125.351 191.969 125.181 193.829 126.282L208.537 134.746H220.879V134.153H207.692L192.984 125.689C191.124 124.589 187.827 124.758 185.629 126.028L171.513 134.238H158.326V143.125C158.241 143.887 158.664 144.564 159.594 145.072L159.763 145.156C159.256 144.733 159.087 144.225 159.171 143.717Z" fill="#D4088C"/>
<path d="M186.137 151.589L159.594 136.269C157.734 135.169 157.903 133.307 160.101 132.037L185.629 117.31C187.827 116.04 191.124 115.871 192.984 116.971L219.526 132.376C221.386 133.476 221.217 135.338 219.019 136.608L193.491 151.335C191.378 152.604 187.996 152.689 186.137 151.589Z" fill="url(#paint28_linear_109_5686)"/>
<path d="M219.527 132.291L192.984 116.887C191.969 116.294 190.617 116.125 189.264 116.125C190.279 116.21 191.209 116.464 191.969 116.887L218.512 132.291C220.372 133.391 220.203 135.253 218.005 136.523L192.477 151.25C191.462 151.843 190.11 152.181 188.842 152.266C190.448 152.351 192.223 152.012 193.491 151.25L219.019 136.523C221.217 135.338 221.471 133.391 219.527 132.291Z" fill="#6EE8FC"/>
<path d="M189.434 147.949C188.504 147.949 187.574 147.78 186.898 147.357L167.117 135.931C166.441 135.507 166.019 135 166.019 134.322C166.019 133.561 166.526 132.884 167.456 132.291L186.475 121.288C188.166 120.272 190.702 120.188 192.223 121.034L212.003 132.46C212.68 132.884 213.102 133.391 213.102 134.069C213.102 134.83 212.595 135.507 211.665 136.1L192.646 147.103C191.716 147.695 190.533 147.949 189.434 147.949ZM189.772 121.034C188.757 121.034 187.658 121.288 186.813 121.796L167.794 132.799C167.033 133.222 166.526 133.815 166.526 134.407C166.526 134.83 166.864 135.253 167.371 135.592L187.151 147.018C188.504 147.78 190.871 147.695 192.392 146.764L211.412 135.761C212.172 135.338 212.68 134.746 212.68 134.153C212.68 133.73 212.341 133.307 211.834 132.968L192.054 121.542C191.378 121.203 190.617 121.034 189.772 121.034Z" fill="#480689"/>
<path d="M187.32 151.589L160.777 136.269C158.918 135.169 159.087 133.307 161.285 132.037L186.813 117.31C187.827 116.717 189.095 116.379 190.448 116.294C188.842 116.21 187.067 116.548 185.629 117.31L160.101 132.037C157.903 133.307 157.65 135.169 159.594 136.269L186.137 151.673C187.151 152.266 188.504 152.52 189.941 152.35C188.926 152.266 188.081 152.012 187.32 151.589Z" fill="#D4088C"/>
</g>
<path d="M220.879 122.05H207.692L192.984 113.586C191.124 112.485 187.827 112.655 185.629 113.924L171.513 122.134H158.326V131.021C158.241 131.783 158.664 132.46 159.594 132.968L186.137 148.373C187.996 149.473 191.293 149.304 193.491 148.034L219.019 133.307C220.118 132.63 220.794 131.783 220.794 131.021V122.05H220.879Z" fill="url(#paint29_linear_109_5686)"/>
<path d="M159.171 131.529V122.642H172.358L186.475 114.432C188.673 113.163 191.969 112.994 193.829 114.094L208.537 122.558H220.879V121.965H207.692L192.984 113.501C191.124 112.401 187.827 112.57 185.629 113.84L171.513 122.05H158.326V130.937C158.241 131.699 158.664 132.376 159.594 132.884L159.763 132.968C159.256 132.545 159.087 132.037 159.171 131.529Z" fill="#D4088C"/>
<path d="M186.137 139.401L159.594 123.997C157.734 122.896 157.903 121.034 160.101 119.765L185.629 105.037C187.827 103.768 191.124 103.599 192.984 104.699L219.526 120.103C221.386 121.203 221.217 123.066 219.019 124.335L193.491 139.062C191.378 140.417 187.996 140.501 186.137 139.401Z" fill="url(#paint30_linear_109_5686)"/>
<path d="M219.527 120.103L192.984 104.699C191.969 104.106 190.617 103.937 189.264 103.937C190.279 104.022 191.209 104.276 191.969 104.699L218.512 120.103C220.372 121.203 220.203 123.065 218.005 124.335L192.477 139.062C191.462 139.655 190.11 139.993 188.842 140.078C190.448 140.163 192.223 139.824 193.491 139.062L219.019 124.335C221.217 123.065 221.471 121.203 219.527 120.103Z" fill="#6EE8FC"/>
<path d="M189.434 135.761C188.504 135.761 187.574 135.592 186.898 135.169L167.117 123.743C166.441 123.319 166.019 122.812 166.019 122.134C166.019 121.373 166.526 120.696 167.456 120.103L186.475 109.1C188.166 108.084 190.702 108 192.223 108.846L212.003 120.272C212.68 120.696 213.102 121.203 213.102 121.881C213.102 122.642 212.595 123.319 211.665 123.912L192.646 134.915C191.716 135.507 190.533 135.761 189.434 135.761ZM189.772 108.846C188.757 108.846 187.658 109.1 186.813 109.608L167.794 120.611C167.033 121.034 166.526 121.627 166.526 122.219C166.526 122.642 166.864 123.066 167.371 123.404L187.151 134.83C188.504 135.592 190.871 135.507 192.392 134.576L211.412 123.573C212.172 123.15 212.68 122.558 212.68 121.965C212.68 121.542 212.341 121.119 211.834 120.78L192.054 109.354C191.378 109.015 190.617 108.846 189.772 108.846Z" fill="url(#paint31_linear_109_5686)"/>
<path d="M187.32 139.401L160.777 123.997C158.918 122.896 159.087 121.034 161.285 119.765L186.813 105.037C187.827 104.445 189.095 104.106 190.448 104.022C188.842 103.937 187.067 104.276 185.629 105.037L160.101 119.765C157.903 121.034 157.65 122.896 159.594 123.997L186.137 139.401C187.151 139.993 188.504 140.247 189.941 140.078C188.926 140.078 188.081 139.824 187.32 139.401Z" fill="#25BFEC"/>
<path d="M194.252 144.31L216.737 131.276C216.906 131.191 217.075 130.852 217.075 130.598V129.498C217.075 129.244 216.906 129.075 216.737 129.244L194.252 142.279C194.083 142.363 193.914 142.702 193.914 142.956V144.056C193.914 144.31 194.083 144.479 194.252 144.31Z" fill="#6DE0F6"/>
<path d="M216.23 131.022C216.399 130.937 216.568 130.598 216.568 130.344V129.329L216.652 129.244C216.821 129.16 216.991 129.244 216.991 129.498V130.598C216.991 130.852 216.821 131.191 216.652 131.275L194.167 144.31C193.998 144.395 193.829 144.31 193.829 144.056V143.971L216.23 131.022Z" fill="#267FE5"/>
<path d="M265.342 195.347L238.8 179.943C236.94 178.843 237.109 176.98 239.307 175.711L264.835 160.984C267.033 159.714 270.33 159.545 272.189 160.645L298.732 176.049C300.592 177.15 300.423 179.012 298.225 180.281L272.696 195.009C270.499 196.278 267.202 196.448 265.342 195.347Z" fill="#EFEFEF"/>
<g opacity="0.4">
<path d="M300 158.698H286.813L272.105 150.234C270.245 149.134 266.948 149.303 264.751 150.573L250.634 158.783H237.447V167.586C237.363 168.347 237.785 169.024 238.715 169.532L265.258 184.937C267.117 186.037 270.414 185.868 272.612 184.598L298.14 169.871C299.239 169.194 299.915 168.347 299.915 167.586V158.698H300Z" fill="url(#paint32_linear_109_5686)"/>
<path d="M238.292 168.178V159.291H251.479L265.596 151.081C267.794 149.811 271.09 149.642 272.95 150.743L287.658 159.206H300V158.614H286.813L272.105 150.15C270.245 149.05 266.948 149.219 264.751 150.489L250.634 158.699H237.447V167.586C237.363 168.347 237.785 169.025 238.715 169.532L238.884 169.617C238.461 169.194 238.208 168.686 238.292 168.178Z" fill="#D4088C"/>
<path d="M265.258 176.05L238.715 160.645C236.855 159.545 237.024 157.683 239.222 156.413L264.751 141.686C266.948 140.416 270.245 140.247 272.105 141.348L298.647 156.752C300.507 157.852 300.338 159.714 298.14 160.984L272.612 175.711C270.499 176.981 267.202 177.15 265.258 176.05Z" fill="url(#paint33_linear_109_5686)"/>
<path d="M298.732 156.752L272.105 141.347C271.091 140.755 269.738 140.586 268.386 140.586C269.4 140.67 270.33 140.924 271.091 141.347L297.633 156.752C299.493 157.852 299.324 159.714 297.126 160.984L271.598 175.711C270.583 176.303 269.231 176.642 267.963 176.727C269.569 176.811 271.344 176.473 272.612 175.711L298.14 160.984C300.338 159.714 300.592 157.767 298.732 156.752Z" fill="#6EE8FC"/>
<path d="M268.555 172.41C267.625 172.41 266.695 172.241 266.019 171.818L246.239 160.391C245.562 159.968 245.14 159.46 245.14 158.783C245.14 158.021 245.647 157.344 246.577 156.752L265.596 145.749C267.287 144.733 269.823 144.648 271.344 145.495L291.124 156.921C291.801 157.344 292.223 157.852 292.223 158.529C292.223 159.291 291.716 159.968 290.786 160.561L271.767 171.564C270.837 172.072 269.654 172.41 268.555 172.41ZM268.893 145.495C267.878 145.495 266.78 145.749 265.934 146.257L246.915 157.26C246.154 157.683 245.647 158.275 245.647 158.868C245.647 159.291 245.985 159.714 246.492 160.053L266.272 171.479C267.625 172.241 269.992 172.156 271.513 171.225L290.533 160.222C291.294 159.799 291.801 159.206 291.801 158.614C291.801 158.191 291.463 157.767 290.955 157.429L271.175 146.003C270.583 145.664 269.738 145.495 268.893 145.495Z" fill="#480689"/>
<path d="M266.526 176.05L239.983 160.645C238.123 159.545 238.292 157.683 240.49 156.413L266.019 141.686C267.033 141.094 268.301 140.755 269.653 140.67C268.047 140.586 266.272 140.924 264.835 141.686L239.222 156.413C237.024 157.683 236.771 159.545 238.715 160.645L265.258 176.05C266.272 176.642 267.625 176.896 269.062 176.727C268.132 176.642 267.202 176.473 266.526 176.05Z" fill="#D4088C"/>
</g>
<g opacity="0.5">
<path d="M300 146.51H286.813L272.105 138.047C270.245 136.946 266.948 137.115 264.751 138.385L250.634 146.595H237.447V155.482C237.363 156.244 237.785 156.921 238.715 157.429L265.258 172.833C267.117 173.934 270.414 173.764 272.612 172.495L298.14 157.767C299.239 157.09 299.915 156.244 299.915 155.482V146.51H300Z" fill="url(#paint34_linear_109_5686)"/>
<path d="M238.292 155.99V147.103H251.479L265.596 138.893C267.794 137.623 271.09 137.454 272.95 138.554L287.658 147.018H300V146.426H286.813L272.105 137.962C270.245 136.861 266.948 137.031 264.751 138.3L250.634 146.51H237.447V155.397C237.363 156.159 237.785 156.836 238.715 157.344L238.884 157.429C238.461 157.006 238.208 156.498 238.292 155.99Z" fill="#D4088C"/>
<path d="M265.258 163.861L238.715 148.457C236.855 147.357 237.024 145.495 239.222 144.225L264.751 129.498C266.948 128.228 270.245 128.059 272.105 129.159L298.647 144.564C300.507 145.664 300.338 147.526 298.14 148.796L272.612 163.523C270.499 164.792 267.202 164.877 265.258 163.861Z" fill="url(#paint35_linear_109_5686)"/>
<path d="M298.732 144.479L272.189 129.075C271.175 128.482 269.823 128.313 268.47 128.313C269.484 128.398 270.414 128.652 271.175 129.075L297.718 144.479C299.577 145.579 299.408 147.441 297.211 148.711L271.682 163.438C270.668 164.031 269.315 164.369 268.047 164.454C269.653 164.539 271.429 164.2 272.697 163.438L298.225 148.711C300.338 147.526 300.592 145.579 298.732 144.479Z" fill="#6EE8FC"/>
<path d="M268.555 160.137C267.625 160.137 266.695 159.968 266.019 159.545L246.239 148.119C245.562 147.695 245.14 147.188 245.14 146.51C245.14 145.749 245.647 145.072 246.577 144.479L265.596 133.476C267.287 132.46 269.823 132.376 271.344 133.222L291.124 144.648C291.801 145.072 292.223 145.579 292.223 146.257C292.223 147.018 291.716 147.695 290.786 148.288L271.767 159.291C270.837 159.883 269.654 160.137 268.555 160.137ZM268.893 133.222C267.878 133.222 266.78 133.476 265.934 133.984L246.915 144.987C246.154 145.41 245.647 146.003 245.647 146.595C245.647 147.018 245.985 147.441 246.492 147.78L266.272 159.206C267.625 159.968 269.992 159.883 271.513 158.952L290.533 147.949C291.294 147.526 291.801 146.934 291.801 146.341C291.801 145.918 291.463 145.495 290.955 145.156L271.175 133.73C270.583 133.391 269.738 133.222 268.893 133.222Z" fill="#480689"/>
<path d="M266.526 163.861L239.983 148.457C238.123 147.357 238.292 145.495 240.49 144.225L266.019 129.498C267.033 128.905 268.301 128.567 269.653 128.482C268.047 128.398 266.272 128.736 264.835 129.498L239.222 144.225C237.024 145.495 236.771 147.357 238.715 148.457L265.258 163.861C266.272 164.454 267.625 164.708 269.062 164.538C268.132 164.454 267.202 164.2 266.526 163.861Z" fill="#D4088C"/>
</g>
<g opacity="0.7">
<path d="M300 134.322H286.813L272.105 125.859C270.245 124.758 266.948 124.927 264.751 126.197L250.634 134.407H237.447V143.294C237.363 144.056 237.785 144.733 238.715 145.241L265.258 160.645C267.117 161.746 270.414 161.576 272.612 160.307L298.14 145.579C299.239 144.902 299.915 144.056 299.915 143.294V134.322H300Z" fill="url(#paint36_linear_109_5686)"/>
<path d="M238.292 143.717V134.83H251.479L265.596 126.62C267.794 125.351 271.09 125.181 272.95 126.282L287.658 134.746H300V134.153H286.813L272.105 125.689C270.245 124.589 266.948 124.758 264.751 126.028L250.634 134.238H237.447V143.125C237.363 143.887 237.785 144.564 238.715 145.072L238.884 145.156C238.461 144.733 238.208 144.225 238.292 143.717Z" fill="#D4088C"/>
<path d="M265.258 151.589L238.715 136.269C236.855 135.169 237.024 133.307 239.222 132.037L264.751 117.31C266.948 116.04 270.245 115.871 272.105 116.971L298.647 132.376C300.507 133.476 300.338 135.338 298.14 136.608L272.612 151.335C270.499 152.604 267.202 152.689 265.258 151.589Z" fill="url(#paint37_linear_109_5686)"/>
<path d="M298.732 132.291L272.189 116.887C271.175 116.294 269.823 116.125 268.47 116.125C269.484 116.21 270.414 116.464 271.175 116.887L297.718 132.291C299.577 133.391 299.408 135.253 297.211 136.523L271.682 151.25C270.668 151.843 269.315 152.181 268.047 152.266C269.653 152.351 271.429 152.012 272.697 151.25L298.225 136.523C300.338 135.338 300.592 133.391 298.732 132.291Z" fill="#6EE8FC"/>
<path d="M268.555 147.949C267.625 147.949 266.695 147.78 266.019 147.357L246.239 135.931C245.562 135.507 245.14 135 245.14 134.322C245.14 133.561 245.647 132.884 246.577 132.291L265.596 121.288C267.287 120.272 269.823 120.188 271.344 121.034L291.124 132.46C291.801 132.884 292.223 133.391 292.223 134.069C292.223 134.83 291.716 135.507 290.786 136.1L271.767 147.103C270.837 147.695 269.654 147.949 268.555 147.949ZM268.893 121.034C267.878 121.034 266.78 121.288 265.934 121.796L246.915 132.799C246.154 133.222 245.647 133.815 245.647 134.407C245.647 134.83 245.985 135.253 246.492 135.592L266.272 147.018C267.625 147.78 269.992 147.695 271.513 146.764L290.533 135.761C291.294 135.338 291.801 134.746 291.801 134.153C291.801 133.73 291.463 133.307 290.955 132.968L271.175 121.542C270.583 121.203 269.738 121.034 268.893 121.034Z" fill="#480689"/>
<path d="M266.526 151.589L239.899 136.269C238.039 135.169 238.208 133.307 240.406 132.037L265.934 117.31C266.948 116.717 268.216 116.379 269.569 116.294C267.963 116.21 266.188 116.548 264.751 117.31L239.222 132.037C237.024 133.307 236.771 135.169 238.715 136.269L265.258 151.673C266.272 152.266 267.625 152.52 269.062 152.35C268.132 152.266 267.202 152.012 266.526 151.589Z" fill="#D4088C"/>
</g>
<path d="M300 122.05H286.813L272.105 113.586C270.245 112.485 266.948 112.655 264.751 113.924L250.634 122.134H237.447V131.021C237.363 131.783 237.785 132.46 238.715 132.968L265.258 148.373C267.117 149.473 270.414 149.304 272.612 148.034L298.14 133.307C299.239 132.63 299.915 131.783 299.915 131.021V122.05H300Z" fill="url(#paint38_linear_109_5686)"/>
<path d="M238.292 131.529V122.642H251.479L265.596 114.432C267.794 113.163 271.09 112.994 272.95 114.094L287.658 122.558H300V121.965H286.813L272.105 113.501C270.245 112.401 266.948 112.57 264.751 113.84L250.634 122.05H237.447V130.937C237.363 131.699 237.785 132.376 238.715 132.884L238.884 132.968C238.461 132.545 238.208 132.037 238.292 131.529Z" fill="#D4088C"/>
<path d="M265.258 139.401L238.715 123.997C236.855 122.896 237.024 121.034 239.222 119.765L264.751 105.037C266.948 103.768 270.245 103.599 272.105 104.699L298.647 120.103C300.507 121.203 300.338 123.066 298.14 124.335L272.612 139.062C270.499 140.417 267.202 140.501 265.258 139.401Z" fill="url(#paint39_linear_109_5686)"/>
<path d="M298.732 120.103L272.189 104.699C271.175 104.106 269.823 103.937 268.47 103.937C269.484 104.022 270.414 104.276 271.175 104.699L297.718 120.103C299.577 121.203 299.408 123.065 297.211 124.335L271.682 139.062C270.668 139.655 269.315 139.993 268.047 140.078C269.653 140.163 271.429 139.824 272.697 139.062L298.225 124.335C300.338 123.065 300.592 121.203 298.732 120.103Z" fill="#6EE8FC"/>
<path d="M268.555 135.761C267.625 135.761 266.695 135.592 266.019 135.169L246.239 123.743C245.562 123.319 245.14 122.812 245.14 122.134C245.14 121.373 245.647 120.696 246.577 120.103L265.596 109.1C267.287 108.084 269.823 108 271.344 108.846L291.124 120.272C291.801 120.696 292.223 121.203 292.223 121.881C292.223 122.642 291.716 123.319 290.786 123.912L271.767 134.915C270.837 135.507 269.654 135.761 268.555 135.761ZM268.893 108.846C267.878 108.846 266.78 109.1 265.934 109.608L246.915 120.611C246.154 121.034 245.647 121.627 245.647 122.219C245.647 122.642 245.985 123.066 246.492 123.404L266.272 134.83C267.625 135.592 269.992 135.507 271.513 134.576L290.533 123.573C291.294 123.15 291.801 122.558 291.801 121.965C291.801 121.542 291.463 121.119 290.955 120.78L271.175 109.354C270.583 109.015 269.738 108.846 268.893 108.846Z" fill="url(#paint40_linear_109_5686)"/>
<path d="M266.526 139.401L239.983 123.997C238.123 122.896 238.292 121.034 240.49 119.765L266.019 105.037C267.033 104.445 268.301 104.106 269.653 104.022C268.047 103.937 266.272 104.276 264.835 105.037L239.222 119.765C237.024 121.034 236.771 122.896 238.715 123.997L265.258 139.401C266.272 139.993 267.625 140.247 269.062 140.078C268.132 140.078 267.202 139.824 266.526 139.401Z" fill="#25BFEC"/>
<path d="M273.457 144.31L295.942 131.276C296.112 131.191 296.281 130.852 296.281 130.598V129.498C296.281 129.244 296.112 129.075 295.942 129.244L273.457 142.279C273.288 142.363 273.119 142.702 273.119 142.956V144.056C273.035 144.31 273.204 144.479 273.457 144.31Z" fill="#6DE0F6"/>
<path d="M295.435 131.022C295.604 130.937 295.773 130.598 295.773 130.344V129.329L295.858 129.244C296.027 129.16 296.196 129.244 296.196 129.498V130.598C296.196 130.852 296.027 131.191 295.858 131.275L273.373 144.31C273.204 144.395 273.035 144.31 273.035 144.056V143.971L295.435 131.022Z" fill="#267FE5"/>
</g>
<defs>
<linearGradient id="paint0_linear_109_5686" x1="158.235" y1="82.6224" x2="269.501" y2="82.6224" gradientUnits="userSpaceOnUse">
<stop stop-color="#6DE0F6"/>
<stop offset="0.1595" stop-color="#68D8F5"/>
<stop offset="0.4138" stop-color="#5AC0F1"/>
<stop offset="0.7294" stop-color="#439BEA"/>
<stop offset="1" stop-color="#2C75E4"/>
</linearGradient>
<linearGradient id="paint1_linear_109_5686" x1="153.948" y1="85.5143" x2="190.35" y2="85.5143" gradientUnits="userSpaceOnUse">
<stop stop-color="#6DE0F6"/>
<stop offset="0.1595" stop-color="#68D8F5"/>
<stop offset="0.4138" stop-color="#5AC0F1"/>
<stop offset="0.7294" stop-color="#439BEA"/>
<stop offset="1" stop-color="#2C75E4"/>
</linearGradient>
<linearGradient id="paint2_linear_109_5686" x1="149.423" y1="82.8943" x2="30.3323" y2="82.8943" gradientUnits="userSpaceOnUse">
<stop stop-color="#6DE0F6"/>
<stop offset="0.1595" stop-color="#68D8F5"/>
<stop offset="0.4138" stop-color="#5AC0F1"/>
<stop offset="0.7294" stop-color="#439BEA"/>
<stop offset="1" stop-color="#2C75E4"/>
</linearGradient>
<linearGradient id="paint3_linear_109_5686" x1="154.065" y1="85.8267" x2="109.744" y2="85.8267" gradientUnits="userSpaceOnUse">
<stop stop-color="#6DE0F6"/>
<stop offset="0.1595" stop-color="#68D8F5"/>
<stop offset="0.4138" stop-color="#5AC0F1"/>
<stop offset="0.7294" stop-color="#439BEA"/>
<stop offset="1" stop-color="#2C75E4"/>
</linearGradient>
<linearGradient id="paint4_linear_109_5686" x1="68.2913" y1="12.0017" x2="176.945" y2="34.687" gradientUnits="userSpaceOnUse">
<stop stop-color="#267FE5"/>
<stop offset="0.1699" stop-color="#2C87E7"/>
<stop offset="0.441" stop-color="#3D9FEB"/>
<stop offset="0.7773" stop-color="#59C4F2"/>
<stop offset="1" stop-color="#6EE1F8"/>
</linearGradient>
<linearGradient id="paint5_linear_109_5686" x1="-5.91286" y1="167.547" x2="70.2821" y2="167.547" gradientUnits="userSpaceOnUse">
<stop stop-color="#A31FA9"/>
<stop offset="0.0667915" stop-color="#8B17A0"/>
<stop offset="0.1494" stop-color="#740F98"/>
<stop offset="0.2393" stop-color="#640A92"/>
<stop offset="0.3408" stop-color="#5B078F"/>
<stop offset="0.4785" stop-color="#58068E"/>
<stop offset="0.6264" stop-color="#4D22A3"/>
<stop offset="0.9436" stop-color="#3168DA"/>
<stop offset="1" stop-color="#2C75E4"/>
</linearGradient>
<linearGradient id="paint6_linear_109_5686" x1="-0.510099" y1="158.689" x2="58.1578" y2="173.187" gradientUnits="userSpaceOnUse">
<stop stop-color="#8D139B"/>
<stop offset="0.1651" stop-color="#851BA1"/>
<stop offset="0.4284" stop-color="#6E33B2"/>
<stop offset="0.7551" stop-color="#4958CD"/>
<stop offset="1" stop-color="#2979E4"/>
</linearGradient>
<linearGradient id="paint7_linear_109_5686" x1="-5.91286" y1="155.344" x2="70.2821" y2="155.344" gradientUnits="userSpaceOnUse">
<stop stop-color="#A31FA9"/>
<stop offset="0.0667915" stop-color="#8B17A0"/>
<stop offset="0.1494" stop-color="#740F98"/>
<stop offset="0.2393" stop-color="#640A92"/>
<stop offset="0.3408" stop-color="#5B078F"/>
<stop offset="0.4785" stop-color="#58068E"/>
<stop offset="0.6264" stop-color="#4D22A3"/>
<stop offset="0.9436" stop-color="#3168DA"/>
<stop offset="1" stop-color="#2C75E4"/>
</linearGradient>
<linearGradient id="paint8_linear_109_5686" x1="-0.510083" y1="146.486" x2="58.1578" y2="160.984" gradientUnits="userSpaceOnUse">
<stop stop-color="#8D139B"/>
<stop offset="0.1651" stop-color="#851BA1"/>
<stop offset="0.4284" stop-color="#6E33B2"/>
<stop offset="0.7551" stop-color="#4958CD"/>
<stop offset="1" stop-color="#2979E4"/>
</linearGradient>
<linearGradient id="paint9_linear_109_5686" x1="-5.91286" y1="143.141" x2="70.2821" y2="143.141" gradientUnits="userSpaceOnUse">
<stop stop-color="#A31FA9"/>
<stop offset="0.0667915" stop-color="#8B17A0"/>
<stop offset="0.1494" stop-color="#740F98"/>
<stop offset="0.2393" stop-color="#640A92"/>
<stop offset="0.3408" stop-color="#5B078F"/>
<stop offset="0.4785" stop-color="#58068E"/>
<stop offset="0.6264" stop-color="#4D22A3"/>
<stop offset="0.9436" stop-color="#3168DA"/>
<stop offset="1" stop-color="#2C75E4"/>
</linearGradient>
<linearGradient id="paint10_linear_109_5686" x1="-0.510141" y1="134.283" x2="58.1579" y2="148.781" gradientUnits="userSpaceOnUse">
<stop stop-color="#8D139B"/>
<stop offset="0.1651" stop-color="#851BA1"/>
<stop offset="0.4284" stop-color="#6E33B2"/>
<stop offset="0.7551" stop-color="#4958CD"/>
<stop offset="1" stop-color="#2979E4"/>
</linearGradient>
<linearGradient id="paint11_linear_109_5686" x1="-5.91286" y1="130.938" x2="70.2821" y2="130.938" gradientUnits="userSpaceOnUse">
<stop stop-color="#A31FA9"/>
<stop offset="0.0667915" stop-color="#8B17A0"/>
<stop offset="0.1494" stop-color="#740F98"/>
<stop offset="0.2393" stop-color="#640A92"/>
<stop offset="0.3408" stop-color="#5B078F"/>
<stop offset="0.4785" stop-color="#58068E"/>
<stop offset="0.6264" stop-color="#4D22A3"/>
<stop offset="0.9436" stop-color="#3168DA"/>
<stop offset="1" stop-color="#2C75E4"/>
</linearGradient>
<linearGradient id="paint12_linear_109_5686" x1="-0.51004" y1="122.08" x2="58.1579" y2="136.578" gradientUnits="userSpaceOnUse">
<stop stop-color="#267FE5"/>
<stop offset="0.1699" stop-color="#2C87E7"/>
<stop offset="0.441" stop-color="#3D9FEB"/>
<stop offset="0.7773" stop-color="#59C4F2"/>
<stop offset="1" stop-color="#6EE1F8"/>
</linearGradient>
<linearGradient id="paint13_linear_109_5686" x1="7.76263" y1="122.079" x2="54.7796" y2="122.079" gradientUnits="userSpaceOnUse">
<stop stop-color="#6DE0F6"/>
<stop offset="0.1595" stop-color="#68D8F5"/>
<stop offset="0.4138" stop-color="#5AC0F1"/>
<stop offset="0.7294" stop-color="#439BEA"/>
<stop offset="1" stop-color="#2C75E4"/>
</linearGradient>
<linearGradient id="paint14_linear_109_5686" x1="73.2358" y1="167.547" x2="149.431" y2="167.547" gradientUnits="userSpaceOnUse">
<stop stop-color="#A31FA9"/>
<stop offset="0.0667915" stop-color="#8B17A0"/>
<stop offset="0.1494" stop-color="#740F98"/>
<stop offset="0.2393" stop-color="#640A92"/>
<stop offset="0.3408" stop-color="#5B078F"/>
<stop offset="0.4785" stop-color="#58068E"/>
<stop offset="0.6264" stop-color="#4D22A3"/>
<stop offset="0.9436" stop-color="#3168DA"/>
<stop offset="1" stop-color="#2C75E4"/>
</linearGradient>
<linearGradient id="paint15_linear_109_5686" x1="78.6385" y1="158.689" x2="137.306" y2="173.187" gradientUnits="userSpaceOnUse">
<stop stop-color="#8D139B"/>
<stop offset="0.1651" stop-color="#851BA1"/>
<stop offset="0.4284" stop-color="#6E33B2"/>
<stop offset="0.7551" stop-color="#4958CD"/>
<stop offset="1" stop-color="#2979E4"/>
</linearGradient>
<linearGradient id="paint16_linear_109_5686" x1="73.2358" y1="155.344" x2="149.431" y2="155.344" gradientUnits="userSpaceOnUse">
<stop stop-color="#A31FA9"/>
<stop offset="0.0667915" stop-color="#8B17A0"/>
<stop offset="0.1494" stop-color="#740F98"/>
<stop offset="0.2393" stop-color="#640A92"/>
<stop offset="0.3408" stop-color="#5B078F"/>
<stop offset="0.4785" stop-color="#58068E"/>
<stop offset="0.6264" stop-color="#4D22A3"/>
<stop offset="0.9436" stop-color="#3168DA"/>
<stop offset="1" stop-color="#2C75E4"/>
</linearGradient>
<linearGradient id="paint17_linear_109_5686" x1="78.6385" y1="146.486" x2="137.306" y2="160.984" gradientUnits="userSpaceOnUse">
<stop stop-color="#8D139B"/>
<stop offset="0.1651" stop-color="#851BA1"/>
<stop offset="0.4284" stop-color="#6E33B2"/>
<stop offset="0.7551" stop-color="#4958CD"/>
<stop offset="1" stop-color="#2979E4"/>
</linearGradient>
<linearGradient id="paint18_linear_109_5686" x1="73.2358" y1="143.141" x2="149.431" y2="143.141" gradientUnits="userSpaceOnUse">
<stop stop-color="#A31FA9"/>
<stop offset="0.0667915" stop-color="#8B17A0"/>
<stop offset="0.1494" stop-color="#740F98"/>
<stop offset="0.2393" stop-color="#640A92"/>
<stop offset="0.3408" stop-color="#5B078F"/>
<stop offset="0.4785" stop-color="#58068E"/>
<stop offset="0.6264" stop-color="#4D22A3"/>
<stop offset="0.9436" stop-color="#3168DA"/>
<stop offset="1" stop-color="#2C75E4"/>
</linearGradient>
<linearGradient id="paint19_linear_109_5686" x1="78.6386" y1="134.283" x2="137.307" y2="148.781" gradientUnits="userSpaceOnUse">
<stop stop-color="#8D139B"/>
<stop offset="0.1651" stop-color="#851BA1"/>
<stop offset="0.4284" stop-color="#6E33B2"/>
<stop offset="0.7551" stop-color="#4958CD"/>
<stop offset="1" stop-color="#2979E4"/>
</linearGradient>
<linearGradient id="paint20_linear_109_5686" x1="73.2358" y1="130.938" x2="149.431" y2="130.938" gradientUnits="userSpaceOnUse">
<stop stop-color="#A31FA9"/>
<stop offset="0.0667915" stop-color="#8B17A0"/>
<stop offset="0.1494" stop-color="#740F98"/>
<stop offset="0.2393" stop-color="#640A92"/>
<stop offset="0.3408" stop-color="#5B078F"/>
<stop offset="0.4785" stop-color="#58068E"/>
<stop offset="0.6264" stop-color="#4D22A3"/>
<stop offset="0.9436" stop-color="#3168DA"/>
<stop offset="1" stop-color="#2C75E4"/>
</linearGradient>
<linearGradient id="paint21_linear_109_5686" x1="78.6386" y1="122.08" x2="137.306" y2="136.578" gradientUnits="userSpaceOnUse">
<stop stop-color="#267FE5"/>
<stop offset="0.1699" stop-color="#2C87E7"/>
<stop offset="0.441" stop-color="#3D9FEB"/>
<stop offset="0.7773" stop-color="#59C4F2"/>
<stop offset="1" stop-color="#6EE1F8"/>
</linearGradient>
<linearGradient id="paint22_linear_109_5686" x1="86.911" y1="122.079" x2="133.928" y2="122.079" gradientUnits="userSpaceOnUse">
<stop stop-color="#6DE0F6"/>
<stop offset="0.1595" stop-color="#68D8F5"/>
<stop offset="0.4138" stop-color="#5AC0F1"/>
<stop offset="0.7294" stop-color="#439BEA"/>
<stop offset="1" stop-color="#2C75E4"/>
</linearGradient>
<linearGradient id="paint23_linear_109_5686" x1="152.384" y1="167.547" x2="228.579" y2="167.547" gradientUnits="userSpaceOnUse">
<stop stop-color="#A31FA9"/>
<stop offset="0.0667915" stop-color="#8B17A0"/>
<stop offset="0.1494" stop-color="#740F98"/>
<stop offset="0.2393" stop-color="#640A92"/>
<stop offset="0.3408" stop-color="#5B078F"/>
<stop offset="0.4785" stop-color="#58068E"/>
<stop offset="0.6264" stop-color="#4D22A3"/>
<stop offset="0.9436" stop-color="#3168DA"/>
<stop offset="1" stop-color="#2C75E4"/>
</linearGradient>
<linearGradient id="paint24_linear_109_5686" x1="157.787" y1="158.689" x2="216.455" y2="173.187" gradientUnits="userSpaceOnUse">
<stop stop-color="#8D139B"/>
<stop offset="0.1651" stop-color="#851BA1"/>
<stop offset="0.4284" stop-color="#6E33B2"/>
<stop offset="0.7551" stop-color="#4958CD"/>
<stop offset="1" stop-color="#2979E4"/>
</linearGradient>
<linearGradient id="paint25_linear_109_5686" x1="152.384" y1="155.344" x2="228.579" y2="155.344" gradientUnits="userSpaceOnUse">
<stop stop-color="#A31FA9"/>
<stop offset="0.0667915" stop-color="#8B17A0"/>
<stop offset="0.1494" stop-color="#740F98"/>
<stop offset="0.2393" stop-color="#640A92"/>
<stop offset="0.3408" stop-color="#5B078F"/>
<stop offset="0.4785" stop-color="#58068E"/>
<stop offset="0.6264" stop-color="#4D22A3"/>
<stop offset="0.9436" stop-color="#3168DA"/>
<stop offset="1" stop-color="#2C75E4"/>
</linearGradient>
<linearGradient id="paint26_linear_109_5686" x1="157.787" y1="146.486" x2="216.455" y2="160.984" gradientUnits="userSpaceOnUse">
<stop stop-color="#8D139B"/>
<stop offset="0.1651" stop-color="#851BA1"/>
<stop offset="0.4284" stop-color="#6E33B2"/>
<stop offset="0.7551" stop-color="#4958CD"/>
<stop offset="1" stop-color="#2979E4"/>
</linearGradient>
<linearGradient id="paint27_linear_109_5686" x1="152.384" y1="143.141" x2="228.579" y2="143.141" gradientUnits="userSpaceOnUse">
<stop stop-color="#A31FA9"/>
<stop offset="0.0667915" stop-color="#8B17A0"/>
<stop offset="0.1494" stop-color="#740F98"/>
<stop offset="0.2393" stop-color="#640A92"/>
<stop offset="0.3408" stop-color="#5B078F"/>
<stop offset="0.4785" stop-color="#58068E"/>
<stop offset="0.6264" stop-color="#4D22A3"/>
<stop offset="0.9436" stop-color="#3168DA"/>
<stop offset="1" stop-color="#2C75E4"/>
</linearGradient>
<linearGradient id="paint28_linear_109_5686" x1="157.787" y1="134.283" x2="216.455" y2="148.781" gradientUnits="userSpaceOnUse">
<stop stop-color="#8D139B"/>
<stop offset="0.1651" stop-color="#851BA1"/>
<stop offset="0.4284" stop-color="#6E33B2"/>
<stop offset="0.7551" stop-color="#4958CD"/>
<stop offset="1" stop-color="#2979E4"/>
</linearGradient>
<linearGradient id="paint29_linear_109_5686" x1="152.384" y1="130.938" x2="228.579" y2="130.938" gradientUnits="userSpaceOnUse">
<stop stop-color="#A31FA9"/>
<stop offset="0.0667915" stop-color="#8B17A0"/>
<stop offset="0.1494" stop-color="#740F98"/>
<stop offset="0.2393" stop-color="#640A92"/>
<stop offset="0.3408" stop-color="#5B078F"/>
<stop offset="0.4785" stop-color="#58068E"/>
<stop offset="0.6264" stop-color="#4D22A3"/>
<stop offset="0.9436" stop-color="#3168DA"/>
<stop offset="1" stop-color="#2C75E4"/>
</linearGradient>
<linearGradient id="paint30_linear_109_5686" x1="157.787" y1="122.08" x2="216.455" y2="136.578" gradientUnits="userSpaceOnUse">
<stop stop-color="#267FE5"/>
<stop offset="0.1699" stop-color="#2C87E7"/>
<stop offset="0.441" stop-color="#3D9FEB"/>
<stop offset="0.7773" stop-color="#59C4F2"/>
<stop offset="1" stop-color="#6EE1F8"/>
</linearGradient>
<linearGradient id="paint31_linear_109_5686" x1="166.059" y1="122.079" x2="213.076" y2="122.079" gradientUnits="userSpaceOnUse">
<stop stop-color="#6DE0F6"/>
<stop offset="0.1595" stop-color="#68D8F5"/>
<stop offset="0.4138" stop-color="#5AC0F1"/>
<stop offset="0.7294" stop-color="#439BEA"/>
<stop offset="1" stop-color="#2C75E4"/>
</linearGradient>
<linearGradient id="paint32_linear_109_5686" x1="231.533" y1="167.547" x2="307.727" y2="167.547" gradientUnits="userSpaceOnUse">
<stop stop-color="#A31FA9"/>
<stop offset="0.0667915" stop-color="#8B17A0"/>
<stop offset="0.1494" stop-color="#740F98"/>
<stop offset="0.2393" stop-color="#640A92"/>
<stop offset="0.3408" stop-color="#5B078F"/>
<stop offset="0.4785" stop-color="#58068E"/>
<stop offset="0.6264" stop-color="#4D22A3"/>
<stop offset="0.9436" stop-color="#3168DA"/>
<stop offset="1" stop-color="#2C75E4"/>
</linearGradient>
<linearGradient id="paint33_linear_109_5686" x1="236.935" y1="158.689" x2="295.603" y2="173.187" gradientUnits="userSpaceOnUse">
<stop stop-color="#8D139B"/>
<stop offset="0.1651" stop-color="#851BA1"/>
<stop offset="0.4284" stop-color="#6E33B2"/>
<stop offset="0.7551" stop-color="#4958CD"/>
<stop offset="1" stop-color="#2979E4"/>
</linearGradient>
<linearGradient id="paint34_linear_109_5686" x1="231.533" y1="155.344" x2="307.727" y2="155.344" gradientUnits="userSpaceOnUse">
<stop stop-color="#A31FA9"/>
<stop offset="0.0667915" stop-color="#8B17A0"/>
<stop offset="0.1494" stop-color="#740F98"/>
<stop offset="0.2393" stop-color="#640A92"/>
<stop offset="0.3408" stop-color="#5B078F"/>
<stop offset="0.4785" stop-color="#58068E"/>
<stop offset="0.6264" stop-color="#4D22A3"/>
<stop offset="0.9436" stop-color="#3168DA"/>
<stop offset="1" stop-color="#2C75E4"/>
</linearGradient>
<linearGradient id="paint35_linear_109_5686" x1="236.935" y1="146.486" x2="295.603" y2="160.984" gradientUnits="userSpaceOnUse">
<stop stop-color="#8D139B"/>
<stop offset="0.1651" stop-color="#851BA1"/>
<stop offset="0.4284" stop-color="#6E33B2"/>
<stop offset="0.7551" stop-color="#4958CD"/>
<stop offset="1" stop-color="#2979E4"/>
</linearGradient>
<linearGradient id="paint36_linear_109_5686" x1="231.533" y1="143.141" x2="307.727" y2="143.141" gradientUnits="userSpaceOnUse">
<stop stop-color="#A31FA9"/>
<stop offset="0.0667915" stop-color="#8B17A0"/>
<stop offset="0.1494" stop-color="#740F98"/>
<stop offset="0.2393" stop-color="#640A92"/>
<stop offset="0.3408" stop-color="#5B078F"/>
<stop offset="0.4785" stop-color="#58068E"/>
<stop offset="0.6264" stop-color="#4D22A3"/>
<stop offset="0.9436" stop-color="#3168DA"/>
<stop offset="1" stop-color="#2C75E4"/>
</linearGradient>
<linearGradient id="paint37_linear_109_5686" x1="236.935" y1="134.283" x2="295.603" y2="148.781" gradientUnits="userSpaceOnUse">
<stop stop-color="#8D139B"/>
<stop offset="0.1651" stop-color="#851BA1"/>
<stop offset="0.4284" stop-color="#6E33B2"/>
<stop offset="0.7551" stop-color="#4958CD"/>
<stop offset="1" stop-color="#2979E4"/>
</linearGradient>
<linearGradient id="paint38_linear_109_5686" x1="231.533" y1="130.938" x2="307.727" y2="130.938" gradientUnits="userSpaceOnUse">
<stop stop-color="#A31FA9"/>
<stop offset="0.0667915" stop-color="#8B17A0"/>
<stop offset="0.1494" stop-color="#740F98"/>
<stop offset="0.2393" stop-color="#640A92"/>
<stop offset="0.3408" stop-color="#5B078F"/>
<stop offset="0.4785" stop-color="#58068E"/>
<stop offset="0.6264" stop-color="#4D22A3"/>
<stop offset="0.9436" stop-color="#3168DA"/>
<stop offset="1" stop-color="#2C75E4"/>
</linearGradient>
<linearGradient id="paint39_linear_109_5686" x1="236.935" y1="122.08" x2="295.603" y2="136.578" gradientUnits="userSpaceOnUse">
<stop stop-color="#267FE5"/>
<stop offset="0.1699" stop-color="#2C87E7"/>
<stop offset="0.441" stop-color="#3D9FEB"/>
<stop offset="0.7773" stop-color="#59C4F2"/>
<stop offset="1" stop-color="#6EE1F8"/>
</linearGradient>
<linearGradient id="paint40_linear_109_5686" x1="245.208" y1="122.079" x2="292.225" y2="122.079" gradientUnits="userSpaceOnUse">
<stop stop-color="#6DE0F6"/>
<stop offset="0.1595" stop-color="#68D8F5"/>
<stop offset="0.4138" stop-color="#5AC0F1"/>
<stop offset="0.7294" stop-color="#439BEA"/>
<stop offset="1" stop-color="#2C75E4"/>
</linearGradient>
<clipPath id="clip0_109_5686">
<rect width="300" height="196.109" fill="white"/>
</clipPath>
</defs>
</svg>
