<svg width="28" height="28" viewBox="0 0 28 28" fill="none" xmlns="http://www.w3.org/2000/svg">
<path d="M10.6667 5.66667V8.16667" stroke="white" stroke-width="1.5" stroke-miterlimit="10" stroke-linecap="round" stroke-linejoin="round"/>
<path d="M17.3333 5.66667V8.16667" stroke="white" stroke-width="1.5" stroke-miterlimit="10" stroke-linecap="round" stroke-linejoin="round"/>
<path d="M6.91669 11.575H21.0834" stroke="white" stroke-width="1.5" stroke-miterlimit="10" stroke-linecap="round" stroke-linejoin="round"/>
<path d="M22.3334 19.8333C22.3334 20.4583 22.1584 21.05 21.85 21.55C21.275 22.5167 20.2167 23.1667 19 23.1667C18.1584 23.1667 17.3917 22.8583 16.8084 22.3333C16.55 22.1167 16.325 21.85 16.15 21.55C15.8417 21.05 15.6667 20.4583 15.6667 19.8333C15.6667 17.9917 17.1584 16.5 19 16.5C20 16.5 20.8917 16.9417 21.5 17.6333C22.0167 18.225 22.3334 18.9917 22.3334 19.8333Z" stroke="white" stroke-width="1.5" stroke-miterlimit="10" stroke-linecap="round" stroke-linejoin="round"/>
<path d="M17.7 19.8333L18.525 20.6583L20.3 19.0167" stroke="white" stroke-width="1.5" stroke-linecap="round" stroke-linejoin="round"/>
<path d="M21.5 11.0833V17.6333C20.8917 16.9417 20 16.5 19 16.5C17.1583 16.5 15.6667 17.9917 15.6667 19.8333C15.6667 20.4583 15.8417 21.05 16.15 21.55C16.325 21.85 16.55 22.1167 16.8083 22.3333H10.6667C7.75 22.3333 6.5 20.6667 6.5 18.1667V11.0833C6.5 8.58333 7.75 6.91667 10.6667 6.91667H17.3333C20.25 6.91667 21.5 8.58333 21.5 11.0833Z" stroke="white" stroke-width="1.5" stroke-miterlimit="10" stroke-linecap="round" stroke-linejoin="round"/>
<path d="M13.9963 15.4167H14.0037" stroke="white" stroke-width="2" stroke-linecap="round" stroke-linejoin="round"/>
<path d="M10.9119 15.4167H10.9194" stroke="white" stroke-width="2" stroke-linecap="round" stroke-linejoin="round"/>
<path d="M10.9119 17.9167H10.9194" stroke="white" stroke-width="2" stroke-linecap="round" stroke-linejoin="round"/>
</svg>
