<svg width="21" height="20" viewBox="0 0 21 20" fill="none" xmlns="http://www.w3.org/2000/svg">
<path d="M7.09473 1.66602V4.16602" stroke="#0066B3" stroke-width="1.5" stroke-miterlimit="10" stroke-linecap="round" stroke-linejoin="round"/>
<path d="M13.7617 1.66602V4.16602" stroke="#0066B3" stroke-width="1.5" stroke-miterlimit="10" stroke-linecap="round" stroke-linejoin="round"/>
<path d="M3.34473 7.57422H17.5114" stroke="#0066B3" stroke-width="1.5" stroke-miterlimit="10" stroke-linecap="round" stroke-linejoin="round"/>
<path d="M18.7614 15.8333C18.7614 16.4583 18.5864 17.05 18.2781 17.55C17.7031 18.5167 16.6447 19.1667 15.4281 19.1667C14.5864 19.1667 13.8197 18.8583 13.2364 18.3333C12.9781 18.1167 12.7531 17.85 12.5781 17.55C12.2697 17.05 12.0947 16.4583 12.0947 15.8333C12.0947 13.9917 13.5864 12.5 15.4281 12.5C16.4281 12.5 17.3197 12.9417 17.9281 13.6333C18.4447 14.225 18.7614 14.9917 18.7614 15.8333Z" stroke="#0066B3" stroke-width="1.5" stroke-miterlimit="10" stroke-linecap="round" stroke-linejoin="round"/>
<path d="M14.1279 15.8343L14.9529 16.6592L16.7279 15.0176" stroke="#0066B3" stroke-width="1.5" stroke-linecap="round" stroke-linejoin="round"/>
<path d="M17.9282 7.08268V13.6327C17.3199 12.941 16.4282 12.4993 15.4282 12.4993C13.5866 12.4993 12.0949 13.991 12.0949 15.8327C12.0949 16.4577 12.2699 17.0493 12.5782 17.5493C12.7532 17.8493 12.9782 18.116 13.2366 18.3327H7.09489C4.17822 18.3327 2.92822 16.666 2.92822 14.166V7.08268C2.92822 4.58268 4.17822 2.91602 7.09489 2.91602H13.7616C16.6782 2.91602 17.9282 4.58268 17.9282 7.08268Z" stroke="#0066B3" stroke-width="1.5" stroke-miterlimit="10" stroke-linecap="round" stroke-linejoin="round"/>
<path d="M10.4243 11.4167H10.4318" stroke="#0066B3" stroke-width="2" stroke-linecap="round" stroke-linejoin="round"/>
<path d="M7.34031 11.4167H7.3478" stroke="#0066B3" stroke-width="2" stroke-linecap="round" stroke-linejoin="round"/>
<path d="M7.34031 13.9167H7.3478" stroke="#0066B3" stroke-width="2" stroke-linecap="round" stroke-linejoin="round"/>
</svg>
