<svg width="24" height="24" viewBox="0 0 24 24" fill="none" xmlns="http://www.w3.org/2000/svg">
<g clip-path="url(#clip0_11086_71648)">
<path d="M20.4054 16.3466C19.3341 15.1859 18.0342 14.2596 16.5873 13.6261C15.1405 12.9926 13.5782 12.6655 11.9987 12.6655C10.4192 12.6655 8.8569 12.9926 7.41007 13.6261C5.96324 14.2596 4.66327 15.1859 3.59203 16.3466C3.42664 16.5294 3.33413 16.7667 3.33203 17.0132V21.0132C3.33554 21.2761 3.44244 21.5271 3.6296 21.7117C3.81675 21.8964 4.06911 21.9999 4.33203 21.9999H19.6654C19.9306 21.9999 20.1849 21.8945 20.3725 21.707C20.56 21.5195 20.6654 21.2651 20.6654 20.9999V16.9999C20.66 16.7579 20.5677 16.526 20.4054 16.3466Z" fill="#989BB3"/>
<path d="M11.9998 11.3334C13.0825 11.3327 14.1313 10.9556 14.9665 10.2667H14.8198C14.3877 10.2711 13.9621 10.1613 13.5861 9.94836C13.2101 9.73544 12.8969 9.42699 12.6784 9.05419C12.4599 8.6814 12.3437 8.2575 12.3416 7.82539C12.3395 7.39327 12.4516 6.96826 12.6665 6.59337L14.7731 2.9467C14.1815 2.4986 13.4914 2.19809 12.7603 2.07012C12.0292 1.94216 11.2781 1.99043 10.5694 2.21093C9.86066 2.43142 9.21476 2.81779 8.68529 3.33795C8.15582 3.85811 7.75806 4.49706 7.52503 5.20175C7.292 5.90645 7.23042 6.65656 7.3454 7.38983C7.46038 8.1231 7.7486 8.81836 8.18614 9.41791C8.62369 10.0175 9.19792 10.504 9.86119 10.8371C10.5245 11.1703 11.2576 11.3404 11.9998 11.3334Z" fill="#989BB3"/>
<path d="M17.8989 0.760039L14.0856 7.33337C13.9969 7.46359 13.946 7.61583 13.9385 7.77322C13.931 7.93061 13.9672 8.08701 14.0431 8.22507C14.1191 8.36314 14.2317 8.47748 14.3687 8.55543C14.5056 8.63338 14.6615 8.6719 14.8189 8.66671H22.4523C22.6098 8.6719 22.7656 8.63338 22.9025 8.55543C23.0395 8.47748 23.1522 8.36314 23.2281 8.22507C23.304 8.08701 23.3403 7.93061 23.3328 7.77322C23.3253 7.61583 23.2743 7.46359 23.1856 7.33337L19.3723 0.760039C19.2971 0.631409 19.1895 0.524713 19.0603 0.450565C18.931 0.376417 18.7846 0.337402 18.6356 0.337402C18.4866 0.337402 18.3402 0.376417 18.211 0.450565C18.0817 0.524713 17.9742 0.631409 17.8989 0.760039Z" fill="#989BB3"/>
</g>
<defs>
<clipPath id="clip0_11086_71648">
<rect width="24" height="24" fill="white"/>
</clipPath>
</defs>
</svg>
