<svg width="20" height="20" viewBox="0 0 20 20" fill="none" xmlns="http://www.w3.org/2000/svg">
<path d="M13.3332 10.75V14.25C13.3332 17.1667 12.1665 18.3333 9.24984 18.3333H5.74984C2.83317 18.3333 1.6665 17.1667 1.6665 14.25V10.75C1.6665 7.83333 2.83317 6.66667 5.74984 6.66667H9.24984C12.1665 6.66667 13.3332 7.83333 13.3332 10.75Z" stroke="#0074CC" stroke-width="1.5" stroke-linecap="round" stroke-linejoin="round"/>
<path d="M18.3332 5.75V9.25C18.3332 12.1667 17.1665 13.3333 14.2498 13.3333H13.3332V10.75C13.3332 7.83333 12.1665 6.66667 9.24984 6.66667H6.6665V5.75C6.6665 2.83333 7.83317 1.66667 10.7498 1.66667H14.2498C17.1665 1.66667 18.3332 2.83333 18.3332 5.75Z" stroke="#0074CC" stroke-width="1.5" stroke-linecap="round" stroke-linejoin="round"/>
</svg>
