<svg width="21" height="20" viewBox="0 0 21 20" fill="none" xmlns="http://www.w3.org/2000/svg">
<path d="M5.42822 5.20898V6.87565" stroke="#0066B0" stroke-width="1.5" stroke-linecap="round" stroke-linejoin="round"/>
<path d="M18.7614 9.99935V7.49935C18.7614 3.33268 17.0947 1.66602 12.9281 1.66602H7.92806C3.76139 1.66602 2.09473 3.33268 2.09473 7.49935V12.4993C2.09473 16.666 3.76139 18.3327 7.92806 18.3327H10.4281" stroke="#0066B0" stroke-width="1.5" stroke-linecap="round" stroke-linejoin="round"/>
<path d="M8.76172 5.20898V6.87565" stroke="#0066B3" stroke-width="1.5" stroke-linecap="round" stroke-linejoin="round"/>
<path d="M5.42822 13.334V15.0007" stroke="#0066B3" stroke-width="1.5" stroke-linecap="round" stroke-linejoin="round"/>
<path d="M8.76172 13.334V15.0007" stroke="#0066B3" stroke-width="1.5" stroke-linecap="round" stroke-linejoin="round"/>
<path d="M12.0947 6.04102H15.4281" stroke="#0066B3" stroke-width="1.5" stroke-linecap="round" stroke-linejoin="round"/>
<path d="M2.09473 10H18.7614" stroke="#0066B3" stroke-width="1.5" stroke-linecap="round" stroke-linejoin="round"/>
<path d="M18.395 16.9423C17.9284 17.7507 17.0534 18.2923 16.0534 18.2923C14.5617 18.2923 13.645 16.7923 13.645 16.7923M13.7034 14.2423C14.17 13.4256 15.045 12.884 16.0534 12.884C17.8617 12.884 18.7617 14.384 18.7617 14.384M18.7617 12.709V14.3757H17.095M15.3117 16.784H13.645V18.334" stroke="#0066B3" stroke-width="1.5" stroke-linecap="round" stroke-linejoin="round"/>
</svg>
