<svg width="24" height="24" viewBox="0 0 24 24" fill="none" xmlns="http://www.w3.org/2000/svg">
<path d="M10.3333 13.1111H2.55556C2.22222 13.1111 2 13.3333 2 13.6667V21.4444C2 21.7778 2.22222 22 2.55556 22H10.3333C10.6667 22 10.8889 21.7778 10.8889 21.4444V13.6667C10.8889 13.3333 10.6667 13.1111 10.3333 13.1111ZM9.77778 20.8889H3.11111V14.2222H9.77778V20.8889ZM10.3333 2H2.55556C2.22222 2 2 2.22222 2 2.55556V10.3333C2 10.6667 2.22222 10.8889 2.55556 10.8889H10.3333C10.6667 10.8889 10.8889 10.6667 10.8889 10.3333V2.55556C10.8889 2.22222 10.6667 2 10.3333 2ZM9.77778 9.77778H3.11111V3.11111H9.77778V9.77778ZM21.4444 2H13.6667C13.3333 2 13.1111 2.22222 13.1111 2.55556V10.3333C13.1111 10.6667 13.3333 10.8889 13.6667 10.8889H21.4444C21.7778 10.8889 22 10.6667 22 10.3333V2.55556C22 2.22222 21.7778 2 21.4444 2ZM20.8889 9.77778H14.2222V3.11111H20.8889V9.77778ZM21.4444 17H18.1111V13.6667C18.1111 13.3333 17.8889 13.1111 17.5556 13.1111C17.2222 13.1111 17 13.3333 17 13.6667V17H13.6667C13.3333 17 13.1111 17.2222 13.1111 17.5556C13.1111 17.8889 13.3333 18.1111 13.6667 18.1111H17V21.4444C17 21.7778 17.2222 22 17.5556 22C17.8889 22 18.1111 21.7778 18.1111 21.4444V18.1111H21.4444C21.7778 18.1111 22 17.8889 22 17.5556C22 17.2222 21.7778 17 21.4444 17Z" fill="#989BB3"/>
</svg>
