<svg width="28" height="28" viewBox="0 0 28 28" fill="none" xmlns="http://www.w3.org/2000/svg">
<path d="M21.5 8.98333C18.725 8.70833 15.9333 8.56667 13.15 8.56667C11.5 8.56667 9.85 8.65 8.2 8.81667L6.5 8.98333" stroke="#EA3829" stroke-width="1.5" stroke-linecap="round" stroke-linejoin="round"/>
<path d="M11.0833 8.14167L11.2666 7.05C11.4 6.25833 11.5 5.66667 12.9083 5.66667H15.0916C16.5 5.66667 16.6083 6.29167 16.7333 7.05833L16.9166 8.14167" stroke="#EA3829" stroke-width="1.5" stroke-linecap="round" stroke-linejoin="round"/>
<path d="M19.7084 11.6167L19.1667 20.0083C19.075 21.3167 19 22.3333 16.675 22.3333H11.325C9.00002 22.3333 8.92502 21.3167 8.83335 20.0083L8.29169 11.6167" stroke="#EA3829" stroke-width="1.5" stroke-linecap="round" stroke-linejoin="round"/>
<path d="M12.6083 17.75H15.3833" stroke="#EA3829" stroke-width="1.5" stroke-linecap="round" stroke-linejoin="round"/>
<path d="M11.9167 14.4167H16.0834" stroke="#EA3829" stroke-width="1.5" stroke-linecap="round" stroke-linejoin="round"/>
</svg>
