<svg width="24" height="24" viewBox="0 0 24 24" fill="none" xmlns="http://www.w3.org/2000/svg">
<path fill-rule="evenodd" clip-rule="evenodd" d="M15.3953 14.7061C15.4851 14.4751 15.5869 14.2477 15.6629 14.0122C16.0919 12.6815 16.5168 11.3497 16.9388 10.0167C17.101 9.50465 17.2788 9.00047 17.5979 8.5604C18.1026 7.86497 18.8058 7.50065 19.6379 7.37334C19.9657 7.32464 20.2965 7.2992 20.6279 7.29722C21.6154 7.28784 22.6034 7.2944 23.5911 7.29534C23.6436 7.29534 23.6961 7.30078 23.7706 7.30509C23.7464 7.36209 23.7333 7.40353 23.7123 7.44084C23.3457 8.09597 22.9863 8.75503 22.6088 9.40359C21.9516 10.5327 21.2933 11.6615 20.6155 12.7782C20.1807 13.4943 19.7091 14.1882 19.1742 14.8358C18.7795 15.3136 18.364 15.7703 17.8343 16.1052C17.4734 16.3334 17.0879 16.4669 16.6503 16.4647C15.0981 16.4562 13.546 16.4624 11.9939 16.4602C11.5324 16.4594 11.1374 16.2837 10.8021 15.9721C10.3216 15.5257 10.0347 14.9573 9.79994 14.3581C9.37169 13.264 9.13188 12.1173 8.85663 10.9805C8.72763 10.4483 8.58101 9.92034 8.44132 9.39084C8.43232 9.35653 8.41469 9.32447 8.39444 9.27515L8.28626 9.37678C7.68101 9.97809 7.14794 10.6407 6.67094 11.3452C6.54101 11.5372 6.49732 11.7903 6.42476 12.0185C6.15776 12.8566 5.91438 13.7028 5.62526 14.533C5.34832 15.3284 4.85182 15.961 4.07576 16.3349C3.62576 16.5531 3.13404 16.6717 2.63407 16.6827C1.88782 16.6992 1.14119 16.7011 0.394756 16.7078C0.216256 16.7095 0.208006 16.6949 0.254506 16.5222C0.574568 15.3338 0.980131 14.1758 1.48826 13.055C2.01213 11.8987 2.62919 10.796 3.40657 9.7889C3.93588 9.10322 4.52051 8.47059 5.25213 7.99228C5.62319 7.74984 6.01769 7.55822 6.46657 7.50778C6.54044 7.49934 6.61526 7.49409 6.68951 7.49409C8.27913 7.49334 9.86876 7.50947 11.4582 7.48678C12.3108 7.47459 12.928 7.83459 13.3902 8.52084C13.6776 8.94759 13.8833 9.41353 14.0564 9.89484C14.4053 10.8657 14.6223 11.8724 14.8673 12.872C15.0076 13.444 15.1638 14.0122 15.3134 14.582C15.3246 14.6247 15.3428 14.6656 15.358 14.7072L15.3953 14.7061Z" fill="#989BB3"/>
</svg>
