<svg width="50" height="50" viewBox="0 0 50 50" fill="none" xmlns="http://www.w3.org/2000/svg">
<path d="M33.7292 4.1665H16.2708C8.6875 4.1665 4.16666 8.68734 4.16666 16.2707V33.7082C4.16666 41.3123 8.6875 45.8332 16.2708 45.8332H33.7083C41.2917 45.8332 45.8125 41.3123 45.8125 33.729V16.2707C45.8333 8.68734 41.3125 4.1665 33.7292 4.1665ZM32.8125 32.8123H17.1875C16.3333 32.8123 15.625 32.104 15.625 31.2498C15.625 30.3957 16.3333 29.6873 17.1875 29.6873H32.8125C33.6667 29.6873 34.375 30.3957 34.375 31.2498C34.375 32.104 33.6667 32.8123 32.8125 32.8123ZM32.8125 20.3123H17.1875C16.3333 20.3123 15.625 19.604 15.625 18.7498C15.625 17.8957 16.3333 17.1873 17.1875 17.1873H32.8125C33.6667 17.1873 34.375 17.8957 34.375 18.7498C34.375 19.604 33.6667 20.3123 32.8125 20.3123Z" fill="black" fill-opacity="0.4"/>
</svg>
