<svg width="50" height="50" viewBox="0 0 50 50" fill="none" xmlns="http://www.w3.org/2000/svg">
<path d="M42.7083 21.229H36.6875C31.75 21.229 27.7292 17.2082 27.7292 12.2707V6.24984C27.7292 5.104 26.7917 4.1665 25.6458 4.1665H16.8125C10.3958 4.1665 5.20833 8.33317 5.20833 15.7707V34.229C5.20833 41.6665 10.3958 45.8332 16.8125 45.8332H33.1875C39.6042 45.8332 44.7917 41.6665 44.7917 34.229V23.3123C44.7917 22.1665 43.8542 21.229 42.7083 21.229Z" fill="black" fill-opacity="0.4"/>
<path d="M32.9167 4.60419C32.0625 3.75003 30.5833 4.33336 30.5833 5.52086V12.7917C30.5833 15.8334 33.1667 18.3542 36.3125 18.3542C38.2917 18.375 41.0417 18.375 43.3958 18.375C44.5833 18.375 45.2083 16.9792 44.375 16.1459C41.375 13.125 36 7.68753 32.9167 4.60419Z" fill="black" fill-opacity="0.4"/>
</svg>
