<svg width="25" height="24" viewBox="0 0 25 24" fill="none" xmlns="http://www.w3.org/2000/svg">
<path d="M11.992 2.78906H8.253C5.178 2.78906 3.25 4.96606 3.25 8.04806V16.3621C3.25 19.4441 5.169 21.6211 8.253 21.6211H17.077C20.162 21.6211 22.081 19.4441 22.081 16.3621V12.3341" stroke="#0066B3" stroke-linecap="round" stroke-linejoin="round"/>
<path fill-rule="evenodd" clip-rule="evenodd" d="M9.32763 10.921L16.8006 3.44799C17.7316 2.51799 19.2406 2.51799 20.1716 3.44799L21.3886 4.66499C22.3196 5.59599 22.3196 7.10599 21.3886 8.03599L13.8796 15.545C13.4726 15.952 12.9206 16.181 12.3446 16.181H8.59863L8.69263 12.401C8.70663 11.845 8.93363 11.315 9.32763 10.921Z" stroke="#0066B3" stroke-linecap="round" stroke-linejoin="round"/>
<path d="M15.665 4.60254L20.231 9.16854" stroke="#0066B3" stroke-linecap="round" stroke-linejoin="round"/>
</svg>
