<svg width="21" height="20" viewBox="0 0 21 20" fill="none" xmlns="http://www.w3.org/2000/svg">
<path d="M13.4833 9.99993C13.4833 11.6499 12.15 12.9833 10.5 12.9833C8.85 12.9833 7.51666 11.6499 7.51666 9.99993C7.51666 8.34993 8.85 7.0166 10.5 7.0166C12.15 7.0166 13.4833 8.34993 13.4833 9.99993Z" stroke="#0074CC" stroke-width="1.5" stroke-linecap="round" stroke-linejoin="round"/>
<path d="M10.5 16.8918C13.4417 16.8918 16.1833 15.1584 18.0917 12.1584C18.8417 10.9834 18.8417 9.00843 18.0917 7.83343C16.1833 4.83343 13.4417 3.1001 10.5 3.1001C7.55833 3.1001 4.81666 4.83343 2.90833 7.83343C2.15833 9.00843 2.15833 10.9834 2.90833 12.1584C4.81666 15.1584 7.55833 16.8918 10.5 16.8918Z" stroke="#0074CC" stroke-width="1.5" stroke-linecap="round" stroke-linejoin="round"/>
</svg>
