<svg width="24" height="24" viewBox="0 0 24 24" fill="none" xmlns="http://www.w3.org/2000/svg">
<path d="M11.9997 18.7198C18.2569 18.7198 23.2086 12.5599 23.416 12.2979L23.6517 11.9998L23.416 11.7017C23.2086 11.4396 18.2569 5.27979 11.9997 5.27979C5.74238 5.27979 0.790696 11.4396 0.583336 11.7017L0.347656 11.9998L0.583336 12.2979C0.790696 12.5599 5.74238 18.7198 11.9997 18.7198ZM11.9997 6.23979C17.0368 6.23979 21.3453 10.7806 22.4109 11.9998C21.3467 13.2199 17.044 17.7598 11.9997 17.7598C6.96254 17.7598 2.65406 13.219 1.58846 11.9998C2.65262 10.7796 6.95534 6.23979 11.9997 6.23979Z" fill="#0074CC"/>
<path d="M11.9997 16.3202C14.3819 16.3202 16.3197 14.3819 16.3197 12.0002C16.3197 9.61842 14.3819 7.68018 11.9997 7.68018C9.61745 7.68018 7.67969 9.61842 7.67969 12.0002C7.67969 14.3819 9.61745 16.3202 11.9997 16.3202ZM11.9997 8.64018C13.852 8.64018 15.3597 10.1474 15.3597 12.0002C15.3597 13.853 13.852 15.3602 11.9997 15.3602C10.1474 15.3602 8.63969 13.853 8.63969 12.0002C8.63969 10.1474 10.1474 8.64018 11.9997 8.64018Z" fill="#0074CC"/>
</svg>
