<?xml version="1.0" encoding="UTF-8"?>
<svg id="Layer_2" data-name="Layer 2" xmlns="http://www.w3.org/2000/svg" viewBox="0 0 129 84">
  <defs>
    <style>
      .cls-1 {
        fill: #00bdf9;
      }

      .cls-2 {
        fill: #0066b0;
      }
    </style>
  </defs>
  <g id="Obj_Text" data-name="Obj &amp;amp; Text">
    <g>
      <path class="cls-1" d="m72,42v-9c0-1.55-.17-3.11-.51-4.62-2.13-9.49-10.75-16.38-20.49-16.38-11.58,0-21,9.42-21,21v15h-6c-6.62,0-12,5.38-12,12s5.38,12,12,12h24.23c.79,1.38,1.72,2.67,2.77,3.85,4.4,4.99,10.84,8.15,18,8.15H24c-13.23,0-24-10.77-24-24,0-11.16,7.66-20.57,18-23.24v-3.76C18,14.8,32.8,0,51,0c12.85,0,24.44,7.62,29.82,18.89,1.03,2.16,1.83,4.46,2.37,6.86.36,1.56.59,3.15.72,4.75.06.83.09,1.67.09,2.5v9h7.5l-13.5,18-13.5-18h7.5Z"/>
      <path class="cls-2" d="m129,60c0,13.23-10.77,24-24,24h-36c-7.16,0-13.6-3.16-18-8.15-1.05-1.18-1.98-2.47-2.77-3.85-2.06-3.53-3.23-7.63-3.23-12v-18h-7.5l13.5-18,13.5,18h-7.5v18c0,6.62,5.38,12,12,12h36c6.62,0,12-5.38,12-12s-5.38-12-12-12h-6v-6c0-6.62-5.28-12-11.76-12-1.14,0-2.25.17-3.33.5-.13-1.6-.36-3.19-.72-4.75-.54-2.4-1.34-4.7-2.37-6.86,2.08-.58,4.23-.89,6.42-.89,11.27,0,20.73,7.96,23.16,18.61,10.64,2.46,18.6,12.01,18.6,23.39Z"/>
    </g>
  </g>
</svg>