<svg width="30" height="30" viewBox="0 0 65 62" fill="none" xmlns="http://www.w3.org/2000/svg">
<ellipse cx="32.4998" cy="30.9993" rx="27.0833" ry="25.8333" fill="white"/>
<path d="M32.4998 5.16602C17.5769 5.16602 5.4165 16.7652 5.4165 30.9993C5.4165 45.2335 17.5769 56.8327 32.4998 56.8327C47.4228 56.8327 59.5832 45.2335 59.5832 30.9993C59.5832 16.7652 47.4228 5.16602 32.4998 5.16602ZM45.4457 25.0577L30.0894 39.7052C29.7103 40.0668 29.1957 40.2735 28.654 40.2735C28.1123 40.2735 27.5978 40.0668 27.2186 39.7052L19.554 32.3943C18.7686 31.6452 18.7686 30.4052 19.554 29.656C20.3394 28.9068 21.6394 28.9068 22.4248 29.656L28.654 35.5977L42.5748 22.3193C43.3603 21.5702 44.6603 21.5702 45.4457 22.3193C46.2311 23.0685 46.2311 24.2827 45.4457 25.0577Z" fill="#0066B3"/>
</svg>
