<svg width="20" height="21" viewBox="0 0 20 21" fill="none" xmlns="http://www.w3.org/2000/svg">
<path d="M17.3728 6.76919C17.8002 7.31384 17.3289 8.00798 16.6365 8.00798H2.66666C2.11438 8.00798 1.66666 7.56026 1.66666 7.00798V5.64964C1.66666 3.61631 3.31666 1.96631 5.35 1.96631H7.28333C8.64166 1.96631 9.06666 2.40798 9.60833 3.13298L10.775 4.68298C11.0333 5.02464 11.0667 5.06631 11.55 5.06631H13.875C15.2939 5.06631 16.5588 5.73182 17.3728 6.76919Z" fill="#7C7676"/>
<path d="M17.32 9.25783C17.871 9.25782 18.3182 9.70347 18.32 10.2544L18.3333 14.1747C18.3333 16.633 16.3333 18.633 13.875 18.633H6.125C3.66666 18.633 1.66666 16.633 1.66666 14.1747V10.258C1.66666 9.70574 2.11437 9.25803 2.66665 9.25802L17.32 9.25783Z" fill="#7C7676"/>
</svg>
