<svg width="24" height="24" viewBox="0 0 24 24" fill="none" xmlns="http://www.w3.org/2000/svg">
<path d="M12.6014 1.69873C13.2907 2.69244 13.9189 3.72715 14.4826 4.79713C14.5655 4.78539 14.6491 4.77946 14.7329 4.77937C15.0709 4.77944 15.4021 4.8747 15.6885 5.05424C15.9749 5.23379 16.205 5.49035 16.3524 5.79457C17.1537 5.7229 17.9574 5.68047 18.7618 5.66737C19.2252 5.66017 19.6906 5.66305 20.1581 5.67505C18.3866 3.39145 15.6778 1.87465 12.6014 1.69873ZM11.1427 1.71793C11.1074 1.72081 11.0719 1.72273 11.0366 1.72585C10.2266 3.38329 9.59303 5.02105 9.14015 6.63745C9.33438 6.75764 9.50396 6.9137 9.63983 7.09729C10.7316 6.767 11.8394 6.49224 12.959 6.27409C13.0188 5.9271 13.179 5.60526 13.4198 5.34841C12.7726 4.12105 12.0158 2.91049 11.1427 1.71793ZM9.59711 1.96321C7.09481 2.55929 4.90576 4.06934 3.45983 6.19681C4.56761 6.45087 5.66432 6.75097 6.74711 7.09633C6.89298 6.89972 7.07742 6.73493 7.28916 6.61204C7.5009 6.48914 7.73548 6.41074 7.97855 6.38161C8.38055 4.91689 8.92007 3.44281 9.59711 1.96321ZM19.4666 6.86353C18.463 6.85705 17.4698 6.89809 16.4863 6.98353C16.3989 7.36302 16.1907 7.70392 15.893 7.95505C16.224 8.84504 16.5058 9.75257 16.7371 10.6735C16.9723 10.6985 17.2002 10.7696 17.4078 10.8826C17.6155 10.9957 17.7989 11.1486 17.9474 11.3326C19.3387 10.9158 20.7556 10.5899 22.1892 10.357C21.996 9.14449 21.5865 7.97657 20.9803 6.90889C20.4732 6.88249 19.9687 6.86689 19.4666 6.86353ZM2.81567 7.28641C2.29634 8.29764 1.9488 9.3882 1.78727 10.5135C3.29735 9.64657 4.83311 8.89009 6.39527 8.24833C6.39511 8.24593 6.39495 8.24353 6.39479 8.24113C5.23511 7.87105 4.04039 7.55593 2.81567 7.28641ZM13.1582 7.45057C12.0903 7.65887 11.0335 7.9208 9.99191 8.23537C9.99114 8.25579 9.99002 8.27619 9.98855 8.29657C11.8488 9.08474 13.6356 10.036 15.3281 11.1391C15.4067 11.0669 15.4916 11.0019 15.5818 10.9447C15.3622 10.0752 15.0949 9.21836 14.7811 8.37817C14.765 8.37871 14.749 8.37903 14.7329 8.37913C14.4114 8.379 14.0959 8.29279 13.819 8.12946C13.5421 7.96612 13.3141 7.73162 13.1585 7.45033M6.84167 9.35617C5.09159 10.0776 3.37199 10.9505 1.68095 11.9667C1.68095 11.9779 1.67999 11.9887 1.67999 12C1.67999 14.7278 2.73431 17.2027 4.45583 19.0457C5.43775 18.1675 6.46226 17.3381 7.52567 16.5605C7.07447 14.3287 7.00895 12.0473 7.30463 9.73369C7.13033 9.63475 6.97378 9.5074 6.84143 9.35689M9.51047 9.39505C9.23397 9.69205 8.86523 9.88691 8.46407 9.94801C8.21159 11.9388 8.24759 13.8951 8.58599 15.8146C10.5439 14.4862 12.5969 13.3692 14.7473 12.4752C14.7473 12.4715 14.7473 12.4677 14.7473 12.4639C14.7475 12.3764 14.754 12.2889 14.767 12.2023C13.1033 11.1095 11.344 10.1699 9.51047 9.39505ZM22.3087 11.5536C20.9704 11.7749 19.6473 12.0801 18.3473 12.4675C18.3468 12.7285 18.2895 12.9862 18.1795 13.2228C19.3221 14.1565 20.402 15.1644 21.4121 16.2401C22.0121 14.9071 22.3216 13.4618 22.32 12C22.32 11.8503 22.3152 11.7017 22.3087 11.5536ZM15.1524 13.6003C12.9502 14.5198 10.8538 15.6842 8.85503 17.0818C9.29183 18.8429 9.98711 20.5721 10.95 22.2674C11.2951 22.3022 11.6455 22.32 12 22.32C13.3997 22.32 14.7329 22.0416 15.9487 21.539C16.355 19.0397 16.435 16.602 16.1724 14.2239C15.7713 14.1383 15.4114 13.9183 15.1524 13.6003ZM17.3558 14.0947C17.603 16.3147 17.5658 18.5803 17.2574 20.8848C18.7155 20.0221 19.9392 18.8142 20.821 17.3676C19.7473 16.1937 18.5892 15.1 17.3558 14.0952M7.82543 17.8284C6.96502 18.4767 6.1316 19.1601 5.32727 19.8768C6.52041 20.8899 7.9292 21.617 9.44615 22.0027C8.74559 20.6357 8.20727 19.2427 7.82543 17.8284Z" fill="#0074CC"/>
</svg>
