<svg width="44" height="45" viewBox="0 0 44 45" fill="none" xmlns="http://www.w3.org/2000/svg">
<g clip-path="url(#clip0_68_1006)">
<rect y="0.5" width="44" height="44" rx="15" fill="white"/>
<mask id="mask0_68_1006" style="mask-type:luminance" maskUnits="userSpaceOnUse" x="0" y="0" width="44" height="45">
<path d="M0 0.5H44V44.5H0V0.5Z" fill="white"/>
</mask>
<g mask="url(#mask0_68_1006)">
<path d="M32.1474 40.375H31.6682V39C31.6682 38.6198 31.3602 38.3125 30.9807 38.3125C30.6005 38.3125 30.2932 38.6198 30.2932 39V40.375H29.5624V39C29.5624 38.6198 29.2544 38.3125 28.8749 38.3125C28.4954 38.3125 28.1874 38.6198 28.1874 39V40.375H27.4573V39C27.4573 38.6198 27.1493 38.3125 26.7698 38.3125C26.3896 38.3125 26.0823 38.6198 26.0823 39V40.375H11.8524C10.6245 40.375 9.62488 39.3761 9.62488 38.1475V37.625H18.5624H34.3749V38.1475C34.3749 39.3761 33.3759 40.375 32.1474 40.375ZM16.6704 32.9115C16.3672 32.9122 16.0846 32.8936 15.8206 32.8586C15.8158 32.8579 15.8096 32.8572 15.8048 32.8565C15.5484 32.8221 15.3133 32.7692 15.096 32.6997C15.0809 32.6949 15.0664 32.6901 15.0513 32.6846C14.843 32.6159 14.6533 32.5299 14.4828 32.4275C14.4663 32.4179 14.4511 32.4062 14.4346 32.3959C14.2676 32.2893 14.1156 32.1697 13.9884 32.0301C13.8977 31.9311 13.82 31.8232 13.7506 31.7111C13.7272 31.674 13.7086 31.6341 13.6873 31.5956C13.6447 31.5179 13.6048 31.4389 13.5704 31.3571C13.5512 31.3103 13.534 31.2629 13.5168 31.2154C13.4886 31.1364 13.4639 31.0559 13.4419 30.9748C13.4288 30.9253 13.4158 30.8765 13.4054 30.8256C13.3869 30.7397 13.3718 30.6531 13.3594 30.5657C13.3532 30.5197 13.3443 30.4743 13.3394 30.4269C13.3271 30.3189 13.3202 30.2096 13.3161 30.101C13.3147 30.0762 13.3126 30.0508 13.3119 30.0261C13.3085 29.8927 13.3106 29.7593 13.3161 29.628C13.3181 29.5881 13.3223 29.5489 13.3243 29.5091C13.3284 29.4396 13.3346 29.3709 13.3415 29.3028C14.2243 29.1626 16.0386 28.7617 18.1361 27.6514C18.4235 27.4988 18.7068 27.3379 18.9859 27.1688C18.9543 27.2272 18.9226 27.2871 18.891 27.3462L18.8896 27.3482C17.7113 29.5716 16.9667 31.4389 16.6704 32.9115ZM20.6428 27.0134C20.6558 26.9894 20.6696 26.9653 20.6833 26.9419C20.7589 26.8092 20.8318 26.6814 20.9026 26.559C20.9116 26.5432 20.9212 26.5267 20.9308 26.5109C21.0869 26.2421 21.2299 26.0014 21.3571 25.7911C21.3791 25.7546 21.3997 25.7209 21.4203 25.6866C21.4574 25.6254 21.4932 25.5669 21.5269 25.5126C21.5503 25.4741 21.5736 25.4363 21.5956 25.4006C21.6197 25.3621 21.6417 25.3256 21.663 25.2919C21.7242 25.1922 21.7778 25.1063 21.8163 25.0458L21.8864 24.9331C21.8933 24.9207 21.894 24.9069 21.9009 24.8946C21.9325 24.8382 21.9538 24.7811 21.9676 24.7199C21.9703 24.7069 21.9731 24.6945 21.9751 24.6821C21.9868 24.6106 21.9882 24.5412 21.9765 24.469C21.9758 24.4621 21.9738 24.4566 21.9724 24.4497C21.9593 24.3769 21.9353 24.3095 21.8988 24.2428C21.894 24.2346 21.8878 24.2277 21.883 24.2194C21.8562 24.1754 21.8356 24.128 21.7978 24.0895C21.7806 24.0716 21.7579 24.0647 21.74 24.0503C21.7379 24.0482 21.7366 24.0455 21.7345 24.0441C21.729 24.0386 21.7208 24.0372 21.7146 24.0324C21.6541 23.9877 21.5922 23.9492 21.5234 23.9272C21.509 23.9217 21.4946 23.9217 21.4801 23.9183C21.4169 23.9018 21.3536 23.8881 21.2883 23.8894C21.2464 23.8901 21.2058 23.9039 21.1639 23.9128C21.1254 23.9204 21.0855 23.9211 21.0477 23.9362C20.9707 23.9664 20.8978 24.0104 20.8339 24.0696C20.5912 24.2923 20.3416 24.5068 20.0866 24.7137C19.9965 24.7866 19.9023 24.8547 19.8109 24.9255C19.6431 25.0568 19.4747 25.1874 19.3021 25.3112C19.1942 25.3882 19.0828 25.4611 18.9728 25.5353C18.8113 25.6453 18.649 25.7553 18.4833 25.8591C18.3671 25.9327 18.2475 26.0021 18.1286 26.0716C18.0179 26.1376 17.9065 26.2008 17.7944 26.2641C14.8664 24.7007 13.0624 21.7107 13.0624 18.375C13.0624 13.447 17.0719 9.4375 21.9999 9.4375C26.9286 9.4375 30.9374 13.447 30.9374 18.375C30.9374 23.303 26.9286 27.3125 21.9999 27.3125C21.5124 27.3125 21.025 27.2719 20.5431 27.1922C20.5761 27.1331 20.6098 27.0712 20.6428 27.0134ZM9.62488 28H12.159C12.1583 28.0014 12.1583 28.0034 12.1583 28.0048C12.1191 28.1781 12.0806 28.3699 12.0469 28.5768C11.8345 29.8789 11.8228 31.6967 12.9723 32.9576C13.0803 33.0758 13.1971 33.1844 13.3202 33.2869C13.3621 33.3219 13.4082 33.3522 13.4522 33.3859C13.5361 33.4498 13.6213 33.5131 13.7114 33.5701C13.7684 33.6052 13.8289 33.6375 13.8888 33.6712C13.9719 33.7172 14.0572 33.7633 14.1452 33.8046C14.2146 33.8369 14.2861 33.8657 14.3576 33.8946C14.4436 33.9297 14.5316 33.962 14.6216 33.9922C14.7014 34.0184 14.7818 34.0438 14.8643 34.0665C14.9537 34.0906 15.0465 34.1132 15.1407 34.1332C15.2294 34.1524 15.3181 34.1724 15.4102 34.1875C15.5051 34.2033 15.6048 34.2157 15.7038 34.2281C15.8 34.2391 15.8949 34.2528 15.9953 34.2604C16.1059 34.2693 16.2221 34.2721 16.3376 34.2762C16.4311 34.2796 16.5212 34.2858 16.6168 34.2865H16.6243C16.7075 34.2865 16.7969 34.2789 16.8821 34.2769C17.0024 34.2734 17.1207 34.2727 17.2444 34.2638C17.2486 34.2645 17.252 34.2666 17.2561 34.2666C17.2623 34.2666 17.2671 34.2631 17.2726 34.2631C17.2795 34.2624 17.285 34.2631 17.2919 34.2624C17.4775 34.2528 17.6714 34.2363 17.8749 34.2136V36.25H9.62488V28ZM11.1649 4.74462V6.6875C11.1649 7.06768 11.4729 7.375 11.8524 7.375H21.3124C21.6919 7.375 21.9999 7.06768 21.9999 6.6875V4.625H32.1474C33.3759 4.625 34.3749 5.62394 34.3749 6.8525V36.25H19.2499V33.4175C19.2499 33.3989 19.2396 33.3817 19.2382 33.3632C19.2361 33.3412 19.2437 33.3199 19.2396 33.2979C19.2334 33.2635 19.2141 33.2367 19.2024 33.2044C19.1894 33.1652 19.1784 33.1274 19.1578 33.0902C19.1296 33.0394 19.0938 32.9974 19.0539 32.9548C19.0354 32.9349 19.0258 32.9087 19.0044 32.8902C18.9969 32.884 18.9859 32.8833 18.9783 32.8771C18.9268 32.8366 18.8676 32.8111 18.8064 32.7871C18.7796 32.7767 18.7563 32.7596 18.7288 32.7527C18.6373 32.73 18.5411 32.7224 18.4428 32.741C18.3259 32.7616 18.2221 32.774 18.1121 32.7905C18.4043 31.6197 18.9983 30.1484 19.8638 28.4606C20.5678 28.6098 21.2835 28.6875 21.9999 28.6875C27.6862 28.6875 32.3124 24.0613 32.3124 18.375C32.3124 12.6887 27.6862 8.0625 21.9999 8.0625C16.3136 8.0625 11.6874 12.6887 11.6874 18.375C11.6874 21.9026 13.4378 25.0926 16.3301 26.9887C15.2273 27.4589 14.2724 27.7154 13.6144 27.8515C13.6688 27.6624 13.7086 27.5476 13.7093 27.5449C13.7375 27.4665 13.7458 27.384 13.7451 27.3022C13.7444 27.2871 13.7451 27.2719 13.7437 27.2568C13.7382 27.1805 13.7189 27.1056 13.688 27.0354C13.6825 27.0217 13.6743 27.0107 13.6681 26.9976C13.6536 26.9708 13.6419 26.9426 13.6248 26.9172C13.6 26.8828 13.5704 26.8532 13.5409 26.8244C13.534 26.8175 13.5292 26.8099 13.5216 26.8037C13.4611 26.7487 13.391 26.7089 13.3161 26.6786C13.3078 26.6752 13.303 26.6683 13.2948 26.6662C13.2879 26.6635 13.281 26.6656 13.2741 26.6635C13.2061 26.6401 13.1359 26.625 13.0624 26.625H9.62488V6.8525C9.62488 5.86594 10.2746 5.03681 11.1649 4.74462ZM13.7499 6H12.5399V4.625H13.7499V6ZM19.2499 4.625H20.6249V6H19.2499V4.625ZM15.1249 4.625H17.8749V6H15.1249V4.625ZM32.1474 3.25H21.3124H11.8524C9.86619 3.25 8.24988 4.86631 8.24988 6.8525V27.3125V36.9375V38.1475C8.24988 40.1337 9.86619 41.75 11.8524 41.75H32.1474C34.1343 41.75 35.7499 40.1337 35.7499 38.1475V6.8525C35.7499 4.86631 34.1343 3.25 32.1474 3.25Z" fill="#0066B3"/>
<path d="M15.8125 38.3125H11.6875C11.308 38.3125 11 38.6198 11 39C11 39.3802 11.308 39.6875 11.6875 39.6875H15.8125C16.192 39.6875 16.5 39.3802 16.5 39C16.5 38.6198 16.192 38.3125 15.8125 38.3125Z" fill="#0066B3"/>
<path d="M11 34.1875C10.6205 34.1875 10.3125 34.4948 10.3125 34.875C10.3125 35.2552 10.6205 35.5625 11 35.5625C11.3795 35.5625 11.6875 35.2552 11.6875 34.875C11.6875 34.4948 11.3795 34.1875 11 34.1875Z" fill="#0066B3"/>
<path d="M33 34.1875C32.6205 34.1875 32.3125 34.4948 32.3125 34.875C32.3125 35.2552 32.6205 35.5625 33 35.5625C33.3795 35.5625 33.6875 35.2552 33.6875 34.875C33.6875 34.4948 33.3795 34.1875 33 34.1875Z" fill="#0066B3"/>
<path d="M33 7.375C33.3795 7.375 33.6875 7.06769 33.6875 6.6875C33.6875 6.30731 33.3795 6 33 6C32.6205 6 32.3125 6.30731 32.3125 6.6875C32.3125 7.06769 32.6205 7.375 33 7.375Z" fill="#0066B3"/>
<path d="M19.9375 18.375C19.9375 17.2379 20.8629 16.3125 22 16.3125C23.1371 16.3125 24.0625 17.2379 24.0625 18.375C24.0625 19.5121 23.1371 20.4375 22 20.4375C20.8629 20.4375 19.9375 19.5121 19.9375 18.375ZM25.4375 18.375C25.4375 16.4796 23.8954 14.9375 22 14.9375C20.1046 14.9375 18.5625 16.4796 18.5625 18.375C18.5625 20.2704 20.1046 21.8125 22 21.8125C23.8954 21.8125 25.4375 20.2704 25.4375 18.375Z" fill="#0066B3"/>
</g>
</g>
<defs>
<clipPath id="clip0_68_1006">
<rect y="0.5" width="44" height="44" rx="15" fill="white"/>
</clipPath>
</defs>
</svg>
