<svg width="24" height="24" viewBox="0 0 24 24" fill="none" xmlns="http://www.w3.org/2000/svg">
<path d="M17.6517 6.35C16.9116 5.60485 16.0313 5.01356 15.0616 4.61023C14.0919 4.2069 13.052 3.99951 12.0017 4C7.58172 4 4.01172 7.58 4.01172 12C4.01172 16.42 7.58172 20 12.0017 20C15.7317 20 18.8417 17.45 19.7317 14H17.6517C17.2398 15.1695 16.4751 16.1824 15.4631 16.8988C14.4511 17.6153 13.2417 18 12.0017 18C8.69172 18 6.00172 15.31 6.00172 12C6.00172 8.69 8.69172 6 12.0017 6C13.6617 6 15.1417 6.69 16.2217 7.78L13.0017 11H20.0017V4L17.6517 6.35Z" fill="#989BB3"/>
</svg>
