<svg width="21" height="21" viewBox="0 0 21 21" fill="none" xmlns="http://www.w3.org/2000/svg">
<path d="M13.8334 11.2498V14.7498C13.8334 17.6665 12.6667 18.8332 9.75008 18.8332H6.25008C3.33341 18.8332 2.16675 17.6665 2.16675 14.7498V11.2498C2.16675 8.33317 3.33341 7.1665 6.25008 7.1665H9.75008C12.6667 7.1665 13.8334 8.33317 13.8334 11.2498Z" stroke="white" stroke-width="1.5" stroke-linecap="round" stroke-linejoin="round"/>
<path d="M18.8334 6.24984V9.74984C18.8334 12.6665 17.6667 13.8332 14.7501 13.8332H13.8334V11.2498C13.8334 8.33317 12.6667 7.1665 9.75008 7.1665H7.16675V6.24984C7.16675 3.33317 8.33341 2.1665 11.2501 2.1665H14.7501C17.6667 2.1665 18.8334 3.33317 18.8334 6.24984Z" stroke="white" stroke-width="1.5" stroke-linecap="round" stroke-linejoin="round"/>
</svg>
