<svg width="28" height="28" viewBox="0 0 28 28" fill="none" xmlns="http://www.w3.org/2000/svg">
<path d="M17.3334 14.75V18.25C17.3334 21.1666 16.1667 22.3333 13.25 22.3333H9.75002C6.83335 22.3333 5.66669 21.1666 5.66669 18.25V14.75C5.66669 11.8333 6.83335 10.6666 9.75002 10.6666H13.25C16.1667 10.6666 17.3334 11.8333 17.3334 14.75Z" stroke="#0074CC" stroke-width="1.5" stroke-linecap="round" stroke-linejoin="round"/>
<path d="M22.3334 9.74996V13.25C22.3334 16.1666 21.1667 17.3333 18.25 17.3333H17.3334V14.75C17.3334 11.8333 16.1667 10.6666 13.25 10.6666H10.6667V9.74996C10.6667 6.83329 11.8334 5.66663 14.75 5.66663H18.25C21.1667 5.66663 22.3334 6.83329 22.3334 9.74996Z" stroke="#0074CC" stroke-width="1.5" stroke-linecap="round" stroke-linejoin="round"/>
</svg>
