<svg width="56" height="16" viewBox="0 0 56 16" fill="none" xmlns="http://www.w3.org/2000/svg">
<g clip-path="url(#clip0_9845_44071)">
<path d="M12.6648 10.8777C10.1839 13.9664 7.90625 14.9448 7.90625 14.9448C12.0344 14.8489 15.3695 11.6259 15.3695 7.67384C15.3695 7.23259 15.3491 6.77216 15.2678 6.3501C15.2678 6.3501 15.0848 7.8465 12.6648 10.8777Z" fill="#0066B3"/>
<path d="M15.3104 0.211222C14.8223 -0.153287 14.0496 -0.0189941 13.2972 0.268776C12.3007 0.652469 11.3653 1.28556 11.3653 1.28556C10.2875 0.729207 9.04699 0.403068 7.72516 0.403068C3.475 0.422253 0.0585938 3.66446 0.0585938 7.67405C0.0585938 8.80594 0.322958 9.88028 0.811016 10.8395C0.811016 10.8395 -0.368457 8.09611 0.93303 5.56374C2.25485 3.03137 3.86138 3.51098 4.18675 3.66446C4.73581 3.93304 5.38656 4.41266 5.10185 6.31194C4.83749 8.05774 2.9666 10.6477 2.25485 12.6621C2.17351 12.8923 1.2584 15.1177 2.53955 15.8467C3.94272 16.6525 7.31845 14.3887 9.06732 12.6812C10.1044 11.6645 11.833 9.89947 13.2768 7.8659C13.9886 6.84911 14.619 5.77477 15.046 4.70043C15.5748 3.3575 15.8391 2.37909 15.8595 1.66926V1.47741C15.8391 0.882684 15.6561 0.479807 15.3104 0.211222ZM14.1106 3.68364C13.8666 3.33832 13.6022 3.01218 13.2972 2.70523C12.8701 2.26398 12.382 1.88029 11.833 1.55415C11.833 1.55415 12.5651 1.07453 13.2972 0.844315C13.7649 0.710023 14.2529 0.671653 14.5376 0.959423C15.2087 1.66926 14.1106 3.68364 14.1106 3.68364Z" fill="#0066B3"/>
</g>
<g clip-path="url(#clip1_9845_44071)">
<path d="M24.1056 9.19593L21.9024 5.03906H20.2812L23.3573 10.9606H24.8122L27.8052 5.03906H26.2256L24.1056 9.19593Z" fill="#0066B3" stroke="#007DC5" stroke-width="0.216" stroke-miterlimit="22.9256"/>
<path d="M35.7044 8.99985H35.6628L31.8801 5.03906H30.1758V10.9606H31.6307V6.92142H31.6723L35.5797 10.9606H37.1593V5.03906H35.6628L35.7044 8.99985Z" fill="#0066B3" stroke="#007DC5" stroke-width="0.216" stroke-miterlimit="22.9256"/>
<path d="M46.8843 5.6273C46.6765 5.47044 46.4271 5.31357 46.1361 5.19593C45.8451 5.07828 45.471 5.03906 45.0553 5.03906H45.0137H44.2239H40.8984V10.9606H42.478V8.84298H44.2239H45.0137C45.471 8.84298 45.8451 8.80377 46.1361 8.68612C46.4686 8.56847 46.718 8.45083 46.8843 8.25475C47.0922 8.05867 47.2169 7.86259 47.3 7.6273C47.3831 7.392 47.4247 7.15671 47.4247 6.92142C47.4247 6.68612 47.3831 6.45083 47.3 6.21553C47.2169 6.01945 47.0922 5.82338 46.8843 5.6273ZM45.8035 7.392C45.7204 7.50965 45.6373 7.58808 45.5126 7.66651C45.3878 7.74495 45.2216 7.78416 45.0553 7.78416C44.889 7.82338 44.7228 7.82338 44.5149 7.82338H44.1408H42.3949V6.05867H44.1408H44.5149C44.6812 6.05867 44.889 6.05867 45.0553 6.09789C45.2216 6.1371 45.3878 6.17632 45.5126 6.21553C45.6373 6.29396 45.7204 6.3724 45.8035 6.49004C45.8867 6.60769 45.9282 6.76455 45.9282 6.96063C45.9282 7.11749 45.8867 7.27436 45.8035 7.392Z" fill="#0066B3" stroke="#007DC5" stroke-width="0.216" stroke-miterlimit="22.9256"/>
<path d="M49.0469 5.03906V6.29396H51.4994V10.9606H53.079V6.29396H55.6147V5.03906H49.0469Z" fill="#0066B3" stroke="#007DC5" stroke-width="0.216" stroke-miterlimit="22.9256"/>
</g>
<defs>
<clipPath id="clip0_9845_44071">
<rect width="15.8009" height="16" fill="white" transform="translate(0.0585938)"/>
</clipPath>
<clipPath id="clip1_9845_44071">
<rect width="35.458" height="6" fill="white" transform="translate(20.1992 5)"/>
</clipPath>
</defs>
</svg>
