<svg width="205" height="30" viewBox="0 0 205 30" fill="none" xmlns="http://www.w3.org/2000/svg">
<g clip-path="url(#clip0_1966_1295)">
<path d="M65.6422 10.7573C65.3054 10.9858 65.044 11.3096 64.8911 11.6874L61.3818 19.768L57.9167 11.7128C57.7679 11.3239 57.5034 10.9904 57.1592 10.7573C56.8139 10.5383 56.4128 10.424 56.0042 10.4282H53.3722L53.7951 11.39L60.5928 26.3236H62.114L69.4293 10.4535H66.8352C66.416 10.4316 66.0001 10.5375 65.6422 10.7573Z" fill="#00BDF9"/>
<path d="M82.0528 10.9661C81.8855 11.142 81.7546 11.3495 81.668 11.5765C81.5813 11.8036 81.5405 12.0456 81.5479 12.2886V19.5149L72.9323 10.4535H71.1966V26.3236H72.9891C73.2313 26.3336 73.4729 26.2928 73.6985 26.2039C73.924 26.115 74.1286 25.9798 74.2991 25.8071C74.4696 25.6344 74.6022 25.4279 74.6886 25.2009C74.775 24.9738 74.8131 24.7312 74.8006 24.4885V17.2622L83.4098 26.3236H85.1645V10.4535H83.3972C82.8993 10.4405 82.4163 10.6246 82.0528 10.9661Z" fill="#00BDF9"/>
<path d="M95.541 10.4535H88.9958V26.3236H90.7883C91.2742 26.3321 91.7438 26.1479 92.0948 25.8111C92.427 25.452 92.6079 24.9782 92.5998 24.4886V21.736H95.5852C97.2578 21.8203 98.8986 21.2561 100.168 20.1604C100.696 19.6461 101.111 19.0271 101.387 18.3429C101.663 17.6586 101.794 16.9242 101.771 16.1865C101.792 15.4354 101.662 14.6877 101.387 13.9884C101.113 13.2892 100.7 12.6528 100.174 12.1178C98.9089 10.9722 97.2438 10.3741 95.541 10.4535ZM98.173 16.1865C98.1853 16.4913 98.1357 16.7954 98.0272 17.0804C97.9187 17.3654 97.7536 17.6253 97.5419 17.8444C97.2734 18.0874 96.9593 18.2741 96.6179 18.3936C96.2764 18.5132 95.9146 18.5631 95.5537 18.5404H92.6124V13.687H95.4779C95.8489 13.6676 96.22 13.7231 96.5691 13.8502C96.9183 13.9774 97.2384 14.1737 97.5103 14.4274C97.7307 14.6626 97.9026 14.939 98.0163 15.2408C98.13 15.5427 98.1833 15.864 98.173 16.1865Z" fill="#00BDF9"/>
<path d="M103.052 10.9534C102.887 11.1256 102.758 11.329 102.673 11.5517C102.587 11.7744 102.546 12.012 102.553 12.2506V13.687H106.833V26.3426H108.644C108.886 26.3563 109.127 26.3188 109.353 26.2324C109.579 26.146 109.785 26.0127 109.956 25.8412C110.127 25.6698 110.26 25.464 110.346 25.2374C110.432 25.0109 110.469 24.7686 110.456 24.5265V13.687H112.98C113.218 13.695 113.454 13.6539 113.675 13.5663C113.895 13.4788 114.096 13.3466 114.263 13.178C114.431 13.0094 114.562 12.808 114.649 12.5864C114.735 12.3648 114.775 12.1277 114.767 11.8899V10.4535H104.346C103.866 10.4422 103.4 10.6219 103.052 10.9534Z" fill="#00BDF9"/>
<path d="M136.334 21.3943C136.071 21.3921 135.811 21.4529 135.576 21.5714C135.376 21.6814 135.189 21.8152 135.021 21.9701C134.66 22.3648 134.233 22.6926 133.759 22.9382C133.163 23.2004 132.515 23.3237 131.865 23.2989C131.232 23.3202 130.601 23.2033 130.017 22.9564C129.433 22.7095 128.909 22.3384 128.482 21.8689C127.659 20.8951 127.221 19.6521 127.251 18.3759C127.22 17.1029 127.651 15.8618 128.463 14.883C128.879 14.4164 129.392 14.0471 129.965 13.801C130.539 13.555 131.159 13.4383 131.783 13.4592C132.419 13.4515 133.05 13.572 133.639 13.8136C134.158 14.0411 134.627 14.3678 135.021 14.7754C135.19 14.9379 135.379 15.0782 135.583 15.193C135.819 15.33 136.087 15.4021 136.359 15.4019C136.644 15.3972 136.925 15.328 137.18 15.1994L138.859 14.4337L138.474 13.8009C137.823 12.7031 136.898 11.7938 135.791 11.1623C134.549 10.4921 133.156 10.1543 131.745 10.1814C130.657 10.1624 129.577 10.3645 128.569 10.7756C127.561 11.1867 126.647 11.7983 125.882 12.5733C124.395 14.1417 123.582 16.2319 123.616 18.3949C123.58 20.5601 124.394 22.6528 125.882 24.2228C126.647 24.997 127.562 25.6076 128.57 26.0176C129.578 26.4276 130.658 26.6286 131.745 26.6084C133.22 26.6624 134.683 26.3193 135.98 25.6149C137.041 24.9784 137.912 24.0696 138.505 22.9825L138.878 22.3498L137.199 21.5968C136.928 21.4681 136.633 21.3991 136.334 21.3943Z" fill="white"/>
<path d="M150.763 23.09H145.17V12.2506C145.179 12.0122 145.139 11.7745 145.052 11.5525C144.965 11.3304 144.833 11.1288 144.665 10.9601C144.497 10.7914 144.296 10.6594 144.074 10.5722C143.853 10.485 143.616 10.4446 143.378 10.4535H141.547V26.3235H152.58V24.8871C152.589 24.6493 152.549 24.4122 152.462 24.1906C152.376 23.969 152.245 23.7676 152.077 23.5991C151.91 23.4305 151.709 23.2983 151.488 23.2107C151.268 23.1231 151.031 23.0821 150.794 23.09H150.763Z" fill="white"/>
<path d="M161.581 10.1561C160.49 10.1408 159.408 10.3484 158.4 10.7662C157.392 11.1839 156.479 11.8031 155.717 12.5859C154.241 14.1529 153.429 16.2331 153.451 18.3885C153.426 20.5475 154.241 22.6313 155.724 24.1974C157.286 25.7497 159.397 26.6205 161.597 26.6205C163.796 26.6205 165.907 25.7497 167.47 24.1974C168.938 22.6223 169.754 20.5472 169.754 18.3917C169.754 16.2362 168.938 14.161 167.47 12.5859C166.703 11.8027 165.786 11.1835 164.774 10.7658C163.762 10.3481 162.675 10.1407 161.581 10.1561ZM161.581 23.3305C160.972 23.3323 160.371 23.204 159.816 22.9541C159.26 22.7042 158.765 22.3385 158.362 21.8814C157.521 20.9181 157.057 19.6814 157.057 18.4012C157.057 17.1209 157.521 15.8842 158.362 14.9209C158.765 14.463 159.26 14.0963 159.815 13.8454C160.37 13.5944 160.972 13.4649 161.581 13.4655C162.195 13.4661 162.802 13.5966 163.362 13.8484C163.922 14.1003 164.423 14.4679 164.831 14.9272C165.68 15.8868 166.149 17.1249 166.149 18.4075C166.149 19.69 165.68 20.9281 164.831 21.8878C164.421 22.3439 163.92 22.7082 163.36 22.9568C162.8 23.2054 162.193 23.3327 161.581 23.3305Z" fill="white"/>
<path d="M183.508 10.9533C183.341 11.1244 183.21 11.3274 183.124 11.5503C183.037 11.7732 182.996 12.0114 183.003 12.2505V19.7806C183.019 20.3937 182.9 21.0029 182.656 21.565C182.384 22.1596 181.919 22.6439 181.337 22.9381C180.851 23.1767 180.319 23.3042 179.778 23.3115C179.427 23.3102 179.078 23.2569 178.743 23.1533C178.151 22.9804 177.626 22.6291 177.24 22.1472C176.736 21.4605 176.486 20.6193 176.533 19.7679V12.2505C176.54 12.0119 176.5 11.7744 176.414 11.5516C176.329 11.3289 176.2 11.1255 176.035 10.9533C175.694 10.6296 175.242 10.4504 174.772 10.4534H172.942V19.8565C172.911 20.7598 173.062 21.66 173.388 22.5029C173.713 23.3458 174.206 24.1138 174.836 24.7605C176.181 25.9927 177.956 26.645 179.778 26.5766C180.68 26.6104 181.581 26.4646 182.427 26.1474C183.273 25.8303 184.048 25.3482 184.707 24.7289C185.335 24.0823 185.827 23.3152 186.152 22.4736C186.477 21.632 186.63 20.7333 186.601 19.8312V10.4534H184.808C184.569 10.4463 184.331 10.4868 184.108 10.5726C183.885 10.6584 183.681 10.7878 183.508 10.9533Z" fill="white"/>
<path d="M204.053 15.0158C203.535 13.5893 202.546 12.3834 201.25 11.5988C199.874 10.8111 198.309 10.4151 196.725 10.4535H190.413V26.3235H196.775C197.849 26.3344 198.916 26.161 199.931 25.811C201.345 25.3241 202.556 24.3776 203.371 23.1217C204.239 21.6992 204.677 20.0553 204.633 18.3885C204.645 17.2383 204.449 16.0955 204.053 15.0158ZM200.998 18.4075C201.026 19.2573 200.865 20.1027 200.524 20.8817C200.161 21.6806 199.516 22.3163 198.713 22.6661C198.017 22.9712 197.264 23.1243 196.504 23.1154H194.011V13.668H196.504C197.54 13.6454 198.557 13.9534 199.407 14.5476C199.888 14.9124 200.272 15.3906 200.524 15.9397C200.859 16.718 201.021 17.5602 200.998 18.4075Z" fill="white"/>
<path d="M6.31178 23.6722C5.71995 23.0766 5.31717 22.3188 5.15418 21.4942C4.9912 20.6696 5.0753 19.8151 5.39589 19.0383C5.71648 18.2615 6.25922 17.5972 6.95572 17.1291C7.65223 16.661 8.47134 16.4101 9.30986 16.4079H9.58126V12.7378C9.6384 10.746 10.4677 8.8551 11.8932 7.46655C13.3186 6.078 15.2278 5.30124 17.2153 5.30124C19.2028 5.30124 21.112 6.078 22.5375 7.46655C23.9629 8.8551 24.7923 10.746 24.8494 12.7378V18.1227H22.1985L27.3867 23.3178L32.5687 18.1227H29.9177V12.7378C29.8249 9.42994 28.4517 6.28817 26.0889 3.97756C23.726 1.66696 20.559 0.368911 17.2582 0.358221C13.9575 0.34753 10.7822 1.62504 8.40449 3.92029C6.02679 6.21554 4.63338 9.34835 4.51924 12.6555C2.77363 13.7054 1.41965 15.3002 0.664882 17.1955C-0.0898814 19.0909 -0.203767 21.182 0.340685 23.1485C0.885137 25.1149 2.05788 26.8481 3.6791 28.0822C5.30032 29.3164 7.28055 29.9834 9.31617 29.981H27.6644V24.9187H9.31617C8.75791 24.9214 8.20472 24.8125 7.68888 24.5985C7.17305 24.3844 6.7049 24.0696 6.31178 23.6722Z" fill="white"/>
<path d="M39.9597 15.9903C39.9216 13.5407 38.9251 11.2042 37.1848 9.48437C35.4445 7.76452 33.0998 6.79904 30.6562 6.79602H27.1405V11.8582H30.6688C31.7943 11.8599 32.8731 12.3093 33.6684 13.1078C34.4636 13.9063 34.9103 14.9885 34.9103 16.1168V20.9196H38.6974C38.9675 20.9044 39.2378 20.9445 39.4919 21.0376C39.746 21.1307 39.9784 21.2748 40.175 21.4611C40.3717 21.6474 40.5283 21.872 40.6353 22.1211C40.7423 22.3701 40.7975 22.6385 40.7975 22.9097C40.7975 23.1809 40.7423 23.4493 40.6353 23.6984C40.5283 23.9474 40.3717 24.172 40.175 24.3583C39.9784 24.5446 39.746 24.6887 39.4919 24.7818C39.2378 24.8749 38.9675 24.9151 38.6974 24.8998H22.918C21.7925 24.8998 20.713 24.452 19.9165 23.6547C19.1201 22.8574 18.6718 21.7759 18.6702 20.6475V14.1426H21.3211L16.095 8.94747L10.9067 14.1426H13.5576V20.6665C13.561 23.142 14.5438 25.515 16.2904 27.2648C18.0369 29.0146 20.4046 29.9983 22.8738 30H38.6532C40.412 30.0006 42.1075 29.3414 43.4061 28.1522C44.7048 26.963 45.5126 25.3297 45.6709 23.5735C45.8291 21.8173 45.3263 20.0654 44.2612 18.6621C43.1962 17.2588 41.646 16.3057 39.9155 15.9903H39.9597Z" fill="#00BDF9"/>
<path d="M29.924 18.1228V12.7378C29.9207 9.36166 28.5819 6.12465 26.2012 3.73675C23.8205 1.34886 20.5924 0.00502488 17.2248 0L16.9471 0V5.06222H17.2248C19.2482 5.06724 21.1872 5.87573 22.6173 7.31072C24.0475 8.74571 24.8523 10.6903 24.8557 12.7188V18.1038H22.2047L27.393 23.2989L32.575 18.1038L29.924 18.1228Z" fill="white"/>
</g>
<defs>
<clipPath id="clip0_1966_1295">
<rect width="204.828" height="30" fill="white"/>
</clipPath>
</defs>
</svg>
