<?xml version="1.0" encoding="UTF-8"?>
<svg id="Layer_2" data-name="Layer 2" xmlns="http://www.w3.org/2000/svg" viewBox="0 0 653.49 84">
  <defs>
    <style>
      .cls-1 {
        fill: #0066b0;
      }

      .cls-2 {
        fill: #fff;
      }
    </style>
  </defs>
  <g id="Layer_2-2" data-name="Layer 2">
    <g id="Obj_Text" data-name="Obj Text">
      <g>
        <path class="cls-2" d="m72,42v-9c0-1.55-.17-3.11-.51-4.62-2.13-9.49-10.75-16.38-20.49-16.38-11.58,0-21,9.42-21,21v15h-6c-6.62,0-12,5.38-12,12s5.38,12,12,12h24.23c.79,1.38,1.72,2.67,2.77,3.85,4.4,4.99,10.84,8.15,18,8.15H24c-13.23,0-24-10.77-24-24,0-11.16,7.66-20.57,18-23.24v-3.76C18,14.8,32.8,0,51,0c12.85,0,24.44,7.62,29.82,18.89,1.03,2.16,1.83,4.46,2.37,6.86.36,1.56.59,3.15.72,4.75.06.83.09,1.67.09,2.5v9h7.5l-13.5,18-13.5-18h7.5Z"/>
        <path class="cls-1" d="m129,59.99c0,13.23-10.77,24-24,24h-36c-7.16,0-13.6-3.16-18-8.15-1.05-1.18-1.98-2.47-2.77-3.85-2.06-3.53-3.23-7.63-3.23-12v-18h-7.5l13.5-18,13.5,18h-7.5v18c0,6.62,5.38,12,12,12h36c6.62,0,12-5.38,12-12s-5.38-12-12-12h-6v-6c0-6.62-5.28-12-11.76-12-1.14,0-2.25.17-3.33.5-.13-1.6-.36-3.19-.72-4.75-.54-2.4-1.34-4.7-2.37-6.86,2.08-.58,4.23-.89,6.42-.89,11.27,0,20.73,7.96,23.16,18.61,10.64,2.46,18.6,12.01,18.6,23.39Z"/>
        <path class="cls-1" d="m212.76,12.15l-27.46,59.84h-4.91l-26.22-57.3-1.16-2.54h9.04c1.5,0,2.9.39,4.04,1.14,1.14.74,2.07,1.87,2.65,3.25l13.42,31.17.71,1.62.71-1.62,13.69-31.16-.35-.15.35.14h0c.59-1.38,1.49-2.5,2.63-3.25,1.13-.74,2.51-1.14,3.98-1.14h8.89-.02.01Z"/>
        <path class="cls-1" d="m274.32,12.15v59.84h-5.7l-33.16-34.81-1.33-1.39v29.88c0,1.8-.62,3.42-1.75,4.56-1.09,1.12-2.72,1.76-4.51,1.76h-6.16V12.15h5.63l33.23,34.82,1.34,1.39v-29.89c-.01-1.78.63-3.44,1.76-4.56,1.12-1.13,2.72-1.76,4.52-1.76,0,0,6.13,0,6.13,0Z"/>
        <path class="cls-1" d="m332.75,18.37c-4.15-4.07-10.15-6.22-17.35-6.22h-24.67v59.84h6.16c1.79,0,3.41-.64,4.51-1.76,1.13-1.14,1.75-2.76,1.74-4.56v-11.44h12.35c7.21,0,13.16-2.03,17.25-5.88,3.87-3.62,6-8.88,5.98-14.82.01-6.01-2.11-11.39-5.97-15.18,0,0,0,.02,0,.02Zm-9.18,22.15c-1.96,1.92-4.74,2.9-8.23,2.92h-12.21v-20.32h11.89c3.56.01,6.39,1.06,8.44,3.09,1.85,1.88,2.84,4.42,2.85,7.34-.01,2.82-.96,5.23-2.73,6.98h-.01Z"/>
        <path class="cls-1" d="m389.06,12.15v4.8c.01,1.71-.63,3.33-1.74,4.43-1.09,1.1-2.69,1.74-4.44,1.74h-10.58v42.71c.02,1.75-.62,3.37-1.74,4.47-1.11,1.09-2.66,1.7-4.43,1.7h-6.25V23.11h-16.6v-4.8c-.01-1.77.6-3.35,1.71-4.46,1.09-1.1,2.66-1.71,4.42-1.71h39.65,0Z"/>
        <g>
          <path class="cls-2" d="m458.34,57.78l-1,1.72c-2.58,4.45-5.68,7.7-9.49,9.9-4.33,2.52-9.56,3.74-16,3.74h-.07c-8.66,0-16.53-3.2-22.16-9-5.53-5.69-8.57-13.5-8.56-22-.01-8.49,3.03-16.3,8.56-21.98,5.63-5.82,13.5-9.01,22.16-9.01h.06c5.77,0,10.91,1.24,15.28,3.7,4.09,2.29,7.5,5.62,10.12,9.91l1.04,1.69-5.77,2.78c-.98.47-1.93.71-2.87.71-1.12,0-2.04-.38-2.63-.71-.79-.44-1.44-.99-2.02-1.52l-.06-.06c-1.72-1.71-3.55-2.98-5.62-3.86-2.27-.97-4.72-1.45-7.49-1.45-5.53.02-10.06,1.96-13.44,5.78-3.15,3.58-4.9,8.56-4.9,14.02s1.77,10.44,4.96,14.01c3.43,3.82,8.05,5.76,13.7,5.78,3.02,0,5.42-.47,7.56-1.47,1.79-.83,3.35-2,5.22-3.91l.07-.07c.49-.43,1.15-1,1.99-1.42.55-.29,1.45-.63,2.58-.63.97,0,1.97.25,3.06.74l5.72,2.59v.02h0Z"/>
          <path class="cls-2" d="m490.41,69.82l-.95.64c-.34.22-3.42,2.14-8.38,2.15-2.5,0-4.64-.5-6.38-1.49-1.76-.99-3.11-2.57-3.83-4.46-.48-1.23-.72-2.62-.72-4.14V12h5.87v-.38h.02v.38c1.56,0,3.06.61,4.11,1.66,1.06,1.05,1.65,2.55,1.65,4.13v42.03c0,.58.01,1.01.05,1.3,0,.07.01.11.02.18l.09.63.64.03h.25c.39.01.71-.04,1.35-.2l.07-.02h.07c.29-.06.57-.08.88-.08.61,0,1.78.12,2.82.98.84.67,1.45,1.71,1.72,2.94v.03l.66,4.2h-.01,0Z"/>
          <path class="cls-2" d="m536.56,34.11c-4.17-4.24-10-6.59-16.41-6.59v-.38h-.02v.38c-6.45,0-12.26,2.34-16.41,6.59-4.07,4.15-6.3,9.81-6.3,15.96s2.23,11.88,6.29,16.05c4.16,4.28,9.97,6.65,16.37,6.65h.08c6.4,0,12.23-2.36,16.4-6.64,4.09-4.18,6.34-9.88,6.33-16.06.01-6.13-2.24-11.81-6.33-15.96h0Zm-8.3,24.48c-.93,1.03-2.03,1.8-3.35,2.34-1.41.58-3.01.86-4.79.86s-3.38-.29-4.78-.86c-1.98-.82-3.47-2.14-4.55-4-1.07-1.86-1.63-4.24-1.63-6.87,0-3.49.98-6.4,2.83-8.41.92-1.02,2.02-1.77,3.35-2.31,1.4-.57,3.01-.85,4.79-.85s3.39.29,4.79.85c1.98.81,3.47,2.11,4.55,3.95,1.07,1.84,1.62,4.18,1.62,6.78,0,3.53-.98,6.48-2.83,8.53h0Z"/>
          <path class="cls-2" d="m596.92,28.29v43.7h-5.74c-1.6,0-3.13-.63-4.21-1.73-.38-.38-.71-.85-1.02-1.47l-.41-.82-.74.55c-.96.73-1.79,1.28-2.62,1.75-2.91,1.59-6.09,2.4-9.49,2.4h-.06c-4.87,0-9.22-1.81-12.24-5.1-3.08-3.35-4.71-8.02-4.71-13.52v-25.77h5.65c1.6,0,3.15.62,4.25,1.71,1.12,1.1,1.76,2.67,1.75,4.32v18.21c0,2.32.42,4.24,1.25,5.71.78,1.38,1.84,2.3,3.31,2.89,1.03.4,2.22.61,3.57.61,2.94-.02,5.34-.95,7.14-2.76,1.74-1.78,2.66-4.21,2.67-7.06v-17.6c-.01-1.63.61-3.2,1.7-4.28,1.07-1.1,2.61-1.73,4.21-1.73h5.74,0Z"/>
          <path class="cls-2" d="m647.6,12c-1.56,0-3.06.61-4.11,1.65-1.06,1.06-1.66,2.57-1.65,4.13v13.84l-1.21-.84c-.62-.43-1.25-.81-1.89-1.15-2.66-1.4-5.64-2.11-8.85-2.11-5.49,0-10.54,2.2-14.26,6.2-3.87,4.14-6,9.97-5.99,16.42-.01,6.51,2.04,12.34,5.77,16.41,3.65,4.01,8.76,6.22,14.41,6.22h.05c3.22,0,6.21-.74,8.88-2.21.84-.46,1.67-1.03,2.63-1.79l.73-.59.43.82c.3.55.61,1,.95,1.33,1.05,1.06,2.55,1.66,4.11,1.66h5.89V12h-5.89,0Zm-8.26,46.57c-1.86,2.15-4.24,3.21-7.32,3.23h-.01c-3.11-.01-5.68-1.11-7.64-3.27-1.89-2.1-2.93-5.04-2.93-8.31s1.05-6.37,2.93-8.48c1.95-2.15,4.52-3.25,7.64-3.26,1.55,0,2.97.29,4.22.86,1.8.82,3.23,2.18,4.24,4.04,1.04,1.89,1.58,4.25,1.58,6.83,0,3.32-.97,6.29-2.72,8.35h.01Z"/>
        </g>
      </g>
    </g>
  </g>
</svg>