<svg width="24" height="24" viewBox="0 0 24 24" fill="none" xmlns="http://www.w3.org/2000/svg">
<path d="M14.9983 17C14.9862 19.175 14.8897 20.3529 14.1214 21.1213C13.2426 22 11.8284 22 9.00004 22L8.00004 22C5.17164 22 3.75734 22 2.87874 21.1213C2.00004 20.2426 2.00004 18.8284 2.00004 16L2.00004 8C2.00004 5.1716 2.00004 3.7574 2.87874 2.8787C3.75734 2 5.17164 2 8.00004 2L9.00004 2C11.8284 2 13.2426 2 14.1214 2.8787C14.8897 3.6471 14.9862 4.825 14.9983 7" stroke="#555555" stroke-linecap="round"/>
<path d="M9.00025 12L22.0002 12M22.0002 12L18.5002 15M22.0002 12L18.5002 9" stroke="#555555" stroke-linecap="round" stroke-linejoin="round"/>
</svg>
