<svg width="21" height="20" viewBox="0 0 21 20" fill="none" xmlns="http://www.w3.org/2000/svg">
<path d="M10.5 2.5C9.58331 2.5 8.83331 3.25 8.83331 4.16667C8.83331 5.08333 9.58331 5.83333 10.5 5.83333C11.4166 5.83333 12.1666 5.08333 12.1666 4.16667C12.1666 3.25 11.4166 2.5 10.5 2.5Z" fill="#0066B3"/>
<path d="M10.5 14.1665C9.58331 14.1665 8.83331 14.9165 8.83331 15.8332C8.83331 16.7498 9.58331 17.4998 10.5 17.4998C11.4166 17.4998 12.1666 16.7498 12.1666 15.8332C12.1666 14.9165 11.4166 14.1665 10.5 14.1665Z" fill="#0066B3"/>
<path d="M10.5 8.3335C9.58331 8.3335 8.83331 9.0835 8.83331 10.0002C8.83331 10.9168 9.58331 11.6668 10.5 11.6668C11.4166 11.6668 12.1666 10.9168 12.1666 10.0002C12.1666 9.0835 11.4166 8.3335 10.5 8.3335Z" fill="#0066B3"/>
</svg>
