<svg width="21" height="20" viewBox="0 0 21 20" fill="none" xmlns="http://www.w3.org/2000/svg">
<path d="M10.4284 2.5C9.51172 2.5 8.76172 3.25 8.76172 4.16667C8.76172 5.08333 9.51172 5.83333 10.4284 5.83333C11.3451 5.83333 12.0951 5.08333 12.0951 4.16667C12.0951 3.25 11.3451 2.5 10.4284 2.5Z" fill="#0066B3"/>
<path d="M10.4284 14.166C9.51172 14.166 8.76172 14.916 8.76172 15.8327C8.76172 16.7493 9.51172 17.4993 10.4284 17.4993C11.3451 17.4993 12.0951 16.7493 12.0951 15.8327C12.0951 14.916 11.3451 14.166 10.4284 14.166Z" fill="#0066B3"/>
<path d="M10.4284 8.33398C9.51172 8.33398 8.76172 9.08398 8.76172 10.0007C8.76172 10.9173 9.51172 11.6673 10.4284 11.6673C11.3451 11.6673 12.0951 10.9173 12.0951 10.0007C12.0951 9.08398 11.3451 8.33398 10.4284 8.33398Z" fill="#0066B3"/>
</svg>
