<svg width="24" height="24" viewBox="0 0 24 24" fill="none" xmlns="http://www.w3.org/2000/svg">
<path d="M11.9707 22C17.4936 22 21.9707 17.5228 21.9707 12C21.9707 6.47715 17.4936 2 11.9707 2C6.44786 2 1.9707 6.47715 1.9707 12C1.9707 17.5228 6.44786 22 11.9707 22Z" stroke="#0066B0" stroke-width="1.5" stroke-linecap="round" stroke-linejoin="round"/>
<path d="M10.72 14.53V9.47005C10.72 8.99005 10.52 8.80005 10.01 8.80005H8.71C8.2 8.80005 8 8.99005 8 9.47005V14.53C8 15.01 8.2 15.2 8.71 15.2H10C10.52 15.2 10.72 15.01 10.72 14.53Z" stroke="#0066B0" stroke-width="1.5" stroke-linecap="round" stroke-linejoin="round"/>
<path d="M15.9991 14.53V9.47005C15.9991 8.99005 15.7991 8.80005 15.2891 8.80005H13.9991C13.4891 8.80005 13.2891 8.99005 13.2891 9.47005V14.53C13.2891 15.01 13.4891 15.2 13.9991 15.2H15.2891C15.7991 15.2 15.9991 15.01 15.9991 14.53Z" stroke="#0066B0" stroke-width="1.5" stroke-linecap="round" stroke-linejoin="round"/>
</svg>
