<svg width="24" height="24" viewBox="0 0 24 24" fill="none" xmlns="http://www.w3.org/2000/svg">
<path d="M15 1.875C13.8557 1.87473 12.7282 2.15007 11.7129 2.67771C10.6975 3.20535 9.8242 3.96978 9.16676 4.90632C8.50932 5.84287 8.08711 6.92398 7.93586 8.05821C7.78461 9.19243 7.90876 10.3464 8.29781 11.4225L2.73469 16.9847C2.69987 17.0195 2.67227 17.0609 2.65345 17.1064C2.63463 17.152 2.62496 17.2007 2.625 17.25V21C2.625 21.0995 2.66451 21.1948 2.73484 21.2652C2.80516 21.3355 2.90054 21.375 3 21.375H6.75C6.84946 21.375 6.94484 21.3355 7.01517 21.2652C7.08549 21.1948 7.125 21.0995 7.125 21V19.125H9C9.09946 19.125 9.19484 19.0855 9.26517 19.0152C9.33549 18.9448 9.375 18.8495 9.375 18.75V16.875H11.25C11.2993 16.875 11.348 16.8654 11.3936 16.8466C11.4391 16.8277 11.4805 16.8001 11.5153 16.7653L12.5775 15.7022C13.5552 16.0549 14.5982 16.1894 15.6334 16.0964C16.6686 16.0033 17.6709 15.6849 18.57 15.1634C19.4691 14.642 20.2433 13.9301 20.8381 13.0778C21.433 12.2255 21.8342 11.2533 22.0135 10.2296C22.1929 9.20578 22.1461 8.15515 21.8764 7.15137C21.6067 6.14759 21.1207 5.21496 20.4524 4.41891C19.7842 3.62285 18.9498 2.98264 18.0079 2.54319C17.066 2.10373 16.0394 1.87567 15 1.875ZM15 15.375C14.1905 15.3766 13.3882 15.2229 12.6366 14.9222C12.5673 14.8915 12.4904 14.8825 12.4159 14.8964C12.3414 14.9103 12.2729 14.9464 12.2194 15L11.0944 16.125H9C8.90054 16.125 8.80516 16.1645 8.73483 16.2348C8.66451 16.3052 8.625 16.4005 8.625 16.5V18.375H6.75C6.65054 18.375 6.55516 18.4145 6.48483 18.4848C6.41451 18.5552 6.375 18.6505 6.375 18.75V20.625H3.375V17.4056L9 11.7806C9.05359 11.7271 9.08971 11.6586 9.1036 11.5841C9.11749 11.5096 9.1085 11.4327 9.07781 11.3634C8.5721 10.0966 8.48608 8.70088 8.8324 7.38149C9.17872 6.0621 9.93911 4.88858 11.0018 4.0334C12.0646 3.17821 13.3736 2.68645 14.7365 2.63039C16.0994 2.57432 17.4444 2.95691 18.5738 3.72192C19.7032 4.48693 20.5574 5.59403 21.0109 6.88051C21.4644 8.167 21.4933 9.56503 21.0933 10.8692C20.6934 12.1733 19.8857 13.3148 18.7889 14.1258C17.6921 14.9368 16.3641 15.3747 15 15.375ZM17.625 7.125C17.625 7.27334 17.581 7.41834 17.4986 7.54168C17.4162 7.66502 17.2991 7.76114 17.162 7.81791C17.025 7.87468 16.8742 7.88953 16.7287 7.86059C16.5832 7.83165 16.4496 7.76022 16.3447 7.65533C16.2398 7.55044 16.1684 7.4168 16.1394 7.27132C16.1105 7.12583 16.1253 6.97503 16.1821 6.83799C16.2389 6.70094 16.335 6.58381 16.4583 6.5014C16.5817 6.41899 16.7267 6.375 16.875 6.375C17.0739 6.375 17.2647 6.45402 17.4053 6.59467C17.546 6.73532 17.625 6.92609 17.625 7.125Z" fill="#989BB3"/>
</svg>
