<svg width="24" height="24" viewBox="0 0 24 24" fill="none" xmlns="http://www.w3.org/2000/svg">
<path d="M22.3124 8.26688C22.277 9.52502 21.7602 10.7216 20.8686 11.61L17.6108 14.8678C17.1535 15.3275 16.6096 15.6919 16.0104 15.9399C15.4113 16.1879 14.7689 16.3145 14.1205 16.3125H14.1158C13.4566 16.312 12.8041 16.1794 12.197 15.9225C11.5899 15.6657 11.0403 15.2897 10.5809 14.817C10.1215 14.3442 9.7615 13.7841 9.52215 13.1698C9.2828 12.5556 9.16897 11.8996 9.18738 11.2406C9.19129 11.0941 9.25228 10.9548 9.35734 10.8525C9.46241 10.7503 9.60326 10.6931 9.74988 10.6931H9.76582C9.91486 10.6973 10.0561 10.7605 10.1586 10.8688C10.2611 10.977 10.3164 11.1216 10.3124 11.2706C10.2978 11.7795 10.3855 12.2861 10.5701 12.7605C10.7547 13.2349 11.0326 13.6674 11.3873 14.0326C11.7419 14.3978 12.1662 14.6881 12.635 14.8865C13.1039 15.0849 13.6077 15.1872 14.1168 15.1875C14.6171 15.1887 15.1128 15.0907 15.5751 14.8992C16.0374 14.7077 16.4572 14.4265 16.8102 14.0719L20.068 10.815C20.7561 10.0957 21.1352 9.13561 21.1243 8.14026C21.1134 7.14491 20.7133 6.19338 20.0096 5.48933C19.3059 4.78529 18.3546 4.38467 17.3592 4.37323C16.3639 4.36179 15.4036 4.74044 14.6839 5.42813L13.6527 6.45938C13.5471 6.56492 13.404 6.62422 13.2547 6.62422C13.1055 6.62422 12.9623 6.56492 12.8568 6.45938C12.7512 6.35383 12.6919 6.21067 12.6919 6.06141C12.6919 5.91214 12.7512 5.76899 12.8568 5.66344L13.888 4.63219C14.3461 4.17391 14.89 3.81037 15.4887 3.56234C16.0873 3.31431 16.7289 3.18665 17.3769 3.18665C18.0249 3.18665 18.6665 3.31431 19.2652 3.56234C19.8638 3.81037 20.4077 4.17391 20.8658 4.63219C21.3411 5.10807 21.7145 5.67577 21.9632 6.30066C22.2119 6.92556 22.3307 7.59456 22.3124 8.26688ZM10.348 17.5388L9.31676 18.57C8.96348 18.9257 8.54304 19.2077 8.07985 19.3995C7.61666 19.5914 7.11997 19.6893 6.61863 19.6875C5.8655 19.687 5.12944 19.4632 4.50346 19.0444C3.87749 18.6256 3.3897 18.0307 3.10175 17.3348C2.81379 16.6389 2.7386 15.8733 2.88566 15.1346C3.03273 14.396 3.39546 13.7175 3.92801 13.185L7.18301 9.92813C7.72196 9.38777 8.41081 9.02177 9.16025 8.87758C9.9097 8.73338 10.6852 8.81765 11.3862 9.11944C12.0871 9.42123 12.6813 9.92664 13.0916 10.5701C13.5019 11.2136 13.7095 11.9656 13.6874 12.7284C13.6833 12.8775 13.7386 13.022 13.8411 13.1303C13.9436 13.2386 14.0849 13.3018 14.2339 13.3059H14.2499C14.3965 13.306 14.5373 13.2488 14.6424 13.1465C14.7475 13.0443 14.8085 12.905 14.8124 12.7584C14.8404 11.7707 14.5711 10.7972 14.0395 9.96422C13.5079 9.13122 12.7384 8.47705 11.8307 8.08643C10.923 7.69581 9.91889 7.58675 8.94849 7.77337C7.97809 7.95999 7.08608 8.4337 6.38801 9.13313L3.12926 12.39C2.43957 13.0799 1.96986 13.9587 1.77947 14.9154C1.58907 15.8721 1.68654 16.8638 2.05956 17.7652C2.43259 18.6665 3.06442 19.4371 3.87521 19.9795C4.68601 20.5219 5.63939 20.8118 6.61488 20.8125C7.26322 20.8144 7.9055 20.6876 8.50447 20.4395C9.10345 20.1913 9.64722 19.8267 10.1043 19.3669L11.1355 18.3356C11.1884 18.2835 11.2305 18.2215 11.2593 18.153C11.288 18.0846 11.303 18.0111 11.3033 17.9368C11.3035 17.8626 11.2891 17.789 11.2608 17.7204C11.2324 17.6517 11.1908 17.5894 11.1383 17.5369C11.0857 17.4844 11.0233 17.4429 10.9547 17.4146C10.886 17.3864 10.8124 17.3721 10.7381 17.3724C10.6639 17.3727 10.5904 17.3878 10.522 17.4167C10.4536 17.4455 10.3916 17.4877 10.3396 17.5406L10.348 17.5388Z" fill="#0066B3"/>
</svg>
