<svg width="30" height="30" viewBox="0 0 52 52" fill="none" xmlns="http://www.w3.org/2000/svg">
<circle cx="26" cy="26" r="26" fill="#0066B3"/>
<path d="M21.1877 14.3086H29.8127C30.4068 14.3086 30.9339 14.3318 31.4035 14.4129C33.9239 14.749 34.6043 16.186 34.6043 20.1032V27.0567C34.6043 30.9738 33.9239 32.4108 31.4035 32.7469C30.9339 32.8281 30.4068 32.8512 29.8127 32.8512H21.1877C20.5935 32.8512 20.0664 32.8281 19.5968 32.7469C17.0764 32.4108 16.396 30.9738 16.396 27.0567V20.1032C16.396 16.186 17.0764 14.749 19.5968 14.4129C20.0664 14.3318 20.5935 14.3086 21.1877 14.3086Z" stroke="white" stroke-width="1.5" stroke-linecap="round" stroke-linejoin="round"/>
<path d="M26.9375 21.2637H30.2917" stroke="white" stroke-width="1.5" stroke-linecap="round" stroke-linejoin="round"/>
<path d="M20.7085 27.6367H20.7277H30.2918" stroke="white" stroke-width="1.5" stroke-linecap="round" stroke-linejoin="round"/>
<path d="M23.6741 21.2631H23.6827" stroke="white" stroke-width="2" stroke-linecap="round" stroke-linejoin="round"/>
<path d="M20.7991 21.2631H20.8077" stroke="white" stroke-width="2" stroke-linecap="round" stroke-linejoin="round"/>
</svg>
