<svg width="30" height="30" viewBox="0 0 52 52" fill="none" xmlns="http://www.w3.org/2000/svg">
<circle cx="26" cy="26" r="26" fill="#0066B3"/>
<path d="M22.6248 36.0827H28.3748C33.1665 36.0827 35.0832 34.166 35.0832 29.3743V23.6243C35.0832 18.8327 33.1665 16.916 28.3748 16.916H22.6248C17.8332 16.916 15.9165 18.8327 15.9165 23.6243V29.3743C15.9165 34.166 17.8332 36.0827 22.6248 36.0827Z" stroke="white" stroke-width="1.5" stroke-linecap="round" stroke-linejoin="round"/>
<path d="M28.854 24.3438C29.6479 24.3438 30.2915 23.7002 30.2915 22.9062C30.2915 22.1123 29.6479 21.4688 28.854 21.4688C28.0601 21.4688 27.4165 22.1123 27.4165 22.9062C27.4165 23.7002 28.0601 24.3438 28.854 24.3438Z" stroke="white" stroke-width="1.5" stroke-miterlimit="10" stroke-linecap="round" stroke-linejoin="round"/>
<path d="M22.146 24.3438C22.9399 24.3438 23.5835 23.7002 23.5835 22.9062C23.5835 22.1123 22.9399 21.4688 22.146 21.4688C21.3521 21.4688 20.7085 22.1123 20.7085 22.9062C20.7085 23.7002 21.3521 24.3438 22.146 24.3438Z" stroke="white" stroke-width="1.5" stroke-miterlimit="10" stroke-linecap="round" stroke-linejoin="round"/>
<path d="M22.05 27.7461H28.95C29.4292 27.7461 29.8125 28.1294 29.8125 28.6086C29.8125 30.9948 27.8862 32.9211 25.5 32.9211C23.1137 32.9211 21.1875 30.9948 21.1875 28.6086C21.1875 28.1294 21.5708 27.7461 22.05 27.7461Z" stroke="white" stroke-width="1.5" stroke-miterlimit="10" stroke-linecap="round" stroke-linejoin="round"/>
</svg>
