<svg width="14" height="14" viewBox="0 0 14 14" fill="none" xmlns="http://www.w3.org/2000/svg">
<path d="M7.077 14C5.123 14 3.46766 13.3223 2.111 11.967C0.754996 10.611 0.0769958 8.95633 0.0769958 7.003C0.0769958 5.04967 0.754996 3.39433 2.111 2.037C3.46766 0.679 5.123 0 7.077 0C8.26566 0 9.37833 0.282333 10.415 0.847C11.4523 1.41167 12.2883 2.2 12.923 3.212V0H13.923V5.23H8.693V4.23H12.393C11.8723 3.23333 11.1397 2.44567 10.195 1.867C9.25166 1.289 8.21233 1 7.077 1C5.41033 1 3.99366 1.58333 2.827 2.75C1.66033 3.91667 1.077 5.33333 1.077 7C1.077 8.66667 1.66033 10.0833 2.827 11.25C3.99366 12.4167 5.41033 13 7.077 13C8.36033 13 9.51866 12.6333 10.552 11.9C11.5853 11.1667 12.3103 10.2 12.727 9H13.788C13.3473 10.4973 12.5097 11.705 11.275 12.623C10.0403 13.541 8.641 14 7.077 14Z" fill="white"/>
</svg>
