<svg width="24" height="24" viewBox="0 0 24 24" fill="none" xmlns="http://www.w3.org/2000/svg">
<path d="M2.5 12C2.5 12.2761 2.72386 12.5 3 12.5C3.27614 12.5 3.5 12.2761 3.5 12H2.5ZM3.5 12C3.5 7.30558 7.30558 3.5 12 3.5V2.5C6.75329 2.5 2.5 6.75329 2.5 12H3.5ZM12 3.5C15.3367 3.5 18.2252 5.4225 19.6167 8.22252L20.5122 7.77748C18.9583 4.65062 15.7308 2.5 12 2.5V3.5Z" fill="#0074CC"/>
<path d="M20.4716 2.42139V8.07825H14.8147" stroke="#0074CC" stroke-linecap="round" stroke-linejoin="round"/>
<path d="M21.5 12C21.5 11.7239 21.2761 11.5 21 11.5C20.7239 11.5 20.5 11.7239 20.5 12H21.5ZM20.5 12C20.5 16.6944 16.6944 20.5 12 20.5V21.5C17.2467 21.5 21.5 17.2467 21.5 12H20.5ZM12 20.5C8.6633 20.5 5.77474 18.5775 4.38325 15.7775L3.48773 16.2225C5.04165 19.3494 8.2692 21.5 12 21.5V20.5Z" fill="#0074CC"/>
<path d="M3.52844 21.5782V15.9214H9.18529" stroke="#0074CC" stroke-linecap="round" stroke-linejoin="round"/>
</svg>
