<svg width="24" height="24" viewBox="0 0 24 24" fill="none" xmlns="http://www.w3.org/2000/svg">
<path d="M17.8425 14.1977C16.2975 15.7352 14.085 16.2077 12.1425 15.6002L8.61 19.1252C8.355 19.3877 7.8525 19.5452 7.4925 19.4927L5.8575 19.2677C5.3175 19.1927 4.815 18.6827 4.7325 18.1427L4.5075 16.5077C4.455 16.1477 4.6275 15.6452 4.875 15.3902L8.4 11.8652C7.8 9.91523 8.265 7.70273 9.81 6.16523C12.0225 3.95273 15.615 3.95273 17.835 6.16523C20.055 8.37773 20.055 11.9852 17.8425 14.1977Z" stroke="#555555" stroke-width="1.5" stroke-miterlimit="10" stroke-linecap="round" stroke-linejoin="round"/>
<path d="M8.1675 16.1172L9.8925 17.8422" stroke="#555555" stroke-width="1.5" stroke-miterlimit="10" stroke-linecap="round" stroke-linejoin="round"/>
<path d="M13.875 11.25C14.4963 11.25 15 10.7463 15 10.125C15 9.50368 14.4963 9 13.875 9C13.2537 9 12.75 9.50368 12.75 10.125C12.75 10.7463 13.2537 11.25 13.875 11.25Z" stroke="#555555" stroke-width="1.5" stroke-linecap="round" stroke-linejoin="round"/>
</svg>
