<svg width="24" height="24" viewBox="0 0 24 24" fill="none" xmlns="http://www.w3.org/2000/svg">
<path d="M13.1651 21C10.9072 21 8.99432 20.2255 7.4266 18.6766C5.85965 17.1269 5.07617 15.2358 5.07617 13.0034C5.07617 10.771 5.85965 8.87924 7.4266 7.328C8.99355 5.77676 10.9064 5.00076 13.1651 5C14.5387 5 15.8249 5.32267 17.0236 5.968C18.2215 6.61333 19.1872 7.51429 19.9206 8.67086V5H21.0762V10.9771H15.0325V9.83429H19.3082C18.7057 8.69524 17.8591 7.79505 16.7682 7.13371C15.6774 6.47238 14.4763 6.1421 13.1651 6.14286C11.2392 6.14286 9.60215 6.80952 8.25398 8.14286C6.90582 9.47619 6.23174 11.0952 6.23174 13C6.23174 14.9048 6.90582 16.5238 8.25398 17.8571C9.60215 19.1905 11.2392 19.8571 13.1651 19.8571C14.6481 19.8571 15.9867 19.4381 17.1808 18.6C18.3748 17.7619 19.2126 16.6571 19.6941 15.2857H20.9213C20.4113 16.997 19.443 18.3771 18.0162 19.4263C16.5895 20.4754 14.9725 21 13.1651 21Z" fill="white"/>
</svg>
