<svg width="44" height="45" viewBox="0 0 44 45" fill="none" xmlns="http://www.w3.org/2000/svg">
<path d="M5.33329 11.5001C5.70148 11.5001 5.99996 11.2016 5.99996 10.8334C5.99996 10.4652 5.70148 10.1667 5.33329 10.1667C4.9651 10.1667 4.66663 10.4652 4.66663 10.8334C4.66663 11.2016 4.9651 11.5001 5.33329 11.5001Z" fill="#0066B3"/>
<path d="M5.33329 34.1666C5.70148 34.1666 5.99996 33.8681 5.99996 33.4999C5.99996 33.1317 5.70148 32.8333 5.33329 32.8333C4.9651 32.8333 4.66663 33.1317 4.66663 33.4999C4.66663 33.8681 4.9651 34.1666 5.33329 34.1666Z" fill="#0066B3"/>
<path d="M38.6667 11.5001C39.0349 11.5001 39.3333 11.2016 39.3333 10.8334C39.3333 10.4652 39.0349 10.1667 38.6667 10.1667C38.2985 10.1667 38 10.4652 38 10.8334C38 11.2016 38.2985 11.5001 38.6667 11.5001Z" fill="#0066B3"/>
<path d="M38.6667 34.1666C39.0349 34.1666 39.3333 33.8681 39.3333 33.4999C39.3333 33.1317 39.0349 32.8333 38.6667 32.8333C38.2985 32.8333 38 33.1317 38 33.4999C38 33.8681 38.2985 34.1666 38.6667 34.1666Z" fill="#0066B3"/>
<path d="M32.1834 25.3753C31.3207 23.4106 28.3801 22.8653 25.4874 24.1373C24.1587 24.7213 23.0474 25.6086 22.3594 26.6366C21.6094 27.7566 21.4354 28.9179 21.8701 29.9066C22.3047 30.8953 23.2774 31.5526 24.6094 31.7579C24.8961 31.8013 25.1927 31.8239 25.4961 31.8239C26.4861 31.8239 27.5487 31.5913 28.5654 31.1439C31.4581 29.8746 33.0467 27.3399 32.1834 25.3753ZM28.0294 29.9239C26.9307 30.4073 25.7881 30.5926 24.8127 30.4399C23.9467 30.3073 23.3354 29.9266 23.0907 29.3706C22.8467 28.8139 22.9801 28.1066 23.4667 27.3786C24.0161 26.5593 24.9241 25.8419 26.0241 25.3586C26.8947 24.9766 27.7867 24.7919 28.5741 24.7919C29.7174 24.7919 30.6414 25.1799 30.9634 25.9126C31.5067 27.1493 30.1627 28.9859 28.0294 29.9239Z" fill="#0066B3"/>
<path d="M39.9407 7.5H24.6667H4.05933C2.924 7.5 2 8.424 2 9.55933V24.8333V34.774C2 35.9093 2.924 36.8333 4.05933 36.8333H39.9407C41.076 36.8333 42 35.9093 42 34.774V31.5V14.1667V9.55933C42 8.424 41.076 7.5 39.9407 7.5ZM3.33333 9.55933C3.33333 9.15867 3.65867 8.83333 4.05933 8.83333H23.3193C22.9687 16.98 16.2313 23.5 8 23.5H3.33333V9.55933ZM40.6667 16.1667H38.6667V17.5H40.6667V18.1667H38.6667V19.5H40.6667V20.1667H38.6667V21.5H40.6667V22.1667H38.6667V23.5H40.6667V26.1667H38.6667V27.5H40.6667V28.1667H39.3333V29.5H40.6667V30.1667H39.0233L38 28.6313V15.5H40.6667V16.1667ZM40.6667 14.1667H36.6667V29.0353L38.31 31.5H40.6667V34.774C40.6667 35.1747 40.3413 35.5 39.9407 35.5H4.05933C3.65867 35.5 3.33333 35.1747 3.33333 34.774V24.8333H8C16.9667 24.8333 24.298 17.7153 24.65 8.83333H39.9413C40.3413 8.83333 40.6667 9.15867 40.6667 9.55933V14.1667Z" fill="#0066B3"/>
<path d="M5.99996 20.8335H4.66663V22.1668H5.99996V20.8335Z" fill="#0066B3"/>
<path d="M5.99996 18.8333H4.66663V20.1666H5.99996V18.8333Z" fill="#0066B3"/>
<path d="M5.99996 16.8333H4.66663V18.1666H5.99996V16.8333Z" fill="#0066B3"/>
<path d="M5.99996 14.8333H4.66663V16.1666H5.99996V14.8333Z" fill="#0066B3"/>
<path d="M5.99996 12.8333H4.66663V14.1666H5.99996V12.8333Z" fill="#0066B3"/>
<path d="M17.3333 11.5H8.66663V12.8333H17.3333V11.5Z" fill="#0066B3"/>
<path d="M15.3333 13.5H8.66663V14.8333H15.3333V13.5Z" fill="#0066B3"/>
<path d="M16 15.5H8.66663V16.8333H16V15.5Z" fill="#0066B3"/>
<path d="M11.3333 17.5H8.66663V18.8333H11.3333V17.5Z" fill="#0066B3"/>
</svg>
