<svg width="19" height="16" viewBox="0 0 19 16" fill="none" xmlns="http://www.w3.org/2000/svg">
<path d="M18.7285 13.1271L11.3113 0.977643C11.1259 0.679986 10.8613 0.433184 10.5437 0.261698C10.226 0.0902134 9.86641 0 9.50042 0C9.13443 0 8.7748 0.0902134 8.45717 0.261698C8.13953 0.433184 7.87493 0.679986 7.68958 0.977643L0.272325 13.1271C0.0939847 13.415 0 13.7425 0 14.0759C0 14.4094 0.0939847 14.7368 0.272325 15.0247C0.455301 15.3242 0.719455 15.5723 1.03768 15.7437C1.35591 15.9151 1.71675 16.0035 2.08317 15.9999H16.9177C17.2838 16.0032 17.6443 15.9146 17.9622 15.7433C18.2801 15.5719 18.544 15.3239 18.7268 15.0247C18.9054 14.7369 18.9997 14.4096 19 14.0761C19.0003 13.7427 18.9066 13.4152 18.7285 13.1271ZM17.5521 14.3839C17.4874 14.4879 17.3946 14.5739 17.2831 14.6329C17.1716 14.692 17.0455 14.722 16.9177 14.7199H2.08317C1.95533 14.722 1.8292 14.692 1.71772 14.6329C1.60623 14.5739 1.5134 14.4879 1.44874 14.3839C1.39017 14.2904 1.35927 14.1837 1.35927 14.0751C1.35927 13.9665 1.39017 13.8598 1.44874 13.7663L8.86599 1.61684C8.93196 1.5133 9.02521 1.42762 9.13668 1.36814C9.24815 1.30866 9.37405 1.2774 9.50212 1.2774C9.63019 1.2774 9.75609 1.30866 9.86756 1.36814C9.97903 1.42762 10.0723 1.5133 10.1382 1.61684L17.5555 13.7663C17.6136 13.8601 17.6439 13.9669 17.6433 14.0756C17.6427 14.1842 17.6112 14.2907 17.5521 14.3839ZM8.82189 9.59996V6.39999C8.82189 6.23025 8.89338 6.06747 9.02063 5.94745C9.14788 5.82742 9.32046 5.76 9.50042 5.76C9.68038 5.76 9.85297 5.82742 9.98022 5.94745C10.1075 6.06747 10.179 6.23025 10.179 6.39999V9.59996C10.179 9.7697 10.1075 9.93248 9.98022 10.0525C9.85297 10.1725 9.68038 10.24 9.50042 10.24C9.32046 10.24 9.14788 10.1725 9.02063 10.0525C8.89338 9.93248 8.82189 9.7697 8.82189 9.59996ZM10.5182 12.4799C10.5182 12.6698 10.4585 12.8554 10.3467 13.0133C10.2349 13.1711 10.0759 13.2942 9.88992 13.3668C9.70394 13.4395 9.49929 13.4585 9.30186 13.4215C9.10442 13.3844 8.92307 13.293 8.78073 13.1587C8.63838 13.0245 8.54145 12.8534 8.50217 12.6672C8.4629 12.481 8.48306 12.288 8.56009 12.1126C8.63713 11.9371 8.76758 11.7872 8.93496 11.6817C9.10234 11.5762 9.29912 11.5199 9.50042 11.5199C9.77036 11.5199 10.0292 11.6211 10.2201 11.8011C10.411 11.9811 10.5182 12.2253 10.5182 12.4799Z" fill="#FF7A00"/>
</svg>
