<svg width="50" height="50" viewBox="0 0 50 50" fill="none" xmlns="http://www.w3.org/2000/svg">
<path d="M33.7292 4.1665H16.2708C8.6875 4.1665 4.16667 8.68734 4.16667 16.2707V33.729C4.16667 41.3123 8.6875 45.8332 16.2708 45.8332H33.7292C41.3125 45.8332 45.8333 41.3123 45.8333 33.729V16.2707C45.8333 8.68734 41.3125 4.1665 33.7292 4.1665ZM20.7708 31.0415L16.0833 35.729C15.7708 36.0415 15.375 36.1873 14.9792 36.1873C14.5833 36.1873 14.1667 36.0415 13.875 35.729L12.3125 34.1665C11.6875 33.5623 11.6875 32.5623 12.3125 31.9582C12.9167 31.354 13.8958 31.354 14.5208 31.9582L14.9792 32.4165L18.5625 28.8332C19.1667 28.229 20.1458 28.229 20.7708 28.8332C21.375 29.4373 21.375 30.4373 20.7708 31.0415ZM20.7708 16.4582L16.0833 21.1457C15.7708 21.4582 15.375 21.604 14.9792 21.604C14.5833 21.604 14.1667 21.4582 13.875 21.1457L12.3125 19.5832C11.6875 18.979 11.6875 17.979 12.3125 17.3748C12.9167 16.7707 13.8958 16.7707 14.5208 17.3748L14.9792 17.8332L18.5625 14.2498C19.1667 13.6457 20.1458 13.6457 20.7708 14.2498C21.375 14.854 21.375 15.854 20.7708 16.4582ZM36.5833 34.6248H25.6458C24.7917 34.6248 24.0833 33.9165 24.0833 33.0623C24.0833 32.2082 24.7917 31.4998 25.6458 31.4998H36.5833C37.4583 31.4998 38.1458 32.2082 38.1458 33.0623C38.1458 33.9165 37.4583 34.6248 36.5833 34.6248ZM36.5833 20.0415H25.6458C24.7917 20.0415 24.0833 19.3332 24.0833 18.479C24.0833 17.6248 24.7917 16.9165 25.6458 16.9165H36.5833C37.4583 16.9165 38.1458 17.6248 38.1458 18.479C38.1458 19.3332 37.4583 20.0415 36.5833 20.0415Z" fill="black" fill-opacity="0.4"/>
</svg>
