<svg width="25" height="24" viewBox="0 0 25 24" fill="none" xmlns="http://www.w3.org/2000/svg">
<path d="M20.4 12.66C20.2397 12.4775 20.1513 12.2429 20.1513 12C20.1513 11.7571 20.2397 11.5225 20.4 11.34L21.68 9.90002C21.8211 9.74269 21.9087 9.54472 21.9302 9.33452C21.9518 9.12433 21.9062 8.9127 21.8 8.73002L19.8 5.27002C19.6949 5.08754 19.5349 4.94289 19.3428 4.8567C19.1506 4.77051 18.9362 4.74718 18.73 4.79002L16.85 5.17002C16.6108 5.21945 16.3618 5.17961 16.1499 5.05802C15.938 4.93643 15.778 4.7415 15.7 4.51002L15.09 2.68002C15.0229 2.4814 14.8951 2.30888 14.7246 2.18686C14.5542 2.06484 14.3497 1.99948 14.14 2.00002H10.14C9.92195 1.98864 9.70615 2.04894 9.52558 2.17173C9.34501 2.29452 9.2096 2.47304 9.14002 2.68002L8.58002 4.51002C8.50202 4.7415 8.34199 4.93643 8.13013 5.05802C7.91827 5.17961 7.66924 5.21945 7.43002 5.17002L5.50002 4.79002C5.30457 4.7624 5.10532 4.79324 4.92737 4.87866C4.74941 4.96407 4.60072 5.10025 4.50002 5.27002L2.50002 8.73002C2.39118 8.91067 2.34224 9.1211 2.3602 9.33124C2.37816 9.54138 2.4621 9.74046 2.60002 9.90002L3.87002 11.34C4.03034 11.5225 4.11875 11.7571 4.11875 12C4.11875 12.2429 4.03034 12.4775 3.87002 12.66L2.60002 14.1C2.4621 14.2596 2.37816 14.4587 2.3602 14.6688C2.34224 14.8789 2.39118 15.0894 2.50002 15.27L4.50002 18.73C4.60512 18.9125 4.76514 19.0571 4.95727 19.1433C5.1494 19.2295 5.36384 19.2529 5.57002 19.21L7.45002 18.83C7.68924 18.7806 7.93827 18.8204 8.15013 18.942C8.36199 19.0636 8.52202 19.2585 8.60002 19.49L9.21002 21.32C9.2796 21.527 9.41501 21.7055 9.59558 21.8283C9.77615 21.9511 9.99195 22.0114 10.21 22H14.21C14.4197 22.0006 14.6242 21.9352 14.7946 21.8132C14.9651 21.6912 15.0929 21.5186 15.16 21.32L15.77 19.49C15.848 19.2585 16.008 19.0636 16.2199 18.942C16.4318 18.8204 16.6808 18.7806 16.92 18.83L18.8 19.21C19.0062 19.2529 19.2206 19.2295 19.4128 19.1433C19.6049 19.0571 19.7649 18.9125 19.87 18.73L21.87 15.27C21.9762 15.0873 22.0218 14.8757 22.0002 14.6655C21.9787 14.4553 21.8911 14.2573 21.75 14.1L20.4 12.66ZM18.91 14L19.71 14.9L18.43 17.12L17.25 16.88C16.5298 16.7328 15.7806 16.8551 15.1446 17.2238C14.5086 17.5925 14.0302 18.1819 13.8 18.88L13.42 20H10.86L10.5 18.86C10.2699 18.1619 9.7914 17.5725 9.15542 17.2038C8.51945 16.8351 7.77024 16.7128 7.05002 16.86L5.87002 17.1L4.57002 14.89L5.37002 13.99C5.86197 13.44 6.13395 12.7279 6.13395 11.99C6.13395 11.2521 5.86197 10.54 5.37002 9.99002L4.57002 9.09002L5.85002 6.89002L7.03002 7.13002C7.75024 7.27724 8.49945 7.1549 9.13542 6.78622C9.7714 6.41753 10.2499 5.82818 10.48 5.13002L10.86 4.00002H13.42L13.8 5.14002C14.0302 5.83818 14.5086 6.42753 15.1446 6.79622C15.7806 7.1649 16.5298 7.28724 17.25 7.14002L18.43 6.90002L19.71 9.12002L18.91 10.02C18.4236 10.5688 18.155 11.2767 18.155 12.01C18.155 12.7433 18.4236 13.4513 18.91 14ZM12.14 8.00002C11.3489 8.00002 10.5755 8.23461 9.91774 8.67414C9.25994 9.11366 8.74725 9.73838 8.4445 10.4693C8.14175 11.2002 8.06254 12.0045 8.21688 12.7804C8.37122 13.5563 8.75218 14.269 9.31159 14.8284C9.871 15.3879 10.5837 15.7688 11.3597 15.9232C12.1356 16.0775 12.9398 15.9983 13.6708 15.6955C14.4017 15.3928 15.0264 14.8801 15.4659 14.2223C15.9054 13.5645 16.14 12.7911 16.14 12C16.14 10.9392 15.7186 9.92174 14.9684 9.17159C14.2183 8.42144 13.2009 8.00002 12.14 8.00002ZM12.14 14C11.7445 14 11.3578 13.8827 11.0289 13.663C10.7 13.4432 10.4436 13.1308 10.2923 12.7654C10.1409 12.3999 10.1013 11.9978 10.1784 11.6098C10.2556 11.2219 10.4461 10.8655 10.7258 10.5858C11.0055 10.3061 11.3619 10.1156 11.7498 10.0384C12.1378 9.96128 12.5399 10.0009 12.9054 10.1523C13.2708 10.3036 13.5832 10.56 13.803 10.8889C14.0227 11.2178 14.14 11.6045 14.14 12C14.14 12.5304 13.9293 13.0392 13.5542 13.4142C13.1792 13.7893 12.6705 14 12.14 14Z" fill="#0066B3"/>
</svg>
