<svg width="21" height="20" viewBox="0 0 21 20" fill="none" xmlns="http://www.w3.org/2000/svg">
<path d="M18.8334 9.99998V14.1666C18.8334 16.6666 17.1667 18.3333 14.6667 18.3333H6.33341C3.83341 18.3333 2.16675 16.6666 2.16675 14.1666V9.99998C2.16675 7.73331 3.53341 6.14998 5.65841 5.88331C5.87508 5.84998 6.10008 5.83331 6.33341 5.83331H14.6667C14.8834 5.83331 15.0917 5.84164 15.2917 5.87497C17.4417 6.12497 18.8334 7.71665 18.8334 9.99998Z" stroke="white" stroke-width="1.5" stroke-linecap="round" stroke-linejoin="round"/>
<path d="M15.2928 5.87502C15.0928 5.84169 14.8844 5.83336 14.6678 5.83336H6.33442C6.10109 5.83336 5.87609 5.85003 5.65942 5.88336C5.77609 5.65003 5.94276 5.43336 6.14276 5.23336L8.85109 2.51669C9.99276 1.38335 11.8428 1.38335 12.9844 2.51669L14.4428 3.9917C14.9761 4.5167 15.2594 5.18335 15.2928 5.87502Z" stroke="white" stroke-width="1.5" stroke-linecap="round" stroke-linejoin="round"/>
<path d="M18.8334 10.4167H16.3334C15.4167 10.4167 14.6667 11.1667 14.6667 12.0834C14.6667 13 15.4167 13.75 16.3334 13.75H18.8334" stroke="white" stroke-width="1.5" stroke-linecap="round" stroke-linejoin="round"/>
</svg>
