<svg width="21" height="20" viewBox="0 0 21 20" fill="none" xmlns="http://www.w3.org/2000/svg">
<path d="M18.8332 9.99967V14.1663C18.8332 16.6663 17.1665 18.333 14.6665 18.333H6.33317C3.83317 18.333 2.1665 16.6663 2.1665 14.1663V9.99967C2.1665 7.73301 3.53317 6.14967 5.65817 5.88301C5.87484 5.84967 6.09984 5.83301 6.33317 5.83301H14.6665C14.8832 5.83301 15.0915 5.84133 15.2915 5.87466C17.4415 6.12466 18.8332 7.71634 18.8332 9.99967Z" stroke="white" stroke-width="1.5" stroke-linecap="round" stroke-linejoin="round"/>
<path d="M15.293 5.87532C15.093 5.84199 14.8847 5.83367 14.668 5.83367H6.33467C6.10133 5.83367 5.87633 5.85033 5.65967 5.88367C5.77633 5.65033 5.943 5.43367 6.143 5.23367L8.85134 2.51699C9.993 1.38366 11.843 1.38366 12.9847 2.51699L14.443 3.99201C14.9763 4.51701 15.2597 5.18366 15.293 5.87532Z" stroke="white" stroke-width="1.5" stroke-linecap="round" stroke-linejoin="round"/>
<path d="M18.8332 10.417H16.3332C15.4165 10.417 14.6665 11.167 14.6665 12.0837C14.6665 13.0003 15.4165 13.7503 16.3332 13.7503H18.8332" stroke="white" stroke-width="1.5" stroke-linecap="round" stroke-linejoin="round"/>
</svg>
