<svg width="19" height="15" viewBox="0 0 19 15" fill="none" xmlns="http://www.w3.org/2000/svg">
<path d="M18.7285 11.8861L11.3113 1.25534C11.1259 0.99489 10.8613 0.778938 10.5437 0.628888C10.226 0.478839 9.86641 0.399902 9.50042 0.399902C9.13443 0.399902 8.7748 0.478839 8.45717 0.628888C8.13953 0.778938 7.87493 0.99489 7.68958 1.25534L0.272325 11.8861C0.0939847 12.138 0 12.4246 0 12.7163C0 13.0081 0.0939847 13.2946 0.272325 13.5465C0.455301 13.8085 0.719455 14.0257 1.03768 14.1756C1.35591 14.3256 1.71675 14.403 2.08317 14.3998H16.9177C17.2838 14.4027 17.6443 14.3252 17.9622 14.1753C18.2801 14.0253 18.544 13.8083 18.7268 13.5465C18.9054 13.2947 18.9997 13.0083 19 12.7165C19.0003 12.4248 18.9066 12.1382 18.7285 11.8861ZM17.5521 12.9858C17.4874 13.0769 17.3946 13.1521 17.2831 13.2037C17.1716 13.2554 17.0455 13.2816 16.9177 13.2798H2.08317C1.95533 13.2816 1.8292 13.2554 1.71772 13.2037C1.60623 13.1521 1.5134 13.0769 1.44874 12.9858C1.39017 12.904 1.35927 12.8107 1.35927 12.7156C1.35927 12.6206 1.39017 12.5273 1.44874 12.4454L8.86599 1.81463C8.93196 1.72404 9.02521 1.64907 9.13668 1.59702C9.24815 1.54498 9.37405 1.51762 9.50212 1.51762C9.63019 1.51762 9.75609 1.54498 9.86756 1.59702C9.97903 1.64907 10.0723 1.72404 10.1382 1.81463L17.5555 12.4454C17.6136 12.5275 17.6439 12.621 17.6433 12.716C17.6427 12.8111 17.6112 12.9042 17.5521 12.9858ZM8.82189 8.79987V5.99989C8.82189 5.85137 8.89337 5.70894 9.02063 5.60392C9.14788 5.4989 9.32046 5.4399 9.50042 5.4399C9.68038 5.4399 9.85297 5.4989 9.98022 5.60392C10.1075 5.70894 10.179 5.85137 10.179 5.99989V8.79987C10.179 8.94838 10.1075 9.09082 9.98022 9.19584C9.85297 9.30086 9.68038 9.35986 9.50042 9.35986C9.32046 9.35986 9.14788 9.30086 9.02063 9.19584C8.89337 9.09082 8.82189 8.94838 8.82189 8.79987ZM10.5182 11.3198C10.5182 11.486 10.4585 11.6484 10.3467 11.7865C10.2349 11.9247 10.0759 12.0323 9.88992 12.0959C9.70394 12.1595 9.49929 12.1761 9.30186 12.1437C9.10442 12.1113 8.92307 12.0313 8.78073 11.9138C8.63838 11.7963 8.54145 11.6467 8.50217 11.4837C8.4629 11.3208 8.48306 11.1519 8.56009 10.9984C8.63713 10.8449 8.76758 10.7137 8.93496 10.6214C9.10234 10.5291 9.29912 10.4798 9.50042 10.4798C9.77036 10.4798 10.0292 10.5683 10.2201 10.7259C10.411 10.8834 10.5182 11.0971 10.5182 11.3198Z" fill="#FF0000"/>
</svg>
