<svg width="24" height="24" viewBox="0 0 24 24" fill="none" xmlns="http://www.w3.org/2000/svg">
<path d="M12.1601 2.99521C12.9787 3.04171 13.6601 3.43209 14.0711 4.22559L20.7971 17.8036C21.4492 19.1761 20.4394 21.023 18.7822 21.0496H5.23761C3.72936 21.0256 2.49186 19.313 3.23061 17.7886L10.0822 4.21096C10.2105 3.96721 10.269 3.89671 10.3796 3.76884C10.8244 3.25321 11.3107 2.97721 12.1601 2.99521ZM12.0495 4.49409C11.7919 4.50684 11.556 4.65121 11.4274 4.87546C9.06036 9.36759 6.77849 13.9058 4.56449 18.4756C4.35974 18.935 4.71111 19.5245 5.22524 19.5492C9.74774 19.6223 14.2721 19.6223 18.7946 19.5492C19.2915 19.5252 19.665 18.9552 19.458 18.4805C17.2856 13.9115 15.0461 9.37321 12.7207 4.88034C12.5835 4.63621 12.3821 4.48959 12.0495 4.49409Z" fill="#FAAD14"/>
<path d="M12.6115 15.2179H11.356L11.218 9.04956H12.7555L12.6115 15.2179ZM11.176 17.1042C11.176 16.8758 11.2499 16.6868 11.398 16.5364C11.5465 16.3864 11.7487 16.3111 12.0048 16.3111C12.2613 16.3111 12.4634 16.3864 12.6115 16.5364C12.7597 16.6868 12.8339 16.8758 12.8339 17.1042C12.8339 17.3243 12.7615 17.5084 12.6175 17.6566C12.4732 17.8047 12.2692 17.8789 12.0048 17.8789C11.7404 17.8789 11.5364 17.8047 11.392 17.6566C11.248 17.5084 11.176 17.3243 11.176 17.1042Z" fill="#FAAD14"/>
</svg>
