<svg width="28" height="32" viewBox="0 0 28 32" fill="none" xmlns="http://www.w3.org/2000/svg">
<g filter="url(#filter0_d_9985_51880)">
<path d="M21.5 8.98307C18.725 8.70807 15.9333 8.56641 13.15 8.56641C11.5 8.56641 9.85 8.64974 8.2 8.81641L6.5 8.98307" stroke="#EA3829" stroke-width="1.5" stroke-linecap="round" stroke-linejoin="round"/>
<path d="M11.082 8.14199L11.2654 7.05033C11.3987 6.25866 11.4987 5.66699 12.907 5.66699H15.0904C16.4987 5.66699 16.607 6.29199 16.732 7.05866L16.9154 8.14199" stroke="#EA3829" stroke-width="1.5" stroke-linecap="round" stroke-linejoin="round"/>
<path d="M19.7096 11.6162L19.168 20.0079C19.0763 21.3162 19.0013 22.3329 16.6763 22.3329H11.3263C9.0013 22.3329 8.9263 21.3162 8.83464 20.0079L8.29297 11.6162" stroke="#EA3829" stroke-width="1.5" stroke-linecap="round" stroke-linejoin="round"/>
<path d="M12.6094 17.75H15.3844" stroke="#EA3829" stroke-width="1.5" stroke-linecap="round" stroke-linejoin="round"/>
<path d="M11.918 14.417H16.0846" stroke="#EA3829" stroke-width="1.5" stroke-linecap="round" stroke-linejoin="round"/>
</g>
<defs>
<filter id="filter0_d_9985_51880" x="-4" y="0" width="36" height="36" filterUnits="userSpaceOnUse" color-interpolation-filters="sRGB">
<feFlood flood-opacity="0" result="BackgroundImageFix"/>
<feColorMatrix in="SourceAlpha" type="matrix" values="0 0 0 0 0 0 0 0 0 0 0 0 0 0 0 0 0 0 127 0" result="hardAlpha"/>
<feOffset dy="4"/>
<feGaussianBlur stdDeviation="2"/>
<feComposite in2="hardAlpha" operator="out"/>
<feColorMatrix type="matrix" values="0 0 0 0 0 0 0 0 0 0 0 0 0 0 0 0 0 0 0.25 0"/>
<feBlend mode="normal" in2="BackgroundImageFix" result="effect1_dropShadow_9985_51880"/>
<feBlend mode="normal" in="SourceGraphic" in2="effect1_dropShadow_9985_51880" result="shape"/>
</filter>
</defs>
</svg>
